<svg width="16" height="18" viewBox="0 0 16 18" fill="none" xmlns="http://www.w3.org/2000/svg">
<g id="Arrow">
<path id="Vector" d="M13.2204 3.33884L6.36859 3.45056C6.19015 3.45347 6.04326 3.60035 6.04037 3.77878C6.03746 3.95722 6.17964 4.0994 6.35806 4.09647L12.4301 3.99746L2.31309 14.1145C2.18478 14.2428 2.18145 14.4471 2.30564 14.5713C2.42982 14.6954 2.63413 14.6921 2.76244 14.5638L12.8794 4.44681L12.7804 10.5188C12.7775 10.6973 12.9197 10.8394 13.0981 10.8365C13.1873 10.8351 13.2687 10.7976 13.328 10.7382C13.3874 10.6788 13.4249 10.5975 13.4263 10.5083L13.5381 3.6565C13.541 3.4781 13.3988 3.33593 13.2204 3.33884Z" fill="white" stroke="white" stroke-width="1.4"/>
</g>
</svg>
