<svg width="115" height="116" viewBox="0 0 115 116" fill="none" xmlns="http://www.w3.org/2000/svg">
<path d="M39.5967 22.2413L38.9383 22.6125C38.7511 22.395 38.5347 22.2185 38.2892 22.0831C38.0446 21.944 37.7826 21.8502 37.5029 21.8017C37.2233 21.7532 36.9377 21.7542 36.6462 21.8047C36.3547 21.8552 36.0677 21.9601 35.7852 22.1193C35.3322 22.3746 34.9855 22.7255 34.7448 23.1719C34.5065 23.6169 34.4043 24.1315 34.4381 24.7154C34.4729 25.2957 34.6766 25.9163 35.049 26.577C35.4241 27.2424 35.8509 27.7402 36.3293 28.0705C36.8101 28.3994 37.3026 28.5772 37.8067 28.6037C38.3119 28.6266 38.791 28.5104 39.2439 28.2551C39.5264 28.0958 39.7647 27.9046 39.9588 27.6813C40.153 27.458 40.3023 27.2154 40.4069 26.9534C40.5102 26.689 40.5656 26.4163 40.5732 26.1351C40.5832 25.8526 40.5436 25.5749 40.4545 25.3021L41.1129 24.931C41.2401 25.2931 41.3034 25.662 41.3029 26.0376C41.3033 26.4096 41.2397 26.7716 41.112 27.1236C40.9866 27.4742 40.7976 27.7992 40.5448 28.0986C40.2921 28.398 39.9742 28.6556 39.5913 28.8715C38.989 29.211 38.3694 29.3618 37.7327 29.3238C37.0946 29.2835 36.4872 29.0629 35.9105 28.6619C35.3361 28.2596 34.8376 27.6838 34.4151 26.9343C33.9927 26.1849 33.7581 25.4603 33.7113 24.7605C33.6668 24.0595 33.7932 23.4268 34.0904 22.8624C34.3863 22.2956 34.8354 21.8425 35.4377 21.5029C35.8206 21.2871 36.2056 21.1486 36.5926 21.0873C36.9782 21.0238 37.3542 21.0303 37.7204 21.1069C38.0877 21.1798 38.4303 21.3128 38.7483 21.5058C39.0687 21.6975 39.3515 21.9427 39.5967 22.2413Z" fill="#6B738A"/>
<path d="M48.8754 24.4809C48.3558 24.6013 47.8657 24.5759 47.4052 24.4048C46.9472 24.233 46.5521 23.9408 46.2198 23.5281C45.887 23.1127 45.6498 22.5996 45.5082 21.9886C45.3654 21.3724 45.3522 20.8046 45.4684 20.2852C45.5841 19.7632 45.8101 19.3257 46.1464 18.9726C46.4848 18.6164 46.9138 18.378 47.4334 18.2576C47.953 18.1372 48.4417 18.1629 48.8997 18.3347C49.3577 18.5064 49.7531 18.7999 50.0859 19.2153C50.4214 19.63 50.6605 20.1455 50.8033 20.7617C50.9449 21.3726 50.9575 21.9378 50.8413 22.4572C50.7244 22.974 50.4968 23.4105 50.1584 23.7668C49.8227 24.1225 49.395 24.3605 48.8754 24.4809ZM48.7275 23.8425C49.1452 23.7457 49.473 23.5515 49.7108 23.2598C49.9486 22.9681 50.0986 22.6183 50.1609 22.2104C50.2259 21.802 50.2063 21.3732 50.1022 20.9241C49.9982 20.475 49.8269 20.08 49.5883 19.7391C49.3524 19.3976 49.0632 19.1469 48.7207 18.9869C48.3783 18.8269 47.9981 18.7953 47.5804 18.8921C47.1652 18.9883 46.8378 19.1838 46.598 19.4788C46.3608 19.7731 46.21 20.1258 46.1457 20.5368C46.084 20.9473 46.1052 21.3771 46.2093 21.8262C46.3133 22.2753 46.483 22.6692 46.7184 23.0081C46.9563 23.3464 47.2462 23.5942 47.5881 23.7516C47.9299 23.909 48.3097 23.9393 48.7275 23.8425Z" fill="#6B738A"/>
<path d="M58.4543 20.0071L58.2309 23.86L57.5165 23.8186L57.8739 17.6539L58.5682 17.6941L58.5121 18.6614L58.5764 18.6651C58.7391 18.3577 58.9786 18.1179 59.2946 17.9456C59.6135 17.7708 59.999 17.6965 60.4512 17.7227C60.8659 17.7468 61.2248 17.8548 61.5277 18.0469C61.8335 18.2364 62.0637 18.5035 62.2182 18.848C62.3754 19.1927 62.4399 19.6085 62.4117 20.0955L62.1802 24.0889L61.4658 24.0475L61.6947 20.0983C61.724 19.5926 61.6054 19.1843 61.3389 18.8736C61.075 18.5629 60.7062 18.3939 60.2326 18.3665C59.9089 18.3477 59.6172 18.4006 59.3576 18.5251C59.0981 18.6497 58.8871 18.8388 58.7247 19.0925C58.5652 19.3437 58.4751 19.6485 58.4543 20.0071Z" fill="#6B738A"/>
<path d="M72.7954 20.5051L72.5855 21.0918L69.8108 20.0994L70.0207 19.5127L72.7954 20.5051ZM71.3858 18.4297L72.0634 18.6721L70.0284 24.3615C69.9418 24.6037 69.9152 24.8092 69.9489 24.9778C69.9834 25.1438 70.0572 25.2798 70.1702 25.3857C70.2841 25.489 70.4167 25.5678 70.5681 25.6219C70.6564 25.6535 70.734 25.6756 70.8007 25.688C70.8683 25.698 70.9283 25.7052 70.9808 25.7098L70.9066 26.3707C70.832 26.3724 70.7431 26.3663 70.64 26.3521C70.536 26.3406 70.4133 26.3095 70.272 26.2589C70.0247 26.1705 69.8056 26.0309 69.6148 25.8403C69.4264 25.6505 69.2975 25.4222 69.2278 25.1554C69.1582 24.8885 69.1802 24.5961 69.294 24.2781L71.3858 18.4297Z" fill="#6B738A"/>
<path d="M77.2916 30.5634C76.9903 30.3442 76.7577 30.0854 76.5937 29.787C76.4312 29.4864 76.3575 29.1709 76.3726 28.8405C76.3892 28.5079 76.5142 28.1812 76.7476 27.8605C76.9274 27.6134 77.1254 27.4393 77.3416 27.3381C77.5578 27.2369 77.7909 27.1944 78.041 27.2106C78.291 27.2269 78.5559 27.2887 78.8357 27.3962C79.1155 27.5037 79.4089 27.6426 79.7158 27.8129C80.0206 27.9817 80.2789 28.1232 80.4907 28.2376C80.7046 28.3535 80.883 28.4204 81.0259 28.4382C81.1687 28.4559 81.2859 28.402 81.3774 28.2763L81.4625 28.1593C81.7101 27.819 81.8031 27.4773 81.7413 27.134C81.6833 26.7901 81.4646 26.4802 81.0854 26.2042C80.7257 25.9424 80.3745 25.8078 80.0318 25.8005C79.6913 25.7946 79.3975 25.8659 79.1503 26.0142L78.7453 25.4161C79.0567 25.2251 79.3712 25.1208 79.6888 25.1034C80.0081 25.0838 80.3172 25.1281 80.6163 25.2364C80.917 25.3425 81.1941 25.4878 81.4476 25.6723C81.6383 25.8111 81.8185 25.9803 81.9881 26.18C82.1598 26.3812 82.2896 26.6083 82.3774 26.8611C82.4668 27.1118 82.4871 27.3868 82.4384 27.6861C82.3912 27.9832 82.2462 28.2986 82.0033 28.6324L79.536 32.0227L78.9574 31.6016L79.5322 30.8118L79.4965 30.7857C79.3199 30.8826 79.1129 30.9507 78.8754 30.9901C78.638 31.0294 78.384 31.0186 78.1134 30.9576C77.8429 30.8967 77.5689 30.7652 77.2916 30.5634ZM77.7552 30.0903C78.0629 30.3143 78.3791 30.44 78.7038 30.4675C79.0286 30.4949 79.3336 30.4402 79.619 30.3031C79.9081 30.1654 80.152 29.9601 80.3507 29.687L80.8759 28.9654C80.8026 28.975 80.7032 28.9591 80.5777 28.9174C80.4543 28.8774 80.3171 28.8223 80.166 28.7521C80.0186 28.6813 79.8736 28.6073 79.731 28.53C79.5883 28.4527 79.4603 28.3827 79.3468 28.32C79.0398 28.1497 78.7599 28.0288 78.5069 27.9574C78.2539 27.886 78.027 27.8766 77.8262 27.9294C77.6269 27.98 77.454 28.106 77.3073 28.3076C77.0865 28.611 77.0238 28.9249 77.119 29.2495C77.2159 29.5719 77.4279 29.8522 77.7552 30.0903Z" fill="#6B738A"/>
<path d="M84.6341 37.8719C84.2973 37.4344 84.1132 36.969 84.0818 36.4757C84.052 35.9844 84.1585 35.5033 84.4013 35.0323C84.6441 34.5612 85.0087 34.1385 85.495 33.7641C85.9856 33.3864 86.4915 33.1407 87.0127 33.0269C87.5356 32.9152 88.0296 32.9374 88.4947 33.0935C88.962 33.2479 89.3599 33.5385 89.6886 33.9654C89.9404 34.2924 90.1047 34.6377 90.1817 35.0013C90.2608 35.3632 90.2518 35.7185 90.1549 36.0671C90.0617 36.4161 89.8805 36.7299 89.6111 37.0083L89.1697 36.4349C89.4 36.1629 89.5253 35.838 89.5458 35.4604C89.57 35.0832 89.448 34.7205 89.1799 34.3722C88.9395 34.06 88.642 33.8493 88.2874 33.7402C87.9349 33.6293 87.5555 33.6221 87.1493 33.7183C86.7469 33.815 86.3481 34.0155 85.9531 34.3196C85.556 34.6253 85.2552 34.9617 85.0508 35.3288C84.8484 35.6943 84.7528 36.0622 84.7639 36.4325C84.7766 36.8049 84.9065 37.1514 85.1533 37.4721C85.3201 37.6887 85.5125 37.8552 85.7305 37.9714C85.9523 38.0882 86.1852 38.149 86.4292 38.154C86.6748 38.1611 86.918 38.1058 87.1589 37.988L87.6003 38.5614C87.2724 38.7462 86.9281 38.8438 86.5675 38.8543C86.2106 38.8652 85.8641 38.7886 85.5281 38.6245C85.1937 38.4625 84.8957 38.2117 84.6341 37.8719Z" fill="#6B738A"/>
<path d="M94.8177 43.465L94.2369 43.6907L93.1699 40.9438L93.7507 40.7181L94.8177 43.465ZM95.4631 41.0406L95.7237 41.7114L90.0913 43.8993C89.8515 43.9924 89.6788 44.1069 89.5735 44.2427C89.4706 44.3776 89.4161 44.5224 89.4101 44.6771C89.4066 44.8309 89.4339 44.9827 89.4921 45.1326C89.5261 45.22 89.5602 45.293 89.5945 45.3516C89.6312 45.4092 89.6651 45.4593 89.696 45.5019L89.148 45.8787C89.0977 45.8235 89.0442 45.7522 88.9873 45.6651C88.928 45.5789 88.8711 45.4658 88.8168 45.3259C88.7217 45.0811 88.6837 44.8241 88.7028 44.5551C88.7229 44.2885 88.811 44.0415 88.967 43.8141C89.1231 43.5867 89.3585 43.4119 89.6733 43.2896L95.4631 41.0406Z" fill="#6B738A"/>
<path d="M91.5102 66.0027C91.6165 65.48 91.8432 65.0448 92.1902 64.6969C92.5367 64.3517 92.9666 64.1137 93.4801 63.9829C93.9961 63.8527 94.5614 63.8501 95.176 63.9751C95.7958 64.1012 96.3178 64.325 96.742 64.6465C97.1688 64.9686 97.4729 65.3559 97.6543 65.8085C97.8378 66.2643 97.8764 66.7536 97.7701 67.2762C97.6638 67.7989 97.4374 68.2328 97.0909 68.578C96.7444 68.9233 96.3131 69.161 95.7971 69.2912C95.2805 69.4241 94.7123 69.4275 94.0924 69.3014C93.4779 69.1763 92.9585 68.9531 92.5343 68.6316C92.1128 68.3106 91.8103 67.9222 91.6268 67.4664C91.4427 67.0132 91.4038 66.5253 91.5102 66.0027ZM92.1523 66.1333C92.0668 66.5535 92.1074 66.9324 92.2739 67.2699C92.4405 67.6073 92.6963 67.8891 93.0414 68.1152C93.386 68.344 93.7842 68.5043 94.2359 68.5962C94.6876 68.6881 95.1181 68.6964 95.5273 68.621C95.9359 68.5482 96.2842 68.3893 96.572 68.1443C96.8598 67.8992 97.0464 67.5666 97.1319 67.1464C97.2168 66.7288 97.175 66.3497 97.0064 66.009C96.8372 65.671 96.579 65.3874 96.2318 65.1581C95.884 64.9315 95.4843 64.7722 95.0326 64.6803C94.5808 64.5884 94.1519 64.5791 93.7459 64.6524C93.3394 64.7283 92.9935 64.8891 92.7083 65.1346C92.4231 65.3802 92.2378 65.7131 92.1523 66.1333Z" fill="#6B738A"/>
<path d="M89.6257 77.0151L92.9986 78.7981L92.6642 79.4308L87.205 76.5448L87.5394 75.9122L88.4457 76.3913L88.472 76.3415C88.2601 76.0658 88.1338 75.7398 88.0932 75.3636C88.0549 74.9887 88.1416 74.601 88.3533 74.2006C88.5374 73.8523 88.7767 73.5831 89.0712 73.3932C89.368 73.2045 89.7052 73.1114 90.0828 73.114C90.4604 73.1165 90.8648 73.2318 91.296 73.4598L94.8324 75.3293L94.498 75.9619L91.0007 74.1131C90.5742 73.8876 90.1642 73.8316 89.7708 73.9449C89.3798 74.0596 89.0803 74.3136 88.8724 74.7069C88.7421 74.9533 88.6761 75.2216 88.6743 75.5117C88.6725 75.8018 88.7465 76.0804 88.8963 76.3475C89.0485 76.6159 89.2916 76.8385 89.6257 77.0151Z" fill="#6B738A"/>
<path d="M83.6417 81.1148L88.0667 85.4219L87.5816 85.9203L86.9017 85.2585L86.8652 85.296C87.002 85.6012 87.032 85.9296 86.9553 86.2813C86.8786 86.6368 86.7047 86.9537 86.4336 87.2322C86.3925 87.2745 86.3457 87.3206 86.2934 87.3706C86.241 87.4206 86.197 87.4619 86.1614 87.4946L85.64 86.9871C85.6662 86.9677 85.7113 86.933 85.775 86.8829C85.8388 86.8327 85.9034 86.7741 85.9688 86.7068C86.1931 86.4764 86.3442 86.2232 86.422 85.9473C86.4998 85.6753 86.5037 85.4042 86.4337 85.1341C86.3638 84.864 86.2193 84.6224 86.0003 84.4093L83.1425 81.6276L83.6417 81.1148Z" fill="#6B738A"/>
<path d="M64.0861 91.3405C64.6475 91.2104 65.1634 91.2284 65.6338 91.3945C66.1048 91.5632 66.5065 91.854 66.8387 92.2667C67.1689 92.6826 67.4045 93.1948 67.5455 93.8031C67.6859 94.4089 67.6995 94.9725 67.5865 95.4939C67.4714 96.0185 67.2477 96.4596 66.9151 96.8173C66.5806 97.1782 66.1535 97.4188 65.6339 97.5392C65.3075 97.6149 64.979 97.6277 64.6483 97.5778C64.3182 97.5305 64.0046 97.4119 63.7075 97.2222C63.4084 97.0356 63.1454 96.7733 62.9185 96.4352C62.6922 96.0997 62.5207 95.68 62.4039 95.1761L62.3241 94.8315L67.0238 93.7424L67.1663 94.3573L63.1793 95.2812C63.2689 95.6676 63.4277 95.9967 63.6557 96.2685C63.8818 96.5435 64.1541 96.739 64.4726 96.8551C64.7885 96.9717 65.1266 96.9883 65.4869 96.9048C65.8681 96.8164 66.18 96.6369 66.4226 96.3661C66.6653 96.0952 66.8301 95.7737 66.9171 95.4014C67.0016 95.0296 66.9991 94.645 66.9098 94.2476L66.8245 93.8794C66.7138 93.4016 66.5347 93.0029 66.2873 92.6833C66.038 92.367 65.7378 92.1462 65.387 92.0212C65.0361 91.8962 64.6518 91.8821 64.234 91.9789C63.9494 92.0448 63.7104 92.147 63.5169 92.2853C63.3207 92.4243 63.1668 92.5852 63.055 92.7679C62.9413 92.9538 62.8675 93.1456 62.8335 93.3433L62.1217 93.2813C62.1544 93.0069 62.2504 92.7384 62.4096 92.4759C62.5663 92.214 62.7849 91.9818 63.0653 91.7792C63.3438 91.5799 63.684 91.4336 64.0861 91.3405Z" fill="#6B738A"/>
<path d="M57.3389 98.4142L55.902 95.6933L54.1602 98.23L53.3294 98.1818L55.4908 95.2144L53.6868 92.0171L54.5176 92.0652L55.9594 94.7019L57.6963 92.2495L58.5231 92.2974L56.3858 95.2662L58.1657 98.4621L57.3389 98.4142Z" fill="#6B738A"/>
<path d="M49.3976 89.2802L46.538 97.275L45.8831 97.0407L46.2798 95.9316L46.2004 95.9032C46.0573 96.0484 45.8826 96.1866 45.6763 96.3178C45.4691 96.4515 45.2269 96.5399 44.9496 96.583C44.6697 96.6252 44.3519 96.5827 43.9961 96.4554C43.5166 96.2839 43.1428 96.0079 42.8747 95.6274C42.6032 95.2485 42.4486 94.7975 42.4108 94.2745C42.3696 93.7531 42.4559 93.1933 42.6698 92.5952C42.8847 91.9946 43.1738 91.5045 43.5373 91.125C43.8982 90.7446 44.3042 90.4928 44.7554 90.3695C45.204 90.2453 45.6655 90.2681 46.1399 90.4378C46.4907 90.5632 46.7622 90.7315 46.9542 90.9425C47.1438 91.1526 47.2788 91.376 47.3593 91.6126C47.4364 91.8507 47.4824 92.0722 47.4974 92.2768L47.558 92.2985L48.7238 89.0392L49.3976 89.2802ZM46.913 94.1257C47.0809 93.6563 47.1604 93.2151 47.1516 92.8021C47.1393 92.3907 47.039 92.0345 46.8506 91.7337C46.6587 91.4345 46.3748 91.2177 45.9987 91.0832C45.6126 90.9451 45.2492 90.9347 44.9084 91.0519C44.5642 91.1707 44.2577 91.387 43.9889 91.7007C43.7176 92.0136 43.5011 92.3959 43.3396 92.8476C43.1798 93.2943 43.1052 93.7216 43.1159 94.1296C43.124 94.5367 43.2243 94.8928 43.4169 95.1979C43.6086 95.5056 43.8987 95.7289 44.2873 95.8679C44.6659 96.0033 45.0242 96.0162 45.3623 95.9066C45.6995 95.7995 46.0016 95.5916 46.2685 95.2829C46.5321 94.9758 46.7469 94.5901 46.913 94.1257Z" fill="#6B738A"/>
<path d="M36.5249 85.0364C36.9908 85.3755 37.315 85.7771 37.4976 86.2414C37.6785 86.7079 37.7218 87.2018 37.6275 87.7232C37.5294 88.2451 37.2966 88.7586 36.9291 89.2635C36.5633 89.7663 36.1463 90.1457 35.6782 90.4017C35.2064 90.6583 34.7265 90.778 34.2384 90.761C33.7466 90.7445 33.285 90.5793 32.8538 90.2654C32.5829 90.0683 32.358 89.8284 32.1792 89.5458C31.9988 89.2654 31.883 88.9507 31.8319 88.6019C31.777 88.2537 31.803 87.8832 31.91 87.4903C32.0153 87.0996 32.2202 86.6951 32.5245 86.2769L32.7327 85.9908L36.6334 88.8295L36.262 89.3399L32.9529 86.9317C32.7195 87.2524 32.5748 87.588 32.5187 87.9383C32.4589 88.2892 32.4894 88.623 32.6103 88.9397C32.729 89.2548 32.9379 89.5212 33.237 89.7389C33.5534 89.9691 33.8934 90.0872 34.2569 90.0933C34.6205 90.0993 34.9714 90.0133 35.3098 89.8352C35.646 89.6556 35.9351 89.4019 36.177 89.0741L36.3993 88.7686C36.6879 88.372 36.872 87.9756 36.9515 87.5793C37.0273 87.1837 36.9976 86.8123 36.8623 86.4653C36.727 86.1182 36.486 85.8186 36.1393 85.5662C35.9031 85.3943 35.6693 85.2806 35.438 85.2249C35.2045 85.1677 34.9822 85.1567 34.7709 85.1919C34.5559 85.2277 34.3626 85.2975 34.1909 85.4013L33.7717 84.8227C34.0005 84.6677 34.2663 84.5645 34.569 84.5129C34.8695 84.4598 35.1881 84.4729 35.5248 84.5522C35.8578 84.6321 36.1912 84.7935 36.5249 85.0364Z" fill="#6B738A"/>
<path d="M30.4315 80.0436L25.5385 83.8106L25.1143 83.2595L25.866 82.6807L25.8342 82.6393C25.5126 82.7313 25.1832 82.7143 24.8461 82.5883C24.5051 82.4617 24.2161 82.2445 23.9791 81.9366C23.9431 81.8899 23.9041 81.837 23.8621 81.778C23.8201 81.7191 23.7854 81.6696 23.7581 81.6298L24.3347 81.1859C24.35 81.2146 24.378 81.2641 24.4186 81.3344C24.4591 81.4047 24.508 81.4769 24.5652 81.5513C24.7614 81.8061 24.9905 81.9917 25.2525 82.1079C25.5108 82.2237 25.7785 82.2661 26.0558 82.2353C26.3331 82.2045 26.5928 82.0958 26.8349 81.9095L29.995 79.4766L30.4315 80.0436Z" fill="#6B738A"/>
<path d="M19.5963 72.5643L20.1772 72.3386L21.2442 75.0855L20.6633 75.3111L19.5963 72.5643ZM18.9509 74.9887L18.6904 74.3179L24.3228 72.13C24.5626 72.0369 24.7352 71.9224 24.8406 71.7866C24.9435 71.6517 24.9979 71.5069 25.004 71.3522C25.0075 71.1984 24.9802 71.0466 24.9219 70.8967C24.888 70.8093 24.8539 70.7363 24.8196 70.6777C24.7828 70.6201 24.749 70.57 24.7181 70.5274L25.2661 70.1506C25.3163 70.2058 25.3699 70.2771 25.4267 70.3642C25.4861 70.4504 25.5429 70.5635 25.5973 70.7034C25.6924 70.9482 25.7304 71.2052 25.7113 71.4742C25.6912 71.7408 25.6031 71.9878 25.447 72.2152C25.2909 72.4426 25.0555 72.6174 24.7407 72.7397L18.9509 74.9887Z" fill="#6B738A"/>
<path d="M18.2798 60.1821L18.5196 60.8193C18.3408 60.8991 18.1816 61.0041 18.042 61.1343C17.9025 61.2645 17.7967 61.4282 17.7247 61.6253C17.6525 61.8198 17.6282 62.0558 17.6519 62.3336C17.6873 62.7502 17.8152 63.0836 18.0356 63.3338C18.2559 63.584 18.5223 63.6959 18.8348 63.6693C19.0991 63.6468 19.3064 63.5377 19.4565 63.342C19.6037 63.1439 19.7091 62.8498 19.7728 62.4597L19.922 61.5109C20.0037 60.9849 20.1698 60.582 20.4204 60.3025C20.6707 60.0203 21.0015 59.8617 21.4128 59.8267C21.7599 59.7971 22.0766 59.867 22.3626 60.0363C22.6487 60.2056 22.8839 60.456 23.0681 60.7873C23.2494 61.1161 23.3592 61.5062 23.3977 61.9576C23.4488 62.5584 23.3561 63.0653 23.1195 63.4781C22.8803 63.8912 22.509 64.1743 22.0056 64.3274L21.7791 63.6568C22.1374 63.5375 22.3992 63.3417 22.5643 63.0694C22.7292 62.7945 22.7937 62.4461 22.7578 62.0241C22.7175 61.5514 22.5799 61.1825 22.3448 60.9174C22.1071 60.6525 21.828 60.5337 21.5075 60.561C21.2592 60.5821 21.0579 60.6826 20.9038 60.8625C20.747 61.0426 20.6428 61.3044 20.5913 61.6477L20.4365 62.6736C20.3538 63.2186 20.1845 63.6311 19.9286 63.9111C19.6727 64.1911 19.3391 64.3486 18.9278 64.3836C18.5887 64.4124 18.2831 64.3457 18.011 64.1832C17.7363 64.021 17.5117 63.7846 17.3374 63.4739C17.163 63.1633 17.0582 62.801 17.023 62.3871C16.975 61.8236 17.0649 61.3627 17.2926 61.0044C17.5175 60.6437 17.8465 60.3696 18.2798 60.1821Z" fill="#6B738A"/>
<path d="M25.7253 40.7276C25.595 40.974 25.4156 41.1672 25.187 41.307C24.9561 41.4457 24.7068 41.5216 24.4392 41.5347C24.1715 41.5478 23.9138 41.4904 23.6662 41.3625C23.4174 41.231 23.2242 41.0516 23.0867 40.8243C22.9468 40.5957 22.8703 40.3476 22.8572 40.0799C22.843 39.8086 22.901 39.5498 23.0312 39.3034C23.1628 39.0546 23.3434 38.8621 23.5731 38.7258C23.8016 38.5859 24.0497 38.5094 24.3174 38.4963C24.5839 38.4795 24.8416 38.5369 25.0904 38.6684C25.3368 38.7987 25.5293 38.9793 25.668 39.2103C25.8079 39.4388 25.8855 39.6876 25.901 39.9565C25.9154 40.2217 25.8568 40.4788 25.7253 40.7276Z" fill="#6B738A"/>
</svg>
