<svg width="202" height="203" viewBox="0 0 202 203" fill="none" xmlns="http://www.w3.org/2000/svg">
<path d="M86.0971 183.106C87.7598 183.396 89.0595 184.187 89.996 185.477C90.9191 186.777 91.2295 188.292 90.9272 190.023C90.6248 191.754 89.8201 193.069 88.513 193.967C87.1926 194.875 85.701 195.184 84.0383 194.893C82.2161 194.575 80.9067 193.572 80.1101 191.883L81.4223 191.426C81.667 191.974 82.0416 192.45 82.5459 192.855C83.0503 193.26 83.6213 193.518 84.2591 193.629C85.5118 193.848 86.6362 193.593 87.6321 192.863C88.6147 192.142 89.2233 191.11 89.458 189.767C89.6927 188.423 89.471 187.24 88.7928 186.218C88.1012 185.205 87.129 184.589 85.8763 184.37C85.2385 184.259 84.6147 184.302 84.005 184.501C83.3932 184.711 82.8785 185.038 82.4607 185.481L81.3641 184.603C82.7314 183.293 84.3091 182.794 86.0971 183.106Z" fill="#6B738A"/>
<path d="M72.8317 179.533C70.4334 178.669 68.2623 179.988 67.4393 182.272C66.6164 184.556 67.4532 186.941 69.8515 187.805C72.2498 188.669 74.415 187.366 75.2379 185.082C76.0609 182.798 75.23 180.397 72.8317 179.533ZM72.4378 180.626C74.1183 181.232 74.5473 183.008 73.9654 184.624C73.3893 186.222 71.9258 187.317 70.2453 186.712C68.5649 186.106 68.1522 184.336 68.7282 182.737C69.3102 181.121 70.7574 180.021 72.4378 180.626Z" fill="#6B738A"/>
<path d="M57.5747 172.569L54.725 177.711C53.8424 179.303 54.2176 180.522 55.7496 181.371C56.8417 181.977 58.1959 181.894 59.0478 181.573L58.4594 182.635L59.597 183.266L63.6571 175.939L62.5195 175.309L59.5522 180.663C58.7996 181.019 57.6476 181.095 56.7527 180.599C55.7667 180.052 55.3415 179.281 56.056 177.992L58.7123 173.199L57.5747 172.569Z" fill="#6B738A"/>
<path d="M50.5205 167.466C51.0116 167.833 51.282 168.244 51.3317 168.699C51.3814 169.154 51.2161 169.637 50.8359 170.146L47.559 174.539L48.6709 175.368L47.9865 176.286L46.8745 175.456L45.5057 177.291L44.4632 176.513L45.8321 174.678L44.4699 173.662L45.1544 172.745L46.5165 173.761L49.6275 169.591C49.8211 169.332 49.9211 169.082 49.9274 168.841C49.9245 168.594 49.8118 168.387 49.5894 168.221C49.2836 167.993 48.9782 167.909 48.6731 167.97L48.9481 166.964C49.4682 166.905 49.9923 167.072 50.5205 167.466Z" fill="#6B738A"/>
<path d="M40.1844 158.603L36.1694 162.73C34.7545 164.184 35.2546 165.784 36.5224 167.017C37.5043 167.973 38.5893 168.399 39.8887 168.357L40.0825 167.287C38.9918 167.339 38.1537 167.032 37.4328 166.33C36.5627 165.484 36.3639 164.395 37.15 163.587L38.2021 162.506C38.1426 163.537 38.5722 164.463 39.3926 165.261C40.4117 166.253 42.1098 166.671 43.4159 165.329C44.6857 164.024 44.2696 162.288 43.2504 161.296C42.4425 160.51 41.4807 160.131 40.4515 160.194L41.1166 159.51L40.1844 158.603ZM39.8831 160.778C40.7273 160.632 41.603 161 42.2617 161.641C43.1318 162.487 43.2087 163.627 42.471 164.385C41.7212 165.156 40.5801 165.11 39.71 164.263C39.0513 163.622 38.6593 162.757 38.7826 161.909L39.8831 160.778Z" fill="#6B738A"/>
<path d="M33.9536 150.837C34.7037 151.821 34.9827 152.873 34.7905 153.994C34.5891 155.121 33.9873 156.067 32.9853 156.831C31.9832 157.596 30.9164 157.922 29.7848 157.811C28.6532 157.7 27.7123 157.152 26.9622 156.168C26.1771 155.139 25.9428 154.031 26.2593 152.844L27.4194 153.05C27.1627 153.915 27.3043 154.701 27.8441 155.409C28.3769 156.107 29.0435 156.486 29.844 156.544C30.6376 156.593 31.4112 156.331 32.1651 155.756C32.9189 155.181 33.3817 154.501 33.5535 153.716C33.7091 152.928 33.5204 152.185 32.9877 151.486C32.4549 150.788 31.7341 150.443 30.8255 150.453L30.934 149.28C32.1619 149.288 33.1685 149.807 33.9536 150.837Z" fill="#6B738A"/>
<path d="M28.1842 142.059C27.8018 141.399 27.372 141.106 26.9368 140.978L26.2876 141.795C26.5396 141.849 26.8485 142.071 27.031 142.386C27.3178 142.881 27.0668 143.347 26.5265 143.66L22.0247 146.268L21.1729 144.797L20.1825 145.371L21.0342 146.841L19.0534 147.989L19.7053 149.114L21.6861 147.967L22.3814 149.167L23.3719 148.594L22.6765 147.393L27.4185 144.647C28.499 144.021 28.8013 143.124 28.1842 142.059Z" fill="#6B738A"/>
<path d="M20.6317 124.404C19.9056 121.961 17.5561 120.995 15.2289 121.686C12.9016 122.378 11.4776 124.465 12.2038 126.909C12.9299 129.352 15.2628 130.324 17.59 129.632C19.9173 128.94 21.3579 126.848 20.6317 124.404ZM19.518 124.735C20.0268 126.448 18.8504 127.846 17.2047 128.335C15.5756 128.819 13.8263 128.29 13.3175 126.578C12.8087 124.866 13.99 123.483 15.6191 122.999C17.2648 122.51 19.0092 123.023 19.518 124.735Z" fill="#6B738A"/>
<path d="M17.196 107.992L8.88912 109.066L9.05592 110.356L15.1614 109.567C15.8944 109.961 16.6037 110.849 16.7349 111.864C16.8794 112.982 16.5451 113.777 15.0833 113.966L9.61415 114.673L9.78095 115.963L15.6456 115.204C17.4515 114.971 18.1763 113.95 17.9517 112.213C17.7915 110.975 16.9979 109.976 16.1933 109.433L17.3628 109.282L17.196 107.992Z" fill="#6B738A"/>
<path d="M16.9107 100.1L10.98 100.062C10.3061 99.6764 9.65404 98.5798 9.6591 97.7821C9.66041 97.574 9.67875 97.418 9.71442 97.2622L8.37914 97.2537C8.37188 98.3982 9.00735 99.3734 9.88747 100.055L8.53485 100.047L8.52661 101.347L16.9025 101.4L16.9107 100.1Z" fill="#6B738A"/>
<path d="M19.5829 80.1195C19.2831 81.3316 18.6446 82.2276 17.6675 82.8077C16.6791 83.385 15.5508 83.5168 14.2826 83.2031C13.093 82.9088 12.1829 82.2788 11.5524 81.313C10.9107 80.3444 10.7314 79.2878 11.0146 78.143C11.3116 76.9422 11.9614 76.0966 12.964 75.6062C13.9582 75.1018 15.0837 75.005 16.3407 75.3159L16.6605 75.3951L15.0324 81.9773C15.8431 82.1183 16.5831 81.9916 17.2522 81.5974C17.9214 81.2032 18.3601 80.5852 18.5683 79.7435C18.8181 78.7334 18.6826 77.8127 18.1618 76.9812L19.1366 76.5792C19.7617 77.6151 19.9104 78.7952 19.5829 80.1195ZM15.4265 76.4118C14.7279 76.2509 14.0468 76.3325 13.383 76.6566C12.7081 76.978 12.2651 77.5651 12.0541 78.418C11.8543 79.2261 11.971 79.9338 12.4043 80.5412C12.8404 81.1373 13.4078 81.5397 14.1066 81.7483L15.4265 76.4118Z" fill="#6B738A"/>
<path d="M24.882 64.34L24.3024 65.733L20.1663 66.7356L22.3705 70.3762L21.7976 71.7531L19.0593 67.139L14.1309 68.3754L14.7104 66.9824L18.5492 66.0627L16.4958 62.6915L17.0754 61.2985L19.6722 65.666L24.882 64.34Z" fill="#6B738A"/>
<path d="M26.821 57.982C27.9725 57.8904 28.9543 57.3101 29.5487 56.332C30.6925 54.45 30.0328 52.2632 27.721 50.8582C25.3943 49.4442 23.1791 49.8837 22.0352 51.7657C21.4228 52.7735 21.4011 53.9779 21.812 54.9379L20.745 54.2894L20.0695 55.4008L29.9541 61.4082L30.6296 60.2967L26.821 57.982ZM27.0094 52.0289C28.5951 52.9926 29.2583 54.5727 28.3847 56.0102C27.8533 56.8845 26.7884 57.4346 25.9318 57.4417L22.7012 55.4782C22.3129 54.7147 22.3256 53.5251 22.857 52.6507C23.7307 51.2133 25.4238 51.0652 27.0094 52.0289Z" fill="#6B738A"/>
<path d="M37.2648 45.717C36.4544 46.6669 35.4825 47.1826 34.3491 47.2642C33.2069 47.3383 32.1389 46.9514 31.145 46.1034C30.2128 45.308 29.6807 44.3374 29.549 43.1916C29.4084 42.0382 29.7208 41.013 30.4862 40.1159C31.2891 39.1749 32.2485 38.7093 33.3646 38.7193C34.4794 38.713 35.5293 39.13 36.5143 39.9705L36.765 40.1843L32.364 45.3426C33.026 45.8314 33.7444 46.0492 34.5192 45.996C35.2941 45.9428 35.9629 45.5864 36.5257 44.9268C37.201 44.1352 37.4918 43.2512 37.398 42.2745L38.4497 42.3511C38.5452 43.5572 38.1503 44.6792 37.2648 45.717ZM35.2065 40.5415C34.6537 40.0851 34.008 39.8533 33.2694 39.8462C32.522 39.8316 31.8631 40.1585 31.2928 40.827C30.7526 41.4602 30.5403 42.1454 30.6561 42.8824C30.7794 43.6107 31.1069 44.2244 31.6385 44.7235L35.2065 40.5415Z" fill="#6B738A"/>
<path d="M44.826 37.659L43.8564 38.5259L38.2737 32.2816L39.2433 31.4147L40.1449 32.4231C40.0443 31.1484 40.399 30.1489 41.2092 29.4246L42.0992 30.42C41.9554 30.502 41.8146 30.6047 41.6767 30.728C41.3836 30.99 41.1572 31.3785 40.9974 31.8936C40.8376 32.4087 40.7961 32.8567 40.8731 33.2376L44.826 37.659Z" fill="#6B738A"/>
<path d="M52.806 31.5575C52.3072 31.9135 51.8334 32.0457 51.3846 31.9541C50.9357 31.8626 50.5266 31.558 50.1572 31.0405L46.9737 26.58L45.8445 27.386L45.1796 26.4544L46.3088 25.6484L44.979 23.7852L46.0376 23.0297L47.3674 24.8929L48.7507 23.9056L49.4156 24.8372L48.0324 25.8245L51.0547 30.059C51.2427 30.3225 51.4503 30.4939 51.6774 30.5733C51.9139 30.646 52.1451 30.6017 52.3709 30.4405C52.6815 30.2189 52.8543 29.9535 52.8893 29.6444L53.764 30.2132C53.6617 30.7266 53.3423 31.1747 52.806 31.5575Z" fill="#6B738A"/>
<path d="M61.0726 26.4221C59.8201 27.0956 58.6193 27.2425 57.4701 26.8628L57.6222 25.7178C58.0356 25.8762 58.5159 25.9395 59.0632 25.9077C59.6208 25.8704 60.1388 25.7231 60.6174 25.4658C61.1672 25.1701 61.5319 24.823 61.7115 24.4246C61.891 24.0261 61.8795 23.6385 61.6769 23.2618C61.5017 22.936 61.207 22.7663 60.7928 22.7527C60.3731 22.729 59.9146 22.7918 59.4173 22.941C58.9247 23.0747 58.4215 23.2008 57.9078 23.3196C57.3886 23.4281 56.8891 23.4145 56.4091 23.2788C55.9238 23.1328 55.5442 22.8053 55.2704 22.2962C54.9474 21.6955 54.9207 21.06 55.1905 20.3899C55.4704 19.7143 56.0329 19.1493 56.878 18.6949C57.9879 18.0981 59.0909 17.9644 60.1869 18.2939L60.0794 19.3756C59.2261 19.0337 58.326 19.1173 57.379 19.6265C56.8801 19.8948 56.5432 20.2204 56.3684 20.6032C56.1881 20.9758 56.1883 21.3301 56.3689 21.6661C56.5277 21.9614 56.8115 22.1107 57.2202 22.1141C57.6235 22.1073 58.0714 22.0371 58.564 21.9034C59.0613 21.7542 59.5696 21.6253 60.0888 21.5167C60.608 21.4082 61.1157 21.437 61.6121 21.6033C62.1029 21.7594 62.4907 22.1022 62.7754 22.6317C63.1259 23.2834 63.1587 23.9548 62.8741 24.6461C62.5895 25.3373 61.989 25.9293 61.0726 26.4221Z" fill="#6B738A"/>
<path d="M88.0907 11.4474C88.515 11.7536 88.7677 12.1577 88.8489 12.6599C88.93 13.1621 88.8175 13.6253 88.5113 14.0495C88.2033 14.4624 87.7982 14.7094 87.296 14.7905C86.7938 14.8717 86.3316 14.7649 85.9092 14.4701C85.4849 14.1639 85.2322 13.7597 85.1511 13.2576C85.0699 12.7554 85.1824 12.2922 85.4886 11.868C85.7948 11.4437 86.199 11.191 86.7011 11.1098C87.2033 11.0287 87.6665 11.1412 88.0907 11.4474Z" fill="#6B738A"/>
<path d="M118.15 17.9204C116.494 17.595 115.212 16.7775 114.302 15.4678C113.407 14.1491 113.128 12.6275 113.467 10.9032C113.806 9.17884 114.638 7.88135 115.964 7.01069C117.303 6.13092 118.801 5.85372 120.457 6.17909C122.272 6.53565 123.56 7.56629 124.321 9.27098L122.999 9.70063C122.766 9.1482 122.402 8.66423 121.906 8.24874C121.41 7.83325 120.845 7.5631 120.21 7.4383C118.962 7.19316 117.832 7.42489 116.821 8.13349C115.824 8.83297 115.193 9.85202 114.931 11.1906C114.668 12.5293 114.864 13.7167 115.521 14.7529C116.191 15.7799 117.15 16.4161 118.398 16.6612C119.033 16.786 119.658 16.7555 120.271 16.5698C120.888 16.3727 121.409 16.0569 121.836 15.6223L122.914 16.5233C121.519 17.8046 119.932 18.2703 118.15 17.9204Z" fill="#6B738A"/>
<path d="M134.598 21.6663C133.594 22.1845 132.509 22.2197 131.343 21.7718C130.178 21.324 129.39 20.5693 128.981 19.5078C128.582 18.4505 128.607 17.339 129.054 16.1735C129.502 15.008 130.226 14.1715 131.226 13.6641C132.241 13.15 133.331 13.1168 134.497 13.5647C135.662 14.0126 136.445 14.7652 136.843 15.8225C137.257 16.8732 137.24 17.9813 136.792 19.1468C136.344 20.3123 135.613 21.1521 134.598 21.6663ZM130.186 19.0791C130.437 19.8444 130.961 20.3804 131.76 20.6873C132.559 20.9941 133.302 20.9453 133.99 20.5409C134.682 20.1257 135.19 19.4972 135.513 18.6554C135.837 17.8137 135.878 17.0123 135.638 16.2512C135.398 15.4901 134.879 14.9561 134.08 14.6493C133.282 14.3424 132.531 14.3945 131.828 14.8056C131.14 15.21 130.636 15.8277 130.317 16.6587C129.994 17.5005 129.95 18.3073 130.186 19.0791Z" fill="#6B738A"/>
<path d="M146.449 29.0568L145.325 28.4025L148.081 23.6664C148.436 23.0569 148.546 22.5458 148.412 22.1332C148.283 21.7106 147.959 21.348 147.44 21.0456C147.02 20.8014 146.546 20.6728 146.019 20.66C145.501 20.653 145.042 20.7404 144.642 20.9223L141.563 26.2129L140.439 25.5587L144.652 18.3196L145.776 18.9738L145.166 20.023C145.637 19.8561 146.178 19.7894 146.787 19.8229C147.402 19.8465 147.959 20.0036 148.459 20.2944C149.998 21.19 150.313 22.4172 149.406 23.9759L146.449 29.0568Z" fill="#6B738A"/>
<path d="M153.391 34.3078C152.908 33.9312 152.646 33.5147 152.606 33.0583C152.566 32.602 152.741 32.1231 153.132 31.6216L156.501 27.2993L155.407 26.4465L156.11 25.5437L157.204 26.3966L158.612 24.5911L159.637 25.3906L158.23 27.1961L159.571 28.2408L158.867 29.1436L157.527 28.0989L154.329 32.2022C154.13 32.4576 154.024 32.7054 154.013 32.9457C154.011 33.1931 154.119 33.4021 154.338 33.5726C154.639 33.8072 154.942 33.8972 155.249 33.8428L154.953 34.8433C154.431 34.8914 153.911 34.7129 153.391 34.3078Z" fill="#6B738A"/>
<path d="M163.542 43.3836L167.643 39.3426C169.089 37.9185 168.622 36.3087 167.381 35.0487C166.419 34.0729 165.343 33.6235 164.043 33.6384L163.827 34.7037C164.919 34.675 165.75 34.9999 166.456 35.7164C167.308 36.581 167.484 37.6737 166.681 38.4649L165.606 39.5238C165.688 38.4943 165.277 37.5594 164.474 36.7441C163.476 35.7312 161.787 35.2773 160.453 36.5918C159.156 37.8698 159.536 39.6139 160.534 40.6268C161.325 41.4298 162.278 41.8292 163.309 41.7877L162.629 42.4572L163.542 43.3836ZM163.889 41.2157C163.042 41.3443 162.174 40.9578 161.529 40.3031C160.677 39.4384 160.624 38.2976 161.378 37.5551C162.144 36.8005 163.284 36.8702 164.136 37.7349C164.781 38.3896 165.155 39.263 165.013 40.1081L163.889 41.2157Z" fill="#6B738A"/>
<path d="M170.7 45.3058C168.683 46.7779 168.134 49.2612 169.606 51.2784C170.505 52.5111 171.541 52.8715 172.592 52.8991L172.725 51.7285C171.796 51.7198 171.096 51.3499 170.585 50.6495C169.532 49.2067 169.999 47.4923 171.497 46.3985C172.996 45.3046 174.757 45.3935 175.81 46.8364C176.321 47.5368 176.474 48.3053 176.185 49.2034L177.341 49.4336C177.635 48.4246 177.607 47.3281 176.708 46.0954C175.236 44.0783 172.703 43.844 170.7 45.3058Z" fill="#6B738A"/>
<path d="M175.187 60.1774C175.555 60.8456 175.979 61.1467 176.411 61.2846L177.077 60.4815C176.827 60.4218 176.522 60.1934 176.347 59.8745C176.07 59.3734 176.331 58.9127 176.878 58.6112L181.434 56.0991L182.254 57.5873L183.256 57.0347L182.436 55.5464L184.44 54.4411L183.812 53.3022L181.808 54.4075L181.138 53.1926L180.136 53.7453L180.806 54.9602L176.007 57.6063C174.913 58.2092 174.592 59.0992 175.187 60.1774Z" fill="#6B738A"/>
<path d="M184.38 80.5458C183.367 80.0444 182.696 79.1916 182.365 77.9875C182.035 76.7834 182.176 75.7018 182.788 74.7427C183.403 73.7947 184.313 73.1555 185.517 72.8251C186.721 72.4948 187.824 72.5818 188.825 73.0862C189.841 73.5988 190.514 74.4571 190.844 75.6612C191.175 76.8653 191.032 77.9413 190.417 78.8893C189.816 79.8454 188.914 80.4886 187.71 80.819C186.506 81.1494 185.396 81.0583 184.38 80.5458ZM183.848 75.459C183.38 76.1147 183.26 76.8551 183.486 77.6801C183.712 78.5051 184.192 79.0748 184.926 79.389C185.671 79.7002 186.478 79.7364 187.347 79.4978C188.217 79.2592 188.887 78.8176 189.358 78.173C189.828 77.5284 189.95 76.7936 189.724 75.9686C189.497 75.1436 189.01 74.5699 188.263 74.2476C187.529 73.9334 186.733 73.894 185.875 74.1296C185.005 74.3682 184.329 74.8113 183.848 75.459Z" fill="#6B738A"/>
<path d="M185.455 94.4692L185.315 93.1761L186.488 93.0495C186.06 92.7469 185.685 92.3455 185.364 91.8453C185.043 91.3566 184.852 90.8191 184.788 90.2329C184.597 88.4628 185.387 87.4822 187.157 87.2911L193.036 86.6564L193.176 87.9495L187.693 88.5414C187.003 88.6158 186.532 88.8238 186.278 89.1651C186.025 89.518 185.932 89.999 185.998 90.6082C186.05 91.091 186.221 91.5435 186.51 91.9657C186.801 92.3994 187.139 92.7235 187.522 92.9379L193.643 92.2771L193.783 93.5702L185.455 94.4692Z" fill="#6B738A"/>
<path d="M185.575 102.365L191.504 102.528C192.17 102.927 192.798 104.038 192.777 104.835C192.771 105.043 192.749 105.199 192.71 105.354L194.045 105.39C194.076 104.246 193.462 103.258 192.596 102.557L193.948 102.595L193.984 101.294L185.611 101.065L185.575 102.365Z" fill="#6B738A"/>
<path d="M182.481 122.283C182.806 121.078 183.463 120.195 184.453 119.636C185.453 119.079 186.584 118.971 187.845 119.312C189.028 119.631 189.925 120.28 190.535 121.259C191.156 122.241 191.313 123.301 191.006 124.439C190.684 125.634 190.016 126.466 189.003 126.935C187.999 127.418 186.871 127.491 185.621 127.154L185.303 127.068L187.07 120.521C186.262 120.363 185.52 120.474 184.842 120.855C184.165 121.235 183.713 121.843 183.487 122.68C183.216 123.685 183.332 124.608 183.836 125.451L182.853 125.832C182.249 124.783 182.126 123.6 182.481 122.283ZM186.558 126.077C187.253 126.253 187.936 126.186 188.607 125.876C189.288 125.569 189.743 124.991 189.972 124.143C190.189 123.339 190.087 122.629 189.667 122.013C189.243 121.407 188.685 120.993 187.99 120.77L186.558 126.077Z" fill="#6B738A"/>
<path d="M176.853 137.948L177.462 136.568L181.618 135.652L179.491 131.966L180.093 130.601L182.733 135.272L187.687 134.14L187.078 135.52L183.221 136.359L185.203 139.773L184.594 141.153L182.09 136.732L176.853 137.948Z" fill="#6B738A"/>
<path d="M172.019 145.857C172.652 144.862 173.573 144.332 174.781 144.265L171.022 141.87L171.721 140.773L181.476 146.987L180.778 148.084L179.725 147.414C179.927 147.913 180.007 148.444 179.965 149.006C179.922 149.568 179.745 150.093 179.435 150.58C178.838 151.516 178.021 152.058 176.981 152.205C175.946 152.367 174.862 152.088 173.731 151.368C172.6 150.647 171.884 149.78 171.584 148.767C171.278 147.763 171.423 146.793 172.019 145.857ZM173.176 146.203C172.735 146.895 172.638 147.608 172.884 148.34C173.14 149.079 173.667 149.703 174.467 150.212C175.267 150.722 176.05 150.933 176.818 150.847C177.586 150.76 178.191 150.371 178.632 149.678C178.899 149.259 179.047 148.778 179.078 148.235C179.112 147.709 179.035 147.248 178.847 146.855L175.658 144.824C175.212 144.814 174.753 144.932 174.28 145.18C173.811 145.443 173.443 145.784 173.176 146.203Z" fill="#6B738A"/>
<path d="M164.082 156.305C164.912 155.372 165.895 154.877 167.03 154.82C168.173 154.77 169.233 155.179 170.208 156.048C171.124 156.862 171.635 157.844 171.743 158.992C171.859 160.148 171.525 161.167 170.741 162.048C169.919 162.972 168.949 163.417 167.834 163.383C166.719 163.366 165.678 162.927 164.711 162.066L164.465 161.847L168.974 156.783C168.322 156.28 167.609 156.047 166.833 156.084C166.057 156.121 165.381 156.463 164.804 157.111C164.112 157.888 163.803 158.766 163.876 159.744L162.826 159.645C162.756 158.437 163.175 157.324 164.082 156.305ZM166.031 161.523C166.574 161.991 167.215 162.236 167.953 162.259C168.7 162.289 169.365 161.976 169.95 161.32C170.503 160.698 170.73 160.017 170.629 159.278C170.521 158.547 170.207 157.927 169.686 157.417L166.031 161.523Z" fill="#6B738A"/>
<path d="M156.352 164.203L160.211 168.707C160.362 169.468 159.961 170.68 159.355 171.199C159.197 171.334 159.067 171.422 158.926 171.498L159.795 172.512C160.664 171.767 160.984 170.648 160.922 169.536L161.802 170.563L162.79 169.717L157.34 163.357L156.352 164.203Z" fill="#6B738A"/>
<path d="M148.249 170.137C148.755 169.792 149.232 169.67 149.679 169.771C150.125 169.872 150.528 170.185 150.886 170.71L153.975 175.237L155.121 174.455L155.766 175.4L154.62 176.182L155.911 178.073L154.836 178.806L153.546 176.915L152.142 177.873L151.497 176.928L152.901 175.97L149.968 171.672C149.786 171.405 149.582 171.229 149.357 171.145C149.122 171.067 148.89 171.107 148.661 171.263C148.345 171.478 148.167 171.74 148.126 172.048L147.263 171.461C147.376 170.95 147.705 170.509 148.249 170.137Z" fill="#6B738A"/>
<path d="M139.875 175.096C141.141 174.449 142.345 174.327 143.486 174.731L143.309 175.873C142.899 175.705 142.421 175.632 141.873 175.652C141.315 175.678 140.793 175.814 140.31 176.061C139.754 176.345 139.382 176.685 139.194 177.079C139.006 177.474 139.009 177.862 139.204 178.243C139.372 178.572 139.663 178.748 140.077 178.77C140.496 178.803 140.956 178.75 141.456 178.611C141.952 178.488 142.457 178.372 142.973 178.264C143.495 178.167 143.994 178.191 144.471 178.337C144.953 178.493 145.326 178.828 145.589 179.343C145.899 179.95 145.912 180.586 145.628 181.25C145.334 181.92 144.76 182.473 143.906 182.91C142.783 183.483 141.678 183.593 140.589 183.241L140.719 182.162C141.565 182.521 142.467 182.457 143.424 181.968C143.929 181.71 144.272 181.391 144.455 181.012C144.643 180.644 144.651 180.289 144.477 179.95C144.325 179.651 144.044 179.496 143.635 179.484C143.232 179.482 142.783 179.543 142.288 179.666C141.787 179.805 141.276 179.923 140.755 180.021C140.234 180.118 139.727 180.079 139.234 179.902C138.746 179.736 138.366 179.385 138.092 178.849C137.756 178.19 137.737 177.518 138.036 176.833C138.335 176.148 138.948 175.569 139.875 175.096Z" fill="#6B738A"/>
<path d="M115.232 188.904C114.219 189.046 113.496 190.006 113.635 191.002C113.777 192.015 114.736 192.739 115.75 192.597C116.763 192.455 117.487 191.495 117.345 190.482C117.205 189.486 116.246 188.762 115.232 188.904Z" fill="#6B738A"/>
</svg>
