<svg width="14" height="20" viewBox="0 0 14 20" fill="none" xmlns="http://www.w3.org/2000/svg">
<rect width="14" height="20" fill="#E5E5E5"/>
<g clip-path="url(#clip0_0_1)">
<rect x="-512" y="-422" width="685" height="492" fill="#FAFAFA"/>
</g>
<path d="M11.01 0H2.47998C1.10998 0 0 1.14 0 2.53V17.47C0 18.86 1.10998 20 2.47998 20H11.01C12.38 20 13.5 18.86 13.5 17.47V2.53C13.5 1.14 12.38 0 11.01 0ZM6.24998 3.08H7.24998C7.65998 3.08 7.99998 3.42 7.99998 3.83C7.99998 4.25 7.65998 4.58 7.24998 4.58H6.24998C5.82998 4.58 5.49998 4.25 5.49998 3.83C5.49998 3.42 5.82998 3.08 6.24998 3.08ZM6.73998 17.68C5.81998 17.68 5.06998 16.93 5.06998 16.01C5.06998 15.09 5.81998 14.34 6.73998 14.34C7.65998 14.34 8.40998 15.09 8.40998 16.01C8.40998 16.93 7.65998 17.68 6.73998 17.68Z" fill="#00729F"/>
<defs>
<clipPath id="clip0_0_1">
<rect width="685" height="492" fill="white" transform="translate(-512 -422)"/>
</clipPath>
</defs>
</svg>
