<svg width="24" height="24" viewBox="0 0 24 24" fill="none" xmlns="http://www.w3.org/2000/svg">
<rect width="24" height="24" fill="#E5E5E5"/>
<g clip-path="url(#clip0_0_1)">
<rect x="-448" y="-358" width="685" height="492" fill="#FAFAFA"/>
</g>
<path fill-rule="evenodd" clip-rule="evenodd" d="M18.0103 17.1819C18.4189 17.5904 19.0925 17.571 19.4199 17.0951C20.4166 15.6464 21 13.8913 21 12C21 10.1575 20.4463 8.44424 19.4962 7.01765C19.173 6.53236 18.492 6.50796 18.0797 6.92026L16.614 8.38604C16.2619 8.73814 16.2331 9.29158 16.4589 9.73536C16.8049 10.4153 17 11.1849 17 12C17 12.8511 16.7874 13.6525 16.4123 14.354C16.1732 14.8013 16.1959 15.3675 16.5546 15.7261L18.0103 17.1819ZM13.8098 7.33759C14.2321 7.50164 14.7246 7.44698 15.045 7.12662L16.5676 5.60396C16.9983 5.17323 16.9481 4.45642 16.4177 4.15698C15.1126 3.42035 13.6054 3 12 3C10.1087 3 8.35361 3.5834 6.90495 4.58006C6.42897 4.90752 6.40957 5.58115 6.8181 5.98967L8.27387 7.44544C8.63252 7.8041 9.19873 7.8268 9.64604 7.58766C10.3475 7.21263 11.1489 7 12 7C12.6383 7 13.2486 7.11959 13.8098 7.33759ZM7.30023 10.2895C7.45201 9.87258 7.39266 9.39266 7.07892 9.07892L5.54245 7.54245C5.10785 7.10785 4.38357 7.1638 4.08974 7.70364C3.39482 8.9804 3 10.4441 3 12C3 13.6054 3.42035 15.1126 4.15698 16.4177C4.45642 16.9481 5.17323 16.9983 5.60396 16.5676L7.12661 15.045C7.44698 14.7246 7.50164 14.2321 7.33759 13.8098C7.11959 13.2486 7 12.6383 7 12C7 11.3992 7.10597 10.8231 7.30023 10.2895ZM14.9211 16.9211C14.6073 16.6073 14.1274 16.548 13.7105 16.6998C13.1769 16.894 12.6008 17 12 17C11.1849 17 10.4153 16.8049 9.73536 16.4589C9.29158 16.2331 8.73814 16.2619 8.38604 16.614L6.92026 18.0797C6.50796 18.492 6.53236 19.173 7.01765 19.4962C8.44424 20.4463 10.1575 21 12 21C13.5559 21 15.0196 20.6052 16.2964 19.9103C16.8362 19.6164 16.8922 18.8922 16.4576 18.4576L14.9211 16.9211Z" fill="#00729F"/>
<path d="M15 12C15 13.6569 13.6569 15 12 15C10.3431 15 9 13.6569 9 12C9 10.3431 10.3431 9 12 9C13.6569 9 15 10.3431 15 12Z" fill="#00729F"/>
<defs>
<clipPath id="clip0_0_1">
<rect width="685" height="492" fill="white" transform="translate(-448 -358)"/>
</clipPath>
</defs>
</svg>
