<svg width="24" height="24" viewBox="0 0 24 24" fill="none" xmlns="http://www.w3.org/2000/svg">
  <path fill-rule="evenodd" clip-rule="evenodd" d="M17.4559 11.4312H5.6682C4.74907 11.4312 3.86758 11.0661 3.21765 10.4161C2.56773 9.76622 2.2026 8.88473 2.2026 7.9656C2.2026 7.04646 2.56773 6.16498 3.21765 5.51505C3.86758 4.86512 4.74907 4.5 5.6682 4.5H17.4559C18.3751 4.5 19.2566 4.86512 19.9065 5.51505C20.5564 6.16498 20.9215 7.04646 20.9215 7.9656C20.9215 8.88473 20.5564 9.76622 19.9065 10.4161C19.2566 11.0661 18.3751 11.4312 17.4559 11.4312ZM7.14823 7.03833C6.97183 6.92046 6.76444 6.85755 6.55228 6.85755C6.26779 6.85755 5.99495 6.97056 5.79378 7.17173C5.59261 7.3729 5.4796 7.64574 5.4796 7.93023C5.4796 8.14239 5.54251 8.34978 5.66038 8.52619C5.77824 8.70259 5.94577 8.84008 6.14178 8.92127C6.33779 9.00245 6.55347 9.0237 6.76155 8.98231C6.96963 8.94092 7.16077 8.83875 7.31078 8.68874C7.4608 8.53872 7.56296 8.34759 7.60435 8.1395C7.64574 7.93142 7.6245 7.71574 7.54331 7.51974C7.46212 7.32373 7.32463 7.1562 7.14823 7.03833ZM17.841 8.48036C17.9869 8.33446 18.0689 8.13657 18.0689 7.93023V7.9656C18.0737 7.86049 18.0571 7.75551 18.0202 7.657C17.9832 7.55849 17.9267 7.4685 17.8539 7.39247C17.7812 7.31644 17.6938 7.25595 17.597 7.21466C17.5003 7.17337 17.3961 7.15213 17.2909 7.15224H14.4147C14.2084 7.15224 14.0105 7.23421 13.8646 7.38011C13.7187 7.52601 13.6367 7.7239 13.6367 7.93023C13.6367 8.13657 13.7187 8.33446 13.8646 8.48036C14.0105 8.62626 14.2084 8.70823 14.4147 8.70823H17.2909C17.4973 8.70823 17.6951 8.62626 17.841 8.48036Z" fill="#00729F" fill-opacity="0.8"/>
  <path fill-rule="evenodd" clip-rule="evenodd" d="M17.4554 19.4943H5.66763C5.19631 19.5218 4.72433 19.4527 4.28066 19.2913C3.83699 19.1299 3.43099 18.8795 3.08755 18.5555C2.74412 18.2316 2.4705 17.8408 2.28348 17.4073C2.09647 16.9738 2 16.5067 2 16.0346C2 15.5624 2.09647 15.0953 2.28348 14.6618C2.4705 14.2283 2.74412 13.8376 3.08755 13.5136C3.43099 13.1896 3.83699 12.9393 4.28066 12.7778C4.72433 12.6164 5.19631 12.5473 5.66763 12.5749H17.4554C17.9267 12.5473 18.3987 12.6164 18.8423 12.7778C19.286 12.9393 19.692 13.1896 20.0355 13.5136C20.3789 13.8376 20.6525 14.2283 20.8395 14.6618C21.0265 15.0953 21.123 15.5624 21.123 16.0346C21.123 16.5067 21.0265 16.9738 20.8395 17.4073C20.6525 17.8408 20.3789 18.2316 20.0355 18.5555C19.692 18.8795 19.286 19.1299 18.8423 19.2913C18.3987 19.4527 17.9267 19.5218 17.4554 19.4943ZM7.31021 15.282C7.10905 15.0808 6.8362 14.9678 6.55171 14.9678C6.26925 14.9678 5.99818 15.0792 5.79734 15.2778C5.59651 15.4764 5.48213 15.7462 5.47903 16.0287C5.47901 16.3143 5.59165 16.5883 5.79248 16.7914C5.99332 16.9944 6.26614 17.11 6.55171 17.1131C6.8362 17.1131 7.10905 17.0001 7.31021 16.799C7.51138 16.5978 7.62439 16.325 7.62439 16.0405C7.62439 15.756 7.51138 15.4831 7.31021 15.282ZM17.8405 16.5788C17.9864 16.4329 18.0683 16.235 18.0683 16.0287C18.0653 15.8233 17.9824 15.6272 17.8371 15.4819C17.6919 15.3367 17.4957 15.2537 17.2903 15.2507H14.4141C14.2087 15.2537 14.0126 15.3367 13.8674 15.4819C13.7221 15.6272 13.6392 15.8233 13.6361 16.0287C13.6392 16.2341 13.7221 16.4302 13.8674 16.5754C14.0126 16.7207 14.2087 16.8036 14.4141 16.8067H17.2903C17.4967 16.8067 17.6946 16.7247 17.8405 16.5788Z" fill="#00729F" fill-opacity="0.8"/>
  <defs>
    <linearGradient id="paint0_linear_13089_19061" x1="20.9852" y1="19.4034" x2="6.29196" y2="0.68593" gradientUnits="userSpaceOnUse">
      <stop stop-color="#00729F"/>
      <stop offset="1" stop-color="#00729F"/>
    </linearGradient>
    <linearGradient id="paint1_linear_13089_19061" x1="20.9852" y1="19.4034" x2="6.29196" y2="0.68593" gradientUnits="userSpaceOnUse">
      <stop stop-color="#00729F"/>
      <stop offset="1" stop-color="#00729F"/>
    </linearGradient>
  </defs>
</svg>
