<svg width="24" height="24" viewBox="0 0 24 24" fill="none" xmlns="http://www.w3.org/2000/svg">
<path fill-rule="evenodd" clip-rule="evenodd" d="M12 10.5C12 9.39543 12.8954 8.5 14 8.5H16C17.1046 8.5 18 9.39543 18 10.5V10.6367C18.6216 10.6936 19.2383 10.768 19.8494 10.8594C20.8187 11.0045 21.5 11.8478 21.5 12.8038V14.8259C21.5 15.6334 21.0109 16.3942 20.2091 16.6607C18.5711 17.2053 16.8195 17.5 15 17.5C13.1806 17.5 11.4289 17.2053 9.79085 16.6607C8.98909 16.3941 8.5 15.6333 8.5 14.8259V12.8038C8.5 11.8478 9.18127 11.0045 10.1506 10.8594C10.7617 10.768 11.3784 10.6936 12 10.6367V10.5ZM17 10.5V10.5605C16.3384 10.5204 15.6716 10.5 15 10.5C14.3284 10.5 13.6616 10.5204 13 10.5605V10.5C13 9.94771 13.4477 9.5 14 9.5H16C16.5523 9.5 17 9.94772 17 10.5ZM15 16C15.2761 16 15.5 15.7761 15.5 15.5C15.5 15.2239 15.2761 15 15 15C14.7239 15 14.5 15.2239 14.5 15.5C14.5 15.7761 14.7239 16 15 16Z" fill="#00729F"/>
<path d="M9 19.2666V17.4026C9.14869 17.4842 9.30731 17.5538 9.47536 17.6096C11.2139 18.1877 13.072 18.5 15 18.5C16.928 18.5 18.7861 18.1877 20.5246 17.6097C20.6927 17.5538 20.8513 17.4842 21 17.4026V19.2666C21 20.2346 20.3018 21.085 19.3179 21.2156C17.905 21.4032 16.4637 21.5 15 21.5C13.5363 21.5 12.095 21.4032 10.6821 21.2156C9.69816 21.085 9 20.2346 9 19.2666Z" fill="#00729F"/>
<path fill-rule="evenodd" clip-rule="evenodd" d="M7.07692 2C6.05732 2 5.23077 2.82678 5.23077 3.84667C5.23077 3.91814 5.17629 3.9778 5.10514 3.98462C4.57385 4.03551 4.04657 4.10027 3.52367 4.17853C2.62887 4.31245 2 5.0911 2 5.97385V7.84094C2 8.58647 2.45147 9.28895 3.19155 9.53507C4.70364 10.0379 6.32053 10.31 8.00002 10.31C8.155 10.31 8.30204 10.2501 8.43241 10.1663C8.65191 10.0253 8.90392 9.92735 9.17933 9.88613C9.58529 9.82537 9.9937 9.77217 10.4044 9.72667C10.7515 9.68822 11.0178 9.39735 11.0178 9.04814C11.0178 8.34571 11.9079 7.54002 13.0059 7.54002C13.5549 7.54002 14 7.09495 14 6.54594V5.97385C14 5.0911 13.3711 4.31245 12.4763 4.17853C11.9534 4.10027 11.4262 4.03551 10.8949 3.98462C10.8237 3.9778 10.7692 3.91814 10.7692 3.84667C10.7692 2.82678 9.94268 2 8.92308 2H7.07692ZM9.79035 3.89924C9.82061 3.90102 9.84615 3.87698 9.84615 3.84667C9.84615 3.33673 9.43288 2.92334 8.92308 2.92334H7.07692C6.56712 2.92334 6.15385 3.33673 6.15385 3.84667C6.15385 3.87698 6.17939 3.90102 6.20965 3.89924C6.80202 3.86436 7.39897 3.84667 8 3.84667C8.60103 3.84667 9.19798 3.86436 9.79035 3.89924ZM8.46154 8.46335C8.46154 8.71833 8.2549 8.92502 8 8.92502C7.7451 8.92502 7.53846 8.71833 7.53846 8.46335C7.53846 8.20838 7.7451 8.00168 8 8.00168C8.2549 8.00168 8.46154 8.20838 8.46154 8.46335Z" fill="#00729F"/>
<path d="M7.02916 11.2046C7.32894 11.2224 7.53847 11.5192 7.53847 11.8195V13.8303C7.53847 13.9212 7.46675 13.9989 7.3758 13.997C6.23877 13.9738 5.11712 13.8873 4.01425 13.7408C3.106 13.6202 2.46155 12.835 2.46155 11.9412V10.6994C2.46155 10.4837 2.69569 10.3432 2.90034 10.4113C4.2113 10.8472 5.5959 11.1195 7.02916 11.2046Z" fill="#00729F"/>
</svg>
