<svg width="24" height="24" viewBox="0 0 24 24" fill="none" xmlns="http://www.w3.org/2000/svg">
<path d="M16.2717 2H7.7417C6.3717 2 5.26172 3.14 5.26172 4.53V19.47C5.26172 20.86 6.3717 22 7.7417 22H16.2717C17.6417 22 18.7617 20.86 18.7617 19.47V4.53C18.7617 3.14 17.6417 2 16.2717 2ZM11.5117 5.08H12.5117C12.9217 5.08 13.2617 5.42 13.2617 5.83C13.2617 6.25 12.9217 6.58 12.5117 6.58H11.5117C11.0917 6.58 10.7617 6.25 10.7617 5.83C10.7617 5.42 11.0917 5.08 11.5117 5.08ZM12.0017 19.68C11.0817 19.68 10.3317 18.93 10.3317 18.01C10.3317 17.09 11.0817 16.34 12.0017 16.34C12.9217 16.34 13.6717 17.09 13.6717 18.01C13.6717 18.93 12.9217 19.68 12.0017 19.68Z" fill="url(#paint0_linear_13089_19057)" fill-opacity="0.8"/>
<defs>
<linearGradient id="paint0_linear_13089_19057" x1="18.6644" y1="21.8709" x2="-0.0343709" y2="9.25887" gradientUnits="userSpaceOnUse">
<stop stop-color="#4758EC"/>
<stop offset="1" stop-color="#488BEE"/>
</linearGradient>
</defs>
</svg>
