<svg width="22" height="24" viewBox="0 0 22 24" fill="none" xmlns="http://www.w3.org/2000/svg">
<rect width="22" height="24" fill="#E5E5E5"/>
<g clip-path="url(#clip0_0_1)">
<rect x="-449" y="-422" width="685" height="492" fill="#FAFAFA"/>
</g>
<path d="M21.3677 13.3182L19.828 10.8378C19.6811 10.602 19.6043 10.3301 19.6043 10.0511C19.6043 7.50326 18.6106 5.10454 16.8088 3.29546C14.9996 1.49128 12.601 0.5 10.0532 0.5C7.50309 0.5 5.10454 1.49128 3.29546 3.29563C1.49347 5.10484 0.5 7.50343 0.5 10.0512C0.5 13.0585 1.8714 15.8277 4.26513 17.6488C5.15051 18.3273 5.87466 19.1981 6.363 20.1725C6.80081 21.0337 7.05106 21.9575 7.11111 22.9223C7.13276 23.3002 7.45027 23.5961 7.82805 23.5961H15.2066C15.606 23.5961 15.9284 23.2714 15.9284 22.8743V20.2232C15.9284 19.8815 16.2051 19.6049 16.5466 19.6049H17.8482C18.8176 19.6049 19.6044 18.8182 19.6044 17.8487L19.6046 15.2528C19.6046 14.9136 19.8813 14.6369 20.2228 14.6369H20.6341C20.9516 14.6369 21.2332 14.4709 21.3896 14.1918C21.5437 13.9151 21.5362 13.5876 21.3677 13.3182ZM17.3523 10.874C16.8687 10.874 16.4597 10.5372 16.3515 10.0849H9.6358V10.9198C10.7069 10.992 11.291 10.7235 11.6241 11.2566L12.1799 12.1348C12.2232 12.2069 12.3003 12.2479 12.382 12.2479H13.8207C13.9289 11.7956 14.3379 11.4588 14.8215 11.4588C15.3892 11.4588 15.8536 11.9207 15.8536 12.4909C15.8536 13.0586 15.3892 13.5206 14.8215 13.5206C14.3355 13.5206 13.9289 13.1838 13.8207 12.729H12.382C12.1341 12.729 11.9055 12.6038 11.7733 12.3922L11.2175 11.514C11.0943 11.3195 10.9565 11.4362 9.6357 11.4009V12.9974L10.296 14.0425C10.3393 14.1147 10.4163 14.1556 10.4981 14.1556H11.903C12.0089 13.701 12.4179 13.364 12.9013 13.364C13.4691 13.364 13.9334 13.8284 13.9334 14.3986C13.9334 14.9663 13.469 15.4283 12.9013 15.4283C12.4154 15.4283 12.0087 15.0915 11.9005 14.6367H10.4979C10.25 14.6367 10.0216 14.5115 9.8892 14.2999L9.6345 13.8967C9.6232 14.8695 8.82914 15.6577 7.85329 15.6577C7.02058 15.6577 6.31778 15.0878 6.12411 14.309C5.21506 14.6129 4.26773 13.9532 4.22997 12.9998C3.42359 12.928 2.78962 12.2485 2.78962 11.4238C2.78962 11.155 2.85557 10.8971 2.98177 10.6667C2.34677 9.97692 2.36305 8.89538 2.98177 8.22326C2.85557 7.99284 2.78962 7.73475 2.78962 7.46607C2.78962 6.64144 3.42381 5.96193 4.22997 5.89009C4.26722 4.92971 5.22443 4.27271 6.13352 4.58331C6.33977 3.82278 7.03922 3.26648 7.85329 3.26648C8.83601 3.26648 9.6355 4.06628 9.6355 5.04901V6.30561H11.1065C11.1908 6.30561 11.2653 6.26232 11.3111 6.1925L11.886 5.28075C11.684 5.09313 11.5588 4.82596 11.5588 4.53009C11.5588 3.96 12.0206 3.49804 12.5885 3.49804C13.1588 3.49804 13.6229 3.96004 13.6229 4.53009C13.6229 5.09782 13.1586 5.55982 12.5885 5.55982C12.4899 5.55982 12.3937 5.54539 12.3046 5.51887L11.7176 6.44992C11.5853 6.65919 11.3568 6.78673 11.1065 6.78673L9.6358 6.78639V8.28516H11.1069C11.1911 8.28516 11.2656 8.24422 11.3115 8.17441L11.8673 7.29388C11.9995 7.08227 12.2281 6.95708 12.4759 6.95708H13.8064C13.8834 6.46152 14.3092 6.08377 14.8217 6.08377C15.3894 6.08377 15.8537 6.54813 15.8537 7.11835C15.8537 7.68372 15.3894 8.14572 14.8217 8.14572C14.3669 8.14572 13.9773 7.84734 13.8425 7.43837H12.4759C12.3942 7.43837 12.3172 7.48166 12.2739 7.55148L11.7181 8.42951C11.3811 8.96871 10.7951 8.69197 9.6358 8.76631V9.60353H16.3514C16.4597 9.15129 16.8686 8.81194 17.3523 8.81194C17.9225 8.81194 18.3867 9.2763 18.3867 9.84399C18.3867 10.4121 17.9225 10.874 17.3523 10.874Z" fill="#00729F"/>
<path d="M7.85357 3.74713C7.17474 3.74713 6.60504 4.2771 6.55667 4.95373C6.55079 5.03848 6.50028 5.11366 6.42443 5.15175C6.19217 5.26604 5.87079 4.78055 5.24722 5.08933C5.51253 5.78611 6.01583 6.39761 6.65302 6.78276C6.92522 6.94705 6.6745 7.35903 6.40398 7.19441C6.29457 7.12829 6.18952 7.05512 6.08732 6.97792C6.02439 7.26556 5.73641 8.0632 5.4429 8.0632C5.25092 8.0632 5.13362 7.84471 5.24622 7.68444C5.50013 7.3228 5.62549 6.99256 5.65872 6.59985C5.32627 6.2612 5.05391 5.86281 4.86428 5.429C4.50549 5.98581 4.98612 6.36425 4.37225 6.36425C3.46136 6.36425 2.95893 7.4052 3.484 8.11624C3.74109 8.46446 2.99463 8.52185 2.99463 9.42672C2.99983 9.45088 2.96677 10.0359 3.44688 10.4469C3.73166 10.6904 3.27118 10.7991 3.27118 11.4232C3.27118 12.0304 3.76523 12.5245 4.37239 12.5245C4.40193 12.5245 4.43247 12.5231 4.4615 12.5204C4.6122 12.5045 4.74377 12.6382 4.72162 12.7943C4.65214 13.2642 4.923 13.6783 5.32526 13.8341C5.3949 13.3803 5.36503 12.945 5.81007 12.5785C6.05609 12.3762 6.36135 12.7475 6.116 12.9502C5.83894 13.1782 5.86948 13.4431 5.80286 13.8913C6.18396 13.8382 6.21434 13.6318 6.42463 13.7391C6.50098 13.7785 6.55082 13.8554 6.55502 13.9411C6.58926 14.6335 7.16 15.1759 7.85407 15.1759C8.57165 15.1759 9.1551 14.5926 9.1551 13.8755V12.045C8.23599 12.0782 7.33553 11.9298 6.90674 11.1047C6.2036 11.7863 5.37205 11.7383 5.34774 11.7435C5.02956 11.7435 5.02939 11.2629 5.34723 11.2624C5.9193 11.2614 6.49274 10.9523 6.80842 10.4749C6.93361 10.2852 7.23215 10.3606 7.24894 10.59C7.27931 11.0047 7.65874 11.32 8.02124 11.4482C8.38473 11.5768 8.76163 11.5815 9.1553 11.5664L9.1548 9.34751C8.19087 9.06122 7.35047 7.9887 6.09773 9.94042C6.0254 10.0529 5.87604 10.0842 5.76528 10.0131C5.49661 9.8404 5.77451 9.53699 5.98361 9.26578C5.72753 9.19328 5.46104 9.15921 5.1964 9.15686C5.15931 9.74353 4.73255 10.0511 4.52127 10.0511C4.25209 10.0511 4.18731 9.67371 4.44072 9.58376C4.61054 9.52335 4.70284 9.31174 4.71677 9.14041C4.75822 8.63411 4.36738 8.23707 4.74262 8.12026C5.02253 8.03518 5.08681 8.37215 5.1536 8.67639C5.55535 8.67538 5.95709 8.74351 6.33485 8.87827C7.52568 7.75691 8.4636 8.5757 9.1548 8.839V6.7099C6.50923 6.53957 6.82941 5.23428 7.30838 5.38078C7.43542 5.41971 7.50691 5.55447 7.46798 5.68134C7.44784 5.84261 8.43008 6.17655 9.1549 6.22857V5.04865C9.1549 4.33091 8.57115 3.74713 7.85357 3.74713Z" fill="#00729F"/>
<defs>
<clipPath id="clip0_0_1">
<rect width="685" height="492" fill="white" transform="translate(-449 -422)"/>
</clipPath>
</defs>
</svg>
