<svg width="24" height="24" viewBox="0 0 24 24" fill="none" xmlns="http://www.w3.org/2000/svg">
<rect width="24" height="24" fill="#E5E5E5"/>
<g clip-path="url(#clip0_0_1)">
<rect x="-514" y="-362" width="685" height="492" fill="#FAFAFA"/>
</g>
<path d="M20.4805 6.59648C20.1005 6.39258 19.3034 6.17941 18.219 6.93941L16.8566 7.90331C16.7546 5.02087 15.5034 3.89014 12.4634 3.89014H6.90244C3.73268 3.89014 2.5 5.12282 2.5 8.29258V15.7072C2.5 17.8389 3.65854 20.1096 6.90244 20.1096H12.4634C15.5034 20.1096 16.7546 18.9789 16.8566 16.0965L18.219 17.0604C18.7937 17.4682 19.2941 17.5979 19.6927 17.5979C20.0356 17.5979 20.3044 17.496 20.4805 17.4033C20.8605 17.2087 21.5 16.6804 21.5 15.355V8.64477C21.5 7.3194 20.8605 6.79111 20.4805 6.59648ZM11.0732 11.4253C10.1185 11.4253 9.33073 10.6467 9.33073 9.68282C9.33073 8.71892 10.1185 7.94038 11.0732 7.94038C12.0278 7.94038 12.8156 8.71892 12.8156 9.68282C12.8156 10.6467 12.0278 11.4253 11.0732 11.4253Z" fill="#00729F"/>
<defs>
<clipPath id="clip0_0_1">
<rect width="685" height="492" fill="white" transform="translate(-514 -362)"/>
</clipPath>
</defs>
</svg>
