<svg fill="none" height="121" viewBox="0 0 323 121" width="323" xmlns="http://www.w3.org/2000/svg"><path d="m0 0h7.47273v45.8668l26.92967-23.4486h10.9724l-31.9239 27.7187 33.799 30.3829h-10.5175l-29.25967-26.1499v26.1499h-7.47273z" fill="#55a7dd"/><path d="m103.848 61.2389 6.303 3.314c-2.07 4.0566-4.446 7.3335-7.166 9.8213-2.711 2.4878-5.7554 4.3908-9.1344 5.6904-3.3882 1.2996-7.2128 1.9494-11.4922 1.9494-9.4778 0-16.8856-3.1097-22.2325-9.32-5.347-6.2102-8.0204-13.2374-8.0204-21.0629 0-7.3706 2.265-13.9336 6.7858-19.6983 5.7368-7.3334 13.4137-11.0002 23.0308-11.0002s17.8139 3.7596 23.7269 11.2694c4.205 5.3006 6.34 11.9286 6.415 19.8654h-52.2723c.1392 6.7487 2.2929 12.2813 6.4702 16.5978 4.168 4.3166 9.32 6.4702 15.4467 6.4702 2.9612 0 5.8389-.5105 8.6331-1.5409 2.8034-1.0304 5.1798-2.395 7.1385-4.0938 1.9587-1.708 4.0848-4.4558 6.3588-8.2432zm0-15.6416c-.993-3.9824-2.45-7.1757-4.3534-9.5521-1.9123-2.3857-4.4279-4.3073-7.5655-5.7647s-6.4331-2.1908-9.8956-2.1908c-5.6997 0-10.6011 1.838-14.6948 5.4955-2.9984 2.6735-5.2541 6.6744-6.7951 12.0121z" fill="#55a7dd"/><path d="m197.613 22.4267h7.473v10.4154c2.989-3.9824 6.303-6.9622 9.933-8.9395 3.629-1.9772 7.584-2.9612 11.854-2.9612s8.197 1.1047 11.557 3.3047c3.361 2.2093 5.848 5.1799 7.445 8.9209 1.606 3.7317 2.404 9.5614 2.404 17.4611v29.9002h-7.472v-27.7094c0-6.693-.279-11.1581-.827-13.3953-.863-3.8431-2.525-6.7393-4.985-8.6702-2.459-1.9401-5.662-2.9148-9.607-2.9148-4.521 0-8.578 1.4945-12.152 4.4836-3.583 2.9891-5.941 6.693-7.073 11.1117-.715 2.8776-1.068 8.1503-1.068 15.7994v21.3043h-7.472v-58.1109z" fill="#55a7dd"/><path d="m322.172 22.4272v58.0923h-7.361v-9.9884c-3.138 3.8153-6.647 6.6744-10.545 8.596-3.899 1.9215-8.16 2.8869-12.792 2.8869-8.225 0-15.243-2.9798-21.063-8.9394s-8.735-13.2188-8.735-21.7591c0-8.5402 2.933-15.521 8.809-21.462 5.867-5.9411 12.941-8.9209 21.193-8.9209 4.771 0 9.088 1.0119 12.95 3.0448 3.861 2.0237 7.259 5.0685 10.174 9.1344v-10.6754h7.361zm-29.872 5.7089c-4.159 0-8.002 1.0212-11.52 3.0634-3.528 2.0422-6.322 4.9199-8.401 8.6145-2.079 3.7039-3.119 7.612-3.119 11.7336s1.049 8.0018 3.147 11.7336c2.098 3.7317 4.92 6.6372 8.457 8.7259 3.536 2.0793 7.333 3.119 11.39 3.119 4.056 0 7.964-1.0304 11.622-3.0912 3.667-2.0608 6.479-4.8549 8.456-8.3731 1.968-3.5183 2.962-7.482 2.962-11.8914 0-6.7208-2.21-12.337-6.638-16.8577-4.427-4.5115-9.877-6.7766-16.347-6.7766z" fill="#55a7dd"/><g fill="#6d6e71" stroke="#6d6e71" stroke-miterlimit="10" stroke-width=".25"><path d="m161.301 96.5508h2.645v10.4152h13.526v-10.4152h2.645v23.4392h-2.645v-10.545h-13.526v10.545h-2.645z"/><path d="m191.766 96.5508h16.941v2.4135h-14.296v8.0017h12.792v2.414h-12.792v8.206h14.463v2.413h-17.108v-23.4389z"/><path d="m227.894 96.3838h2.479l10.684 23.6062h-2.85l-2.747-6.192h-12.755l-2.776 6.192h-2.71l10.684-23.6062zm6.526 15.0382-5.328-11.9563-5.357 11.9563z"/><path d="m250.695 96.5508h2.646v20.9982h13.191v2.441h-15.837z"/><path d="m279.286 99.002h-7.872v-2.4415h18.417v2.4415h-7.872v20.998h-2.682v-20.998z"/><path d="m299.801 96.5508h2.645v10.4152h13.526v-10.4152h2.645v23.4392h-2.645v-10.545h-13.526v10.545h-2.645z"/></g><path d="m185.426 51.6404c0-4.2051-.743-8.2153-2.238-12.0399-1.485-3.8245-3.601-7.1849-6.349-10.0719s-6.034-5.1799-9.849-6.8786c-3.825-1.6895-8.076-2.5436-12.746-2.5436-4.669 0-8.93.8634-12.792 2.5807-3.852 1.7266-7.147 4.0288-9.895 6.9157-2.748 2.887-4.874 6.266-6.396 10.1184-1.513 3.8524-2.274 7.8812-2.274 12.0863v.1764c0 4.2051.742 8.2154 2.228 12.0399 1.485 3.8246 3.601 7.185 6.349 10.0719 2.748 2.887 6.034 5.1799 9.849 6.8787 3.825 1.6895 8.067 2.5435 12.746 2.5435 4.678 0 8.93-.8633 12.782-2.5807 3.853-1.7266 7.148-4.0287 9.896-6.9157 2.747-2.8963 4.873-6.266 6.396-10.1184 1.513-3.8524 2.274-7.8812 2.274-12.0863.056-.0557.056-.1114 0-.1764zm-58.817 1.0119c.019-.2507.037-.5106.074-.7891 1.3-1.6338 2.841-3.0262 5.004-4.7714.863-.6962.51-.492 3.611-2.265 2.933-1.1511 4.929-2.5992 10.601-2.5992h.028c6.015.1485 12.225 2.4414 16.486 6.5351 6.814 6.563 5.654 17.359-2.395 21.7777-2.088 1.1418-4.409 1.1139-7.528.557-.112-.3528 0 0 .056-.919 1.178-.0557.789-.0557 1.178-.0557 7.659 0 11.91-8.661 7.668-15.781-4.428-7.4263-14.37-9.6542-21.759-4.8642-6.563 4.2516-9.394 11.5015-8.225 18.7886-1.244-1.7452-2.376-3.6111-2.998-5.2077-1.105-2.8313-1.699-7.0272-1.782-10.4154zm25.547 27.2638c-3.5 0-6.73-.6684-9.673-2.0144-1.522-.6962-2.933-1.5131-4.252-2.4599-2.58-4.001-3.815-8.4011-1.949-13.7294 2.72-7.7698 11.752-11.4366 18.259-7.25 3.491 2.2465 4.809 5.8947 3.342 9.2643-1.225 2.8128-3.444 2.8313-5.755 1.2347 1.689-.0279 3.045-1.0954 3.045-2.4229 0-.6869-.362-1.2996-.947-1.7359-.112-.1299-.232-.2228-.344-.2599-.037-.0093-.083-.0278-.13-.0371-.492-.2507-1.067-.3899-1.689-.3899-.483 0-.928.0835-1.328.2414-.343.0649-.668.1763-.956.3156-4.474 2.2372-4.428 9.5799.204 13.191 3.974 3.1097 8.355 4.2515 12.839 3.6481l-.984 1.1326c-2.952 1.3181-6.173 1.2717-9.682 1.2717z" fill="#55a7dd"/></svg>