<svg width="26" height="26" viewBox="0 0 26 26" fill="none" xmlns="http://www.w3.org/2000/svg">
<g id="linkedin 1">
<path id="Vector" d="M24.9933 25.0002V24.9992H24.9993V16.1972C24.9993 11.8912 24.0723 8.57422 19.0383 8.57422C16.6183 8.57422 14.9943 9.90222 14.3313 11.1612H14.2613V8.97622H9.48828V24.9992H14.4583V17.0652C14.4583 14.9762 14.8543 12.9562 17.4413 12.9562C19.9903 12.9562 20.0283 15.3402 20.0283 17.1992V25.0002H24.9933Z" fill="currentColor" fill-opacity="0.2"/>
<path id="Vector_2" d="M1.39844 8.97656H6.37444V24.9996H1.39844V8.97656Z" fill="currentColor" fill-opacity="0.2"/>
<path id="Vector_3" d="M3.882 1C2.291 1 1 2.291 1 3.882C1 5.473 2.291 6.791 3.882 6.791C5.473 6.791 6.764 5.473 6.764 3.882C6.763 2.291 5.472 1 3.882 1V1Z" fill="currentColor" fill-opacity="0.2"/>
</g>
</svg>
