<?xml version="1.0" encoding="UTF-8"?>
<svg xmlns="http://www.w3.org/2000/svg" width="208" height="67" viewBox="0 0 208 67" fill="none">
  <path d="M54.412 7.23294C54.412 8.36074 54.0914 9.24298 53.4479 9.88419C52.8044 10.5299 51.9222 10.8483 50.7944 10.8483H3.77459C2.64906 10.8483 1.76683 10.5277 1.12107 9.88419C0.477588 9.24298 0.156982 8.35847 0.156982 7.23294V3.61761C0.156982 2.49208 0.479861 1.60757 1.12107 0.964089C1.76456 0.322879 2.64906 0 3.77459 0H50.7967C51.9245 0 52.8067 0.322879 53.4502 0.964089C54.0937 1.60757 54.4143 2.48981 54.4143 3.61533V7.23294H54.412Z" fill="#BFD963"></path>
  <path d="M54.3073 21.062C54.3073 22.1898 53.9867 23.0721 53.3432 23.7133C52.6997 24.359 51.8175 24.6774 50.6897 24.6774H3.66985C2.54433 24.6774 1.66209 24.3568 1.01634 23.7133C0.372851 23.0721 0.0522461 22.1876 0.0522461 21.062V17.4444C0.0522461 16.3189 0.372851 15.4367 1.01634 14.7932C1.65982 14.1497 2.54433 13.8291 3.66985 13.8291H50.6897C51.8175 13.8291 52.6997 14.152 53.3432 14.7932C53.9867 15.4367 54.3073 16.3189 54.3073 17.4444V21.062Z" fill="#52B983"></path>
  <path d="M54.3437 34.8911C54.3437 36.0167 54.0231 36.9012 53.3796 37.5424C52.7362 38.1881 51.8539 38.5065 50.7261 38.5065H3.70403C2.57851 38.5065 1.69627 38.1859 1.05051 37.5424C0.407031 36.9012 0.0864258 36.0167 0.0864258 34.8911V31.2735C0.0864258 30.148 0.407031 29.2658 1.05051 28.6223C1.694 27.9788 2.57851 27.6582 3.70403 27.6582H50.7261C51.8539 27.6582 52.7362 27.9811 53.3796 28.6223C54.0231 29.2658 54.3437 30.148 54.3437 31.2735V34.8911Z" fill="#33A0A2"></path>
  <path d="M54.255 48.7207C54.255 49.8463 53.9344 50.7308 53.2909 51.372C52.6475 52.0177 51.7652 52.3361 50.6374 52.3361H3.61761C2.49208 52.3361 1.60985 52.0155 0.964089 51.372C0.320605 50.7308 0 49.8463 0 48.7207V45.1031C0 43.9776 0.320605 43.0954 0.964089 42.4519C1.60757 41.8084 2.49208 41.4878 3.61761 41.4878H50.6397C51.7675 41.4878 52.6497 41.8107 53.2932 42.4519C53.9367 43.0954 54.2573 43.9776 54.2573 45.1031V48.7207H54.255Z" fill="#0685C1"></path>
  <path d="M54.3073 62.5498C54.3073 63.6754 53.9867 64.5599 53.3432 65.2011C52.6997 65.8468 51.8175 66.1652 50.6897 66.1652H3.66985C2.54433 66.1652 1.66209 65.8446 1.01634 65.2011C0.372851 64.5599 0.0522461 63.6754 0.0522461 62.5498V58.9322C0.0522461 57.8067 0.372851 56.9245 1.01634 56.281C1.65982 55.6375 2.54433 55.3169 3.66985 55.3169H50.6897C51.8175 55.3169 52.6997 55.6398 53.3432 56.281C53.9867 56.9245 54.3073 57.8067 54.3073 58.9322V62.5498Z" fill="#2854A1"></path>
  <path d="M70.5879 44.1685C69.933 44.1685 69.4191 43.982 69.0462 43.6068C68.6711 43.2339 68.4846 42.7201 68.4846 42.0652V14.7228C68.4846 14.068 68.6711 13.5541 69.0462 13.1789C69.4191 12.806 69.933 12.6173 70.5879 12.6173H72.6911C73.346 12.6173 73.8599 12.8037 74.2328 13.1789C74.6057 13.5541 74.7944 14.068 74.7944 14.7228V42.0652C74.7944 42.7201 74.6057 43.2339 74.2328 43.6068C73.8576 43.982 73.3437 44.1685 72.6911 44.1685H70.5879ZM70.5879 7.71271C69.933 7.71271 69.4191 7.52626 69.0462 7.15109C68.6711 6.77818 68.4846 6.26431 68.4846 5.60945V2.10326C68.4846 1.44841 68.6711 0.936804 69.0462 0.561627C69.4191 0.188725 69.933 0 70.5879 0H72.6911C73.346 0 73.8599 0.188725 74.2328 0.561627C74.6057 0.936804 74.7944 1.45068 74.7944 2.10326V5.60945C74.7944 6.26431 74.6057 6.77818 74.2328 7.15109C73.8576 7.52626 73.3437 7.71271 72.6911 7.71271H70.5879Z" fill="#3D3E3B"></path>
  <path d="M102.136 44.1684C101.482 44.1684 100.968 43.9819 100.592 43.6067C100.217 43.2338 100.031 42.7199 100.031 42.0628V24.5387C100.031 22.7628 99.4806 21.2076 98.3824 19.8774C97.2841 18.545 95.6129 17.8787 93.3709 17.8787C91.129 17.8787 89.4555 18.545 88.3595 19.8774C87.2612 21.2098 86.711 22.7651 86.711 24.5387V42.0651C86.711 42.7199 86.5245 43.2338 86.1494 43.609C85.7742 43.9842 85.2603 44.1706 84.6077 44.1706H82.5045C81.8496 44.1706 81.3357 43.9842 80.9606 43.609C80.5854 43.2361 80.3989 42.7222 80.3989 42.0651V24.5387C80.3989 22.8561 80.715 21.2439 81.3448 19.7023C81.9747 18.1607 82.8524 16.8169 83.9733 15.6709C85.0943 14.5249 86.4495 13.6154 88.0389 12.9378C89.6283 12.2602 91.4041 11.9214 93.3664 11.9214C95.3287 11.9214 97.1045 12.2602 98.6939 12.9378C100.283 13.6154 101.638 14.5272 102.759 15.6709C103.88 16.8169 104.758 18.1607 105.388 19.7023C106.02 21.2439 106.336 22.8561 106.336 24.5387V42.0651C106.336 42.7199 106.147 43.2338 105.774 43.609C105.399 43.9842 104.885 44.1706 104.233 44.1706H102.13L102.136 44.1684Z" fill="#3D3E3B"></path>
  <path d="M123.94 44.1687C120.434 44.1687 117.851 43.2114 116.194 41.2946C114.534 39.3801 113.706 36.7152 113.706 33.3022V19.282C113.706 18.8136 113.472 18.5817 113.006 18.5817H110.902C110.248 18.5817 109.734 18.3952 109.359 18.02C108.983 17.6471 108.797 17.1333 108.797 16.4784V14.7253C108.797 14.0705 108.983 13.5566 109.359 13.1814C109.731 12.8085 110.245 12.6198 110.902 12.6198H113.006C113.472 12.6198 113.706 12.3856 113.706 11.9194V7.01032C113.706 6.35547 113.892 5.84159 114.265 5.46641C114.638 5.09351 115.152 4.90479 115.809 4.90479H117.913C118.567 4.90479 119.081 5.09124 119.454 5.46641C119.827 5.84159 120.016 6.35547 120.016 7.01032V11.9172C120.016 12.3856 120.25 12.6175 120.716 12.6175H125.975C126.63 12.6175 127.142 12.8039 127.517 13.1791C127.89 13.5543 128.079 14.0682 128.079 14.723V16.4761C128.079 17.131 127.892 17.6449 127.517 18.0178C127.142 18.3929 126.63 18.5794 125.975 18.5794H120.716C120.248 18.5794 120.016 18.8136 120.016 19.2797V32.9498C120.016 34.5869 120.332 35.8716 120.962 36.8061C121.592 37.7407 122.794 38.2091 124.572 38.2091H125.975C126.63 38.2091 127.142 38.3955 127.517 38.7707C127.89 39.1459 128.079 39.6597 128.079 40.3123V42.0654C128.079 42.7203 127.892 43.2341 127.517 43.6093C127.142 43.9845 126.63 44.171 125.975 44.171H123.943L123.94 44.1687Z" fill="#3D3E3B"></path>
  <path d="M148.756 24.3272C148.756 22.5514 148.265 21.0325 147.285 19.7705C146.303 18.5086 144.691 17.8764 142.449 17.8764C140.207 17.8764 138.709 18.5086 137.822 19.7705C136.935 21.0325 136.489 22.5514 136.489 24.3272V24.6774C136.489 25.1458 136.723 25.3777 137.19 25.3777H148.056C148.522 25.3777 148.756 25.1435 148.756 24.6774V24.3272ZM153.663 37.2969C154.084 37.7176 154.282 38.186 154.259 38.6999C154.236 39.2137 154.036 39.7049 153.663 40.1733C152.729 41.342 151.351 42.4152 149.527 43.3975C147.704 44.3798 145.53 44.8687 143.006 44.8687C141.044 44.8687 139.279 44.5526 137.713 43.9228C136.146 43.2906 134.804 42.4152 133.681 41.2943C132.56 40.1733 131.694 38.8658 131.089 37.3674C130.482 35.8713 130.177 34.2819 130.177 32.5993V24.3249C130.177 22.6423 130.446 21.0416 130.984 19.5227C131.521 18.0038 132.315 16.6827 133.367 15.5617C134.42 14.4407 135.705 13.554 137.224 12.8968C138.743 12.242 140.484 11.9146 142.449 11.9146C144.413 11.9146 146.164 12.242 147.706 12.8968C149.248 13.5517 150.569 14.4385 151.667 15.5617C152.765 16.6827 153.606 18.006 154.191 19.5227C154.775 21.0416 155.066 22.6423 155.066 24.3249V28.5314C155.066 29.1863 154.88 29.7002 154.505 30.0754C154.129 30.4505 153.616 30.637 152.963 30.637H137.187C136.719 30.637 136.487 30.8712 136.487 31.3373V32.5993C136.487 34.3751 137.012 35.8713 138.065 37.0855C139.118 38.3019 140.764 38.9068 143.006 38.9068C144.782 38.9068 146.162 38.5907 147.144 37.9609C148.127 37.331 148.872 36.733 149.389 36.1737C149.902 35.6598 150.414 35.4142 150.93 35.437C151.444 35.462 151.912 35.6825 152.333 36.1032L153.663 37.2947V37.2969Z" fill="#3D3E3B"></path>
  <path d="M161.376 44.1682C160.721 44.1682 160.207 43.9818 159.834 43.6066C159.459 43.2337 159.273 42.7198 159.273 42.0627V24.1884C159.273 20.7777 160.255 17.9968 162.217 15.8458C164.18 13.6971 166.915 12.6216 170.421 12.6216H172.945C173.6 12.6216 174.114 12.808 174.489 13.1832C174.862 13.5584 175.051 14.0723 175.051 14.7271V16.4802C175.051 17.1351 174.862 17.6489 174.489 18.0218C174.114 18.397 173.6 18.5835 172.945 18.5835H170.842C169.066 18.5835 167.745 19.1337 166.881 20.2297C166.015 21.3279 165.585 22.765 165.585 24.5408V42.0672C165.585 42.7221 165.398 43.236 165.023 43.6111C164.648 43.9863 164.136 44.1728 163.482 44.1728H161.378L161.376 44.1682Z" fill="#3D3E3B"></path>
  <path d="M191.522 38.9113C192.97 38.9113 194.314 38.6317 195.553 38.07C196.79 37.5084 197.868 36.7626 198.778 35.8258C199.689 34.8913 200.401 33.7817 200.915 32.4947C201.429 31.21 201.686 29.8434 201.686 28.3928C201.686 26.9421 201.429 25.5778 200.915 24.2908C200.401 23.0061 199.689 21.8965 198.778 20.962C197.866 20.0275 196.79 19.2794 195.553 18.7178C194.314 18.1561 192.97 17.8765 191.522 17.8765C190.074 17.8765 188.727 18.1561 187.491 18.7178C186.254 19.2794 185.178 20.0275 184.266 20.962C183.355 21.8965 182.641 23.0061 182.129 24.2908C181.615 25.5778 181.358 26.9444 181.358 28.3928C181.358 29.8412 181.615 31.2077 182.129 32.4947C182.643 33.7817 183.355 34.8913 184.266 35.8258C185.178 36.7603 186.251 37.5084 187.491 38.07C188.73 38.6317 190.074 38.9113 191.522 38.9113ZM191.522 44.871C189.23 44.871 187.093 44.4389 185.108 43.5749C183.12 42.7108 181.379 41.5307 179.885 40.0346C178.389 38.5384 177.208 36.799 176.344 34.8117C175.478 32.8267 175.048 30.687 175.048 28.3973C175.048 26.1076 175.48 23.9702 176.344 21.9829C177.208 19.9956 178.389 18.2562 179.885 16.76C181.381 15.2639 183.12 14.0838 185.108 13.2197C187.095 12.3557 189.232 11.9214 191.522 11.9214C193.812 11.9214 195.949 12.3534 197.936 13.2197C199.921 14.086 201.663 15.2639 203.159 16.76C204.655 18.2562 205.836 19.9979 206.7 21.9829C207.564 23.9702 207.998 26.1076 207.998 28.3973C207.998 30.687 207.566 32.8267 206.7 34.8117C205.836 36.799 204.655 38.5407 203.159 40.0346C201.663 41.5307 199.921 42.7108 197.936 43.5749C195.949 44.4389 193.812 44.871 191.522 44.871Z" fill="#3D3E3B"></path>
  <path d="M72.4024 64.2369C75.688 64.2369 77.4047 62.3952 77.4047 59.3255C77.4047 56.2559 75.6903 54.3414 72.4024 54.3414H70.1263V64.2347H72.4024V64.2369ZM79.0828 59.3255C79.0828 63.2251 76.5361 65.5898 72.4024 65.5898H68.4846V53.0044H72.4024C76.5384 53.0044 79.0828 55.4237 79.0828 59.3233" fill="#3D3E3B"></path>
  <path d="M95.5289 53.0068H93.8872V65.5923H95.5289V53.0068Z" fill="#3D3E3B"></path>
  <path d="M122.469 56.6539H120.5C119.813 55.1918 118.442 54.3437 116.673 54.3437C114.02 54.3437 112.032 56.2582 112.032 59.2915C112.032 62.3247 114.02 64.2211 116.673 64.2211C119.147 64.2211 120.843 62.6317 121.098 60.1396H116.077V58.8049H122.849V60.0691C122.56 63.1933 120.086 65.7036 116.673 65.7036C113.26 65.7036 110.354 63.0682 110.354 59.2937C110.354 55.5192 113.135 52.8657 116.673 52.8657C119.327 52.8657 121.53 54.2391 122.469 56.6584" fill="#3D3E3B"></path>
  <path d="M139.297 53.0068H137.653V65.5923H139.297V53.0068Z" fill="#3D3E3B"></path>
  <path d="M153.959 53.0068V54.3438H157.408V65.5923H159.05V54.3438H162.481V53.0068H153.959Z" fill="#3D3E3B"></path>
  <path d="M181.835 55.101L184.111 61.4563H179.562L181.835 55.101ZM180.896 53.0796L176.346 65.5923H178.079L179.089 62.7932H184.578L185.589 65.5923H187.322L182.79 53.0796H180.894H180.896Z" fill="#3D3E3B"></path>
  <path d="M201.949 53.0068V65.5923H208V64.2553H203.593V53.0068H201.949Z" fill="#3D3E3B"></path>
</svg>
