<svg width="48" height="48" viewBox="0 0 48 48" fill="none" xmlns="http://www.w3.org/2000/svg">
<path d="M40.1863 7.61328C40.2968 7.61328 40.3863 7.70283 40.3863 7.81328V24.7362C40.3863 24.8467 40.2968 24.9362 40.1863 24.9362H23.2636C23.1532 24.9362 23.0636 24.8467 23.0636 24.7362V7.81328C23.0636 7.70282 23.1532 7.61328 23.2636 7.61328H40.1863ZM25.1361 9.48619C25.0256 9.48619 24.9361 9.57573 24.9361 9.68619V22.8638C24.9361 22.9742 25.0256 23.0638 25.1361 23.0638H38.3135C38.4239 23.0638 38.5135 22.9742 38.5135 22.8638V9.68619C38.5135 9.57573 38.4239 9.48619 38.3135 9.48619H25.1361ZM34.5685 19.3182C34.6789 19.3182 34.7685 19.2287 34.7685 19.1182V13.4316C34.7685 13.3211 34.6789 13.2316 34.5685 13.2316H28.8819C28.7715 13.2316 28.6819 13.3211 28.6819 13.4316V19.1182C28.6819 19.2287 28.7715 19.3182 28.8819 19.3182H34.5685ZM9.48616 38.3137C9.48616 38.4241 9.5757 38.5137 9.68615 38.5137H22.8636C22.974 38.5137 23.0636 38.4241 23.0636 38.3137V28.8818C23.0636 28.7713 23.1531 28.6818 23.2636 28.6818H24.736C24.8465 28.6818 24.936 28.7713 24.936 28.8818V40.1866C24.936 40.297 24.8465 40.3866 24.736 40.3866H7.81328C7.70282 40.3866 7.61328 40.297 7.61328 40.1866V23.2636C7.61328 23.1532 7.70282 23.0636 7.81328 23.0636H19.1179C19.2284 23.0636 19.3179 23.1532 19.3179 23.2636V24.7361C19.3179 24.8466 19.2284 24.9361 19.1179 24.9361H9.68616C9.5757 24.9361 9.48616 25.0256 9.48616 25.1361V38.3137ZM30.5078 30.4093C30.3973 30.4093 30.3078 30.4988 30.3078 30.6093V36.2959C30.3078 36.4064 30.3973 36.4959 30.5078 36.4959H36.1943C36.3048 36.4959 36.3943 36.4064 36.3943 36.2959V30.6093C36.3943 30.4988 36.3048 30.4093 36.1943 30.4093H30.5078ZM19.1181 34.7685C19.2286 34.7685 19.3181 34.679 19.3181 34.5685V28.8819C19.3181 28.7715 19.2286 28.6819 19.1181 28.6819H13.4316C13.3211 28.6819 13.2316 28.7715 13.2316 28.8819V34.5685C13.2316 34.679 13.3211 34.7685 13.4316 34.7685H19.1181Z" fill="url(#paint0_radial_19832_1879)"/>
<path d="M40.1863 7.61328C40.2968 7.61328 40.3863 7.70283 40.3863 7.81328V24.7362C40.3863 24.8467 40.2968 24.9362 40.1863 24.9362H23.2636C23.1532 24.9362 23.0636 24.8467 23.0636 24.7362V7.81328C23.0636 7.70282 23.1532 7.61328 23.2636 7.61328H40.1863ZM25.1361 9.48619C25.0256 9.48619 24.9361 9.57573 24.9361 9.68619V22.8638C24.9361 22.9742 25.0256 23.0638 25.1361 23.0638H38.3135C38.4239 23.0638 38.5135 22.9742 38.5135 22.8638V9.68619C38.5135 9.57573 38.4239 9.48619 38.3135 9.48619H25.1361ZM34.5685 19.3182C34.6789 19.3182 34.7685 19.2287 34.7685 19.1182V13.4316C34.7685 13.3211 34.6789 13.2316 34.5685 13.2316H28.8819C28.7715 13.2316 28.6819 13.3211 28.6819 13.4316V19.1182C28.6819 19.2287 28.7715 19.3182 28.8819 19.3182H34.5685ZM9.48616 38.3137C9.48616 38.4241 9.5757 38.5137 9.68615 38.5137H22.8636C22.974 38.5137 23.0636 38.4241 23.0636 38.3137V28.8818C23.0636 28.7713 23.1531 28.6818 23.2636 28.6818H24.736C24.8465 28.6818 24.936 28.7713 24.936 28.8818V40.1866C24.936 40.297 24.8465 40.3866 24.736 40.3866H7.81328C7.70282 40.3866 7.61328 40.297 7.61328 40.1866V23.2636C7.61328 23.1532 7.70282 23.0636 7.81328 23.0636H19.1179C19.2284 23.0636 19.3179 23.1532 19.3179 23.2636V24.7361C19.3179 24.8466 19.2284 24.9361 19.1179 24.9361H9.68616C9.5757 24.9361 9.48616 25.0256 9.48616 25.1361V38.3137ZM30.5078 30.4093C30.3973 30.4093 30.3078 30.4988 30.3078 30.6093V36.2959C30.3078 36.4064 30.3973 36.4959 30.5078 36.4959H36.1943C36.3048 36.4959 36.3943 36.4064 36.3943 36.2959V30.6093C36.3943 30.4988 36.3048 30.4093 36.1943 30.4093H30.5078ZM19.1181 34.7685C19.2286 34.7685 19.3181 34.679 19.3181 34.5685V28.8819C19.3181 28.7715 19.2286 28.6819 19.1181 28.6819H13.4316C13.3211 28.6819 13.2316 28.7715 13.2316 28.8819V34.5685C13.2316 34.679 13.3211 34.7685 13.4316 34.7685H19.1181Z" fill="url(#paint1_linear_19832_1879)" fill-opacity="0.2"/>
<path d="M40.1863 7.61328C40.2968 7.61328 40.3863 7.70283 40.3863 7.81328V24.7362C40.3863 24.8467 40.2968 24.9362 40.1863 24.9362H23.2636C23.1532 24.9362 23.0636 24.8467 23.0636 24.7362V7.81328C23.0636 7.70282 23.1532 7.61328 23.2636 7.61328H40.1863ZM25.1361 9.48619C25.0256 9.48619 24.9361 9.57573 24.9361 9.68619V22.8638C24.9361 22.9742 25.0256 23.0638 25.1361 23.0638H38.3135C38.4239 23.0638 38.5135 22.9742 38.5135 22.8638V9.68619C38.5135 9.57573 38.4239 9.48619 38.3135 9.48619H25.1361ZM34.5685 19.3182C34.6789 19.3182 34.7685 19.2287 34.7685 19.1182V13.4316C34.7685 13.3211 34.6789 13.2316 34.5685 13.2316H28.8819C28.7715 13.2316 28.6819 13.3211 28.6819 13.4316V19.1182C28.6819 19.2287 28.7715 19.3182 28.8819 19.3182H34.5685ZM9.48616 38.3137C9.48616 38.4241 9.5757 38.5137 9.68615 38.5137H22.8636C22.974 38.5137 23.0636 38.4241 23.0636 38.3137V28.8818C23.0636 28.7713 23.1531 28.6818 23.2636 28.6818H24.736C24.8465 28.6818 24.936 28.7713 24.936 28.8818V40.1866C24.936 40.297 24.8465 40.3866 24.736 40.3866H7.81328C7.70282 40.3866 7.61328 40.297 7.61328 40.1866V23.2636C7.61328 23.1532 7.70282 23.0636 7.81328 23.0636H19.1179C19.2284 23.0636 19.3179 23.1532 19.3179 23.2636V24.7361C19.3179 24.8466 19.2284 24.9361 19.1179 24.9361H9.68616C9.5757 24.9361 9.48616 25.0256 9.48616 25.1361V38.3137ZM30.5078 30.4093C30.3973 30.4093 30.3078 30.4988 30.3078 30.6093V36.2959C30.3078 36.4064 30.3973 36.4959 30.5078 36.4959H36.1943C36.3048 36.4959 36.3943 36.4064 36.3943 36.2959V30.6093C36.3943 30.4988 36.3048 30.4093 36.1943 30.4093H30.5078ZM19.1181 34.7685C19.2286 34.7685 19.3181 34.679 19.3181 34.5685V28.8819C19.3181 28.7715 19.2286 28.6819 19.1181 28.6819H13.4316C13.3211 28.6819 13.2316 28.7715 13.2316 28.8819V34.5685C13.2316 34.679 13.3211 34.7685 13.4316 34.7685H19.1181Z" stroke="url(#paint2_radial_19832_1879)"/>
<path d="M40.1863 7.61328C40.2968 7.61328 40.3863 7.70283 40.3863 7.81328V24.7362C40.3863 24.8467 40.2968 24.9362 40.1863 24.9362H23.2636C23.1532 24.9362 23.0636 24.8467 23.0636 24.7362V7.81328C23.0636 7.70282 23.1532 7.61328 23.2636 7.61328H40.1863ZM25.1361 9.48619C25.0256 9.48619 24.9361 9.57573 24.9361 9.68619V22.8638C24.9361 22.9742 25.0256 23.0638 25.1361 23.0638H38.3135C38.4239 23.0638 38.5135 22.9742 38.5135 22.8638V9.68619C38.5135 9.57573 38.4239 9.48619 38.3135 9.48619H25.1361ZM34.5685 19.3182C34.6789 19.3182 34.7685 19.2287 34.7685 19.1182V13.4316C34.7685 13.3211 34.6789 13.2316 34.5685 13.2316H28.8819C28.7715 13.2316 28.6819 13.3211 28.6819 13.4316V19.1182C28.6819 19.2287 28.7715 19.3182 28.8819 19.3182H34.5685ZM9.48616 38.3137C9.48616 38.4241 9.5757 38.5137 9.68615 38.5137H22.8636C22.974 38.5137 23.0636 38.4241 23.0636 38.3137V28.8818C23.0636 28.7713 23.1531 28.6818 23.2636 28.6818H24.736C24.8465 28.6818 24.936 28.7713 24.936 28.8818V40.1866C24.936 40.297 24.8465 40.3866 24.736 40.3866H7.81328C7.70282 40.3866 7.61328 40.297 7.61328 40.1866V23.2636C7.61328 23.1532 7.70282 23.0636 7.81328 23.0636H19.1179C19.2284 23.0636 19.3179 23.1532 19.3179 23.2636V24.7361C19.3179 24.8466 19.2284 24.9361 19.1179 24.9361H9.68616C9.5757 24.9361 9.48616 25.0256 9.48616 25.1361V38.3137ZM30.5078 30.4093C30.3973 30.4093 30.3078 30.4988 30.3078 30.6093V36.2959C30.3078 36.4064 30.3973 36.4959 30.5078 36.4959H36.1943C36.3048 36.4959 36.3943 36.4064 36.3943 36.2959V30.6093C36.3943 30.4988 36.3048 30.4093 36.1943 30.4093H30.5078ZM19.1181 34.7685C19.2286 34.7685 19.3181 34.679 19.3181 34.5685V28.8819C19.3181 28.7715 19.2286 28.6819 19.1181 28.6819H13.4316C13.3211 28.6819 13.2316 28.7715 13.2316 28.8819V34.5685C13.2316 34.679 13.3211 34.7685 13.4316 34.7685H19.1181Z" stroke="url(#paint3_linear_19832_1879)" stroke-opacity="0.2"/>
<defs>
<radialGradient id="paint0_radial_19832_1879" cx="0" cy="0" r="1" gradientUnits="userSpaceOnUse" gradientTransform="translate(8.4609 12.8929) rotate(35.0509) scale(45.5552 92.9433)">
<stop stop-color="#EFB793"/>
<stop offset="0.32" stop-color="#F5E1AB"/>
<stop offset="0.675" stop-color="#9BDAEC"/>
<stop offset="1" stop-color="#2A7CB5"/>
</radialGradient>
<linearGradient id="paint1_linear_19832_1879" x1="7.61328" y1="29.0673" x2="41.4393" y2="25.0627" gradientUnits="userSpaceOnUse">
<stop stop-color="#DFC6B3" stop-opacity="0"/>
<stop offset="0.475262" stop-color="#DFC6B3"/>
<stop offset="1" stop-opacity="0"/>
<stop offset="1" stop-color="#DFC6B3" stop-opacity="0"/>
</linearGradient>
<radialGradient id="paint2_radial_19832_1879" cx="0" cy="0" r="1" gradientUnits="userSpaceOnUse" gradientTransform="translate(8.4609 12.8929) rotate(35.0509) scale(45.5552 92.9433)">
<stop stop-color="#EFB793"/>
<stop offset="0.32" stop-color="#F5E1AB"/>
<stop offset="0.675" stop-color="#9BDAEC"/>
<stop offset="1" stop-color="#2A7CB5"/>
</radialGradient>
<linearGradient id="paint3_linear_19832_1879" x1="7.61328" y1="29.0673" x2="41.4393" y2="25.0627" gradientUnits="userSpaceOnUse">
<stop stop-color="#DFC6B3" stop-opacity="0"/>
<stop offset="0.475262" stop-color="#DFC6B3"/>
<stop offset="1" stop-opacity="0"/>
<stop offset="1" stop-color="#DFC6B3" stop-opacity="0"/>
</linearGradient>
</defs>
</svg>
