<svg width="49" height="48" viewBox="0 0 49 48" fill="none" xmlns="http://www.w3.org/2000/svg">
<rect x="32.3652" y="30.3457" width="3.94372" height="1.34863" rx="0.674316" transform="rotate(29.0496 32.3652 30.3457)" fill="url(#paint0_radial_19832_2134)"/>
<rect x="32.3652" y="30.3457" width="3.94372" height="1.34863" rx="0.674316" transform="rotate(29.0496 32.3652 30.3457)" fill="url(#paint1_linear_19832_2134)" fill-opacity="0.2"/>
<rect x="35.4805" y="22.4941" width="4.92945" height="1.60954" rx="0.80477" transform="rotate(11.0674 35.4805 22.4941)" fill="url(#paint2_radial_19832_2134)"/>
<rect x="35.4805" y="22.4941" width="4.92945" height="1.60954" rx="0.80477" transform="rotate(11.0674 35.4805 22.4941)" fill="url(#paint3_linear_19832_2134)" fill-opacity="0.2"/>
<rect x="34.4277" y="16.4336" width="4.92945" height="1.60954" rx="0.80477" transform="rotate(-23.0535 34.4277 16.4336)" fill="url(#paint4_radial_19832_2134)"/>
<rect x="34.4277" y="16.4336" width="4.92945" height="1.60954" rx="0.80477" transform="rotate(-23.0535 34.4277 16.4336)" fill="url(#paint5_linear_19832_2134)" fill-opacity="0.2"/>
<rect x="29.834" y="11.584" width="4.65071" height="1.60954" rx="0.80477" transform="rotate(-55.0257 29.834 11.584)" fill="url(#paint6_radial_19832_2134)"/>
<rect x="29.834" y="11.584" width="4.65071" height="1.60954" rx="0.80477" transform="rotate(-55.0257 29.834 11.584)" fill="url(#paint7_linear_19832_2134)" fill-opacity="0.2"/>
<rect x="23.6992" y="10.3398" width="4.65071" height="1.60954" rx="0.80477" transform="rotate(-90 23.6992 10.3398)" fill="url(#paint8_radial_19832_2134)"/>
<rect x="23.6992" y="10.3398" width="4.65071" height="1.60954" rx="0.80477" transform="rotate(-90 23.6992 10.3398)" fill="url(#paint9_linear_19832_2134)" fill-opacity="0.2"/>
<rect x="17.6064" y="12.6377" width="4.65071" height="1.60954" rx="0.80477" transform="rotate(-120.696 17.6064 12.6377)" fill="url(#paint10_radial_19832_2134)"/>
<rect x="17.6064" y="12.6377" width="4.65071" height="1.60954" rx="0.80477" transform="rotate(-120.696 17.6064 12.6377)" fill="url(#paint11_linear_19832_2134)" fill-opacity="0.2"/>
<rect x="13.6572" y="17.7061" width="4.39754" height="1.60954" rx="0.80477" transform="rotate(-151.025 13.6572 17.7061)" fill="url(#paint12_radial_19832_2134)"/>
<rect x="13.6572" y="17.7061" width="4.39754" height="1.60954" rx="0.80477" transform="rotate(-151.025 13.6572 17.7061)" fill="url(#paint13_linear_19832_2134)" fill-opacity="0.2"/>
<rect x="13.5449" y="24.2256" width="4.61928" height="1.60954" rx="0.80477" transform="rotate(166.971 13.5449 24.2256)" fill="url(#paint14_radial_19832_2134)"/>
<rect x="13.5449" y="24.2256" width="4.61928" height="1.60954" rx="0.80477" transform="rotate(166.971 13.5449 24.2256)" fill="url(#paint15_linear_19832_2134)" fill-opacity="0.2"/>
<rect x="16.7109" y="29.8818" width="5.00521" height="1.60954" rx="0.80477" transform="rotate(140.787 16.7109 29.8818)" fill="url(#paint16_radial_19832_2134)"/>
<rect x="16.7109" y="29.8818" width="5.00521" height="1.60954" rx="0.80477" transform="rotate(140.787 16.7109 29.8818)" fill="url(#paint17_linear_19832_2134)" fill-opacity="0.2"/>
<path d="M28.0853 35.5213L28.0853 35.5213L28.084 35.5223C27.1854 36.1865 26.0072 36.5038 24.5394 36.5038C23.0326 36.5038 21.8932 36.1869 20.9533 35.5212C20.6252 35.287 20.2074 35.3835 19.978 35.6583C19.8397 35.8199 19.7905 36.0095 19.8206 36.1898C19.8504 36.3686 19.9568 36.5311 20.1161 36.6449C21.2983 37.5009 22.7218 37.9051 24.5394 37.9051C26.3173 37.9051 27.7406 37.5007 28.9226 36.6449C29.2525 36.409 29.2943 35.9848 29.0657 35.6647C28.8299 35.3345 28.4055 35.2926 28.0853 35.5213Z" fill="url(#paint18_radial_19832_2134)"/>
<path d="M28.0853 35.5213L28.0853 35.5213L28.084 35.5223C27.1854 36.1865 26.0072 36.5038 24.5394 36.5038C23.0326 36.5038 21.8932 36.1869 20.9533 35.5212C20.6252 35.287 20.2074 35.3835 19.978 35.6583C19.8397 35.8199 19.7905 36.0095 19.8206 36.1898C19.8504 36.3686 19.9568 36.5311 20.1161 36.6449C21.2983 37.5009 22.7218 37.9051 24.5394 37.9051C26.3173 37.9051 27.7406 37.5007 28.9226 36.6449C29.2525 36.409 29.2943 35.9848 29.0657 35.6647C28.8299 35.3345 28.4055 35.2926 28.0853 35.5213Z" fill="url(#paint19_linear_19832_2134)" fill-opacity="0.2"/>
<path d="M28.0853 35.5213L28.0853 35.5213L28.084 35.5223C27.1854 36.1865 26.0072 36.5038 24.5394 36.5038C23.0326 36.5038 21.8932 36.1869 20.9533 35.5212C20.6252 35.287 20.2074 35.3835 19.978 35.6583C19.8397 35.8199 19.7905 36.0095 19.8206 36.1898C19.8504 36.3686 19.9568 36.5311 20.1161 36.6449C21.2983 37.5009 22.7218 37.9051 24.5394 37.9051C26.3173 37.9051 27.7406 37.5007 28.9226 36.6449C29.2525 36.409 29.2943 35.9848 29.0657 35.6647C28.8299 35.3345 28.4055 35.2926 28.0853 35.5213Z" stroke="url(#paint20_radial_19832_2134)" stroke-width="0.2"/>
<path d="M28.0853 35.5213L28.0853 35.5213L28.084 35.5223C27.1854 36.1865 26.0072 36.5038 24.5394 36.5038C23.0326 36.5038 21.8932 36.1869 20.9533 35.5212C20.6252 35.287 20.2074 35.3835 19.978 35.6583C19.8397 35.8199 19.7905 36.0095 19.8206 36.1898C19.8504 36.3686 19.9568 36.5311 20.1161 36.6449C21.2983 37.5009 22.7218 37.9051 24.5394 37.9051C26.3173 37.9051 27.7406 37.5007 28.9226 36.6449C29.2525 36.409 29.2943 35.9848 29.0657 35.6647C28.8299 35.3345 28.4055 35.2926 28.0853 35.5213Z" stroke="url(#paint21_linear_19832_2134)" stroke-opacity="0.2" stroke-width="0.2"/>
<path d="M20.9537 38.225L20.9537 38.225C21.8109 38.8484 22.8681 39.1269 24.5389 39.1269C25.696 39.1269 27.0286 39.0062 28.0822 38.2664C28.3578 38.0398 28.8252 38.0318 29.0653 38.3679C29.2938 38.6879 29.2521 39.112 28.9224 39.3479C28.9222 39.3481 28.922 39.3482 28.9219 39.3483L28.8637 39.2669C28.2631 39.7074 27.6224 39.9877 26.9416 40.1479L20.9537 38.225ZM20.9537 38.225L20.953 38.2245C20.6247 37.99 20.2064 38.0868 19.9771 38.362L19.9769 38.3618L19.9725 38.3679C19.738 38.6962 19.8349 39.1145 20.11 39.3438L20.1098 39.3441L20.1174 39.3493C20.7465 39.7819 21.3771 40.0631 22.0449 40.2287C22.2031 41.4476 23.2704 42.4103 24.5389 42.4103C25.8074 42.4103 26.8748 41.4476 27.033 40.2287L20.9537 38.225Z" fill="url(#paint22_radial_19832_2134)"/>
<path d="M20.9537 38.225L20.9537 38.225C21.8109 38.8484 22.8681 39.1269 24.5389 39.1269C25.696 39.1269 27.0286 39.0062 28.0822 38.2664C28.3578 38.0398 28.8252 38.0318 29.0653 38.3679C29.2938 38.6879 29.2521 39.112 28.9224 39.3479C28.9222 39.3481 28.922 39.3482 28.9219 39.3483L28.8637 39.2669C28.2631 39.7074 27.6224 39.9877 26.9416 40.1479L20.9537 38.225ZM20.9537 38.225L20.953 38.2245C20.6247 37.99 20.2064 38.0868 19.9771 38.362L19.9769 38.3618L19.9725 38.3679C19.738 38.6962 19.8349 39.1145 20.11 39.3438L20.1098 39.3441L20.1174 39.3493C20.7465 39.7819 21.3771 40.0631 22.0449 40.2287C22.2031 41.4476 23.2704 42.4103 24.5389 42.4103C25.8074 42.4103 26.8748 41.4476 27.033 40.2287L20.9537 38.225Z" fill="url(#paint23_linear_19832_2134)" fill-opacity="0.2"/>
<path d="M20.9537 38.225L20.9537 38.225C21.8109 38.8484 22.8681 39.1269 24.5389 39.1269C25.696 39.1269 27.0286 39.0062 28.0822 38.2664C28.3578 38.0398 28.8252 38.0318 29.0653 38.3679C29.2938 38.6879 29.2521 39.112 28.9224 39.3479C28.9222 39.3481 28.922 39.3482 28.9219 39.3483L28.8637 39.2669C28.2631 39.7074 27.6224 39.9877 26.9416 40.1479L20.9537 38.225ZM20.9537 38.225L20.953 38.2245C20.6247 37.99 20.2064 38.0868 19.9771 38.362L19.9769 38.3618L19.9725 38.3679C19.738 38.6962 19.8349 39.1145 20.11 39.3438L20.1098 39.3441L20.1174 39.3493C20.7465 39.7819 21.3771 40.0631 22.0449 40.2287C22.2031 41.4476 23.2704 42.4103 24.5389 42.4103C25.8074 42.4103 26.8748 41.4476 27.033 40.2287L20.9537 38.225Z" stroke="url(#paint24_radial_19832_2134)" stroke-width="0.2"/>
<path d="M20.9537 38.225L20.9537 38.225C21.8109 38.8484 22.8681 39.1269 24.5389 39.1269C25.696 39.1269 27.0286 39.0062 28.0822 38.2664C28.3578 38.0398 28.8252 38.0318 29.0653 38.3679C29.2938 38.6879 29.2521 39.112 28.9224 39.3479C28.9222 39.3481 28.922 39.3482 28.9219 39.3483L28.8637 39.2669C28.2631 39.7074 27.6224 39.9877 26.9416 40.1479L20.9537 38.225ZM20.9537 38.225L20.953 38.2245C20.6247 37.99 20.2064 38.0868 19.9771 38.362L19.9769 38.3618L19.9725 38.3679C19.738 38.6962 19.8349 39.1145 20.11 39.3438L20.1098 39.3441L20.1174 39.3493C20.7465 39.7819 21.3771 40.0631 22.0449 40.2287C22.2031 41.4476 23.2704 42.4103 24.5389 42.4103C25.8074 42.4103 26.8748 41.4476 27.033 40.2287L20.9537 38.225Z" stroke="url(#paint25_linear_19832_2134)" stroke-opacity="0.2" stroke-width="0.2"/>
<path fill-rule="evenodd" clip-rule="evenodd" d="M15.0098 21.4312C15.0098 15.8523 18.9742 11.8164 24.5004 11.8164C29.9865 11.8164 33.991 15.8918 33.991 21.4312C33.991 24.6683 32.516 26.7632 31.2366 28.5804L31.2279 28.5929C31.2019 28.6303 31.1759 28.6677 31.1501 28.7049C30.2198 30.0443 29.3858 31.245 29.3858 32.7078C29.3858 34.6466 26.1422 35.4775 24.5004 35.4775C22.8585 35.4775 19.6149 34.6466 19.6149 32.7078C19.6149 31.2439 18.774 30.0173 17.7729 28.5929L17.7641 28.5804C16.4847 26.7632 15.0098 24.6683 15.0098 21.4312ZM23.9248 26.4819C23.8557 26.4706 23.7898 26.4578 23.7256 26.4439C23.0562 26.2991 22.6507 26.0222 22.4583 25.8367C22.6691 26.04 23.135 26.3533 23.9248 26.4819ZM27.6946 19.5334C27.2833 19.0412 26.469 18.5432 25.3046 18.3767V17.3099C25.3046 16.9024 24.9094 16.6059 24.5151 16.6059C24.1208 16.6059 23.7256 16.9024 23.7256 17.3099V18.3488C22.3002 18.6067 21.1712 19.5712 21.1712 20.8375C21.1712 21.6332 21.5436 22.207 22.0655 22.6306C22.543 23.0182 23.1514 23.2855 23.7256 23.4973V26.239C23.0933 26.0942 22.7315 25.828 22.5802 25.675C22.3206 25.3708 21.8617 25.2855 21.5028 25.5047C21.3276 25.6117 21.2005 25.7707 21.1568 25.9574C21.1126 26.1462 21.1591 26.3426 21.2929 26.505C21.6702 27.0036 22.5219 27.5304 23.6863 27.6993V28.7327C23.6863 29.1402 24.0815 29.4366 24.4758 29.4366C24.8701 29.4366 25.2653 29.1402 25.2653 28.7327V27.6945C26.7264 27.4379 27.859 26.4737 27.859 25.205C27.859 24.4237 27.4842 23.8666 26.9631 23.4526C26.4858 23.0735 25.8767 22.8065 25.3046 22.5821V19.8059C25.5729 19.8704 25.7982 19.9583 25.9761 20.0496C26.2082 20.1686 26.347 20.2868 26.4008 20.3558L26.4052 20.361C26.6749 20.6839 27.1357 20.711 27.4717 20.5469L27.4801 20.5428L27.4881 20.5379C27.6699 20.4269 27.7848 20.2631 27.8209 20.0779C27.8566 19.8949 27.8123 19.7074 27.7074 19.5505L27.7014 19.5416L27.6946 19.5334ZM22.7502 20.8375C22.7502 20.4722 23.0754 20.0199 23.7256 19.817V21.9391C23.4359 21.8003 23.2116 21.6626 23.051 21.511C22.8509 21.3221 22.7502 21.1128 22.7502 20.8375ZM22.5616 20.6928C22.6367 20.2441 23.0551 19.7992 23.7256 19.6085C23.7498 19.6016 23.7741 19.5951 23.7988 19.589C23.0851 19.7671 22.6393 20.2279 22.5616 20.6928ZM22.5586 20.9893C22.6311 21.5672 23.1276 21.908 23.9248 22.2488C23.8559 22.2193 23.79 22.1896 23.7256 22.16C23.0457 21.8471 22.6249 21.5172 22.5586 20.9893ZM26.28 25.205C26.28 25.5704 25.9548 26.0226 25.3046 26.2256V24.1359C25.5964 24.2729 25.8211 24.4048 25.9821 24.551C26.1804 24.7311 26.28 24.931 26.28 25.205Z" fill="url(#paint26_radial_19832_2134)"/>
<path fill-rule="evenodd" clip-rule="evenodd" d="M15.0098 21.4312C15.0098 15.8523 18.9742 11.8164 24.5004 11.8164C29.9865 11.8164 33.991 15.8918 33.991 21.4312C33.991 24.6683 32.516 26.7632 31.2366 28.5804L31.2279 28.5929C31.2019 28.6303 31.1759 28.6677 31.1501 28.7049C30.2198 30.0443 29.3858 31.245 29.3858 32.7078C29.3858 34.6466 26.1422 35.4775 24.5004 35.4775C22.8585 35.4775 19.6149 34.6466 19.6149 32.7078C19.6149 31.2439 18.774 30.0173 17.7729 28.5929L17.7641 28.5804C16.4847 26.7632 15.0098 24.6683 15.0098 21.4312ZM23.9248 26.4819C23.8557 26.4706 23.7898 26.4578 23.7256 26.4439C23.0562 26.2991 22.6507 26.0222 22.4583 25.8367C22.6691 26.04 23.135 26.3533 23.9248 26.4819ZM27.6946 19.5334C27.2833 19.0412 26.469 18.5432 25.3046 18.3767V17.3099C25.3046 16.9024 24.9094 16.6059 24.5151 16.6059C24.1208 16.6059 23.7256 16.9024 23.7256 17.3099V18.3488C22.3002 18.6067 21.1712 19.5712 21.1712 20.8375C21.1712 21.6332 21.5436 22.207 22.0655 22.6306C22.543 23.0182 23.1514 23.2855 23.7256 23.4973V26.239C23.0933 26.0942 22.7315 25.828 22.5802 25.675C22.3206 25.3708 21.8617 25.2855 21.5028 25.5047C21.3276 25.6117 21.2005 25.7707 21.1568 25.9574C21.1126 26.1462 21.1591 26.3426 21.2929 26.505C21.6702 27.0036 22.5219 27.5304 23.6863 27.6993V28.7327C23.6863 29.1402 24.0815 29.4366 24.4758 29.4366C24.8701 29.4366 25.2653 29.1402 25.2653 28.7327V27.6945C26.7264 27.4379 27.859 26.4737 27.859 25.205C27.859 24.4237 27.4842 23.8666 26.9631 23.4526C26.4858 23.0735 25.8767 22.8065 25.3046 22.5821V19.8059C25.5729 19.8704 25.7982 19.9583 25.9761 20.0496C26.2082 20.1686 26.347 20.2868 26.4008 20.3558L26.4052 20.361C26.6749 20.6839 27.1357 20.711 27.4717 20.5469L27.4801 20.5428L27.4881 20.5379C27.6699 20.4269 27.7848 20.2631 27.8209 20.0779C27.8566 19.8949 27.8123 19.7074 27.7074 19.5505L27.7014 19.5416L27.6946 19.5334ZM22.7502 20.8375C22.7502 20.4722 23.0754 20.0199 23.7256 19.817V21.9391C23.4359 21.8003 23.2116 21.6626 23.051 21.511C22.8509 21.3221 22.7502 21.1128 22.7502 20.8375ZM22.5616 20.6928C22.6367 20.2441 23.0551 19.7992 23.7256 19.6085C23.7498 19.6016 23.7741 19.5951 23.7988 19.589C23.0851 19.7671 22.6393 20.2279 22.5616 20.6928ZM22.5586 20.9893C22.6311 21.5672 23.1276 21.908 23.9248 22.2488C23.8559 22.2193 23.79 22.1896 23.7256 22.16C23.0457 21.8471 22.6249 21.5172 22.5586 20.9893ZM26.28 25.205C26.28 25.5704 25.9548 26.0226 25.3046 26.2256V24.1359C25.5964 24.2729 25.8211 24.4048 25.9821 24.551C26.1804 24.7311 26.28 24.931 26.28 25.205Z" fill="url(#paint27_linear_19832_2134)" fill-opacity="0.2"/>
<defs>
<radialGradient id="paint0_radial_19832_2134" cx="0" cy="0" r="1" gradientUnits="userSpaceOnUse" gradientTransform="translate(32.4672 30.563) rotate(13.4904) scale(4.61501 4.54304)">
<stop stop-color="#EFB793"/>
<stop offset="0.32" stop-color="#F5E1AB"/>
<stop offset="0.675" stop-color="#9BDAEC"/>
<stop offset="1" stop-color="#2A7CB5"/>
</radialGradient>
<linearGradient id="paint1_linear_19832_2134" x1="32.3652" y1="31.2285" x2="36.051" y2="29.9525" gradientUnits="userSpaceOnUse">
<stop stop-color="#DFC6B3" stop-opacity="0"/>
<stop offset="0.475262" stop-color="#DFC6B3"/>
<stop offset="1" stop-opacity="0"/>
<stop offset="1" stop-color="#DFC6B3" stop-opacity="0"/>
</linearGradient>
<radialGradient id="paint2_radial_19832_2134" cx="0" cy="0" r="1" gradientUnits="userSpaceOnUse" gradientTransform="translate(35.608 22.7534) rotate(12.9016) scale(5.75464 5.43502)">
<stop stop-color="#EFB793"/>
<stop offset="0.32" stop-color="#F5E1AB"/>
<stop offset="0.675" stop-color="#9BDAEC"/>
<stop offset="1" stop-color="#2A7CB5"/>
</radialGradient>
<linearGradient id="paint3_linear_19832_2134" x1="35.4805" y1="23.5478" x2="40.0402" y2="21.8945" gradientUnits="userSpaceOnUse">
<stop stop-color="#DFC6B3" stop-opacity="0"/>
<stop offset="0.475262" stop-color="#DFC6B3"/>
<stop offset="1" stop-opacity="0"/>
<stop offset="1" stop-color="#DFC6B3" stop-opacity="0"/>
</linearGradient>
<radialGradient id="paint4_radial_19832_2134" cx="0" cy="0" r="1" gradientUnits="userSpaceOnUse" gradientTransform="translate(34.5552 16.6929) rotate(12.9016) scale(5.75464 5.43502)">
<stop stop-color="#EFB793"/>
<stop offset="0.32" stop-color="#F5E1AB"/>
<stop offset="0.675" stop-color="#9BDAEC"/>
<stop offset="1" stop-color="#2A7CB5"/>
</radialGradient>
<linearGradient id="paint5_linear_19832_2134" x1="34.4277" y1="17.4872" x2="38.9874" y2="15.834" gradientUnits="userSpaceOnUse">
<stop stop-color="#DFC6B3" stop-opacity="0"/>
<stop offset="0.475262" stop-color="#DFC6B3"/>
<stop offset="1" stop-opacity="0"/>
<stop offset="1" stop-color="#DFC6B3" stop-opacity="0"/>
</linearGradient>
<radialGradient id="paint6_radial_19832_2134" cx="0" cy="0" r="1" gradientUnits="userSpaceOnUse" gradientTransform="translate(29.9543 11.8433) rotate(13.6467) scale(5.44592 5.41837)">
<stop stop-color="#EFB793"/>
<stop offset="0.32" stop-color="#F5E1AB"/>
<stop offset="0.675" stop-color="#9BDAEC"/>
<stop offset="1" stop-color="#2A7CB5"/>
</radialGradient>
<linearGradient id="paint7_linear_19832_2134" x1="29.834" y1="12.6376" x2="34.1915" y2="11.147" gradientUnits="userSpaceOnUse">
<stop stop-color="#DFC6B3" stop-opacity="0"/>
<stop offset="0.475262" stop-color="#DFC6B3"/>
<stop offset="1" stop-opacity="0"/>
<stop offset="1" stop-color="#DFC6B3" stop-opacity="0"/>
</linearGradient>
<radialGradient id="paint8_radial_19832_2134" cx="0" cy="0" r="1" gradientUnits="userSpaceOnUse" gradientTransform="translate(23.8195 10.5991) rotate(13.6467) scale(5.44592 5.41837)">
<stop stop-color="#EFB793"/>
<stop offset="0.32" stop-color="#F5E1AB"/>
<stop offset="0.675" stop-color="#9BDAEC"/>
<stop offset="1" stop-color="#2A7CB5"/>
</radialGradient>
<linearGradient id="paint9_linear_19832_2134" x1="23.6992" y1="11.3935" x2="28.0567" y2="9.90285" gradientUnits="userSpaceOnUse">
<stop stop-color="#DFC6B3" stop-opacity="0"/>
<stop offset="0.475262" stop-color="#DFC6B3"/>
<stop offset="1" stop-opacity="0"/>
<stop offset="1" stop-color="#DFC6B3" stop-opacity="0"/>
</linearGradient>
<radialGradient id="paint10_radial_19832_2134" cx="0" cy="0" r="1" gradientUnits="userSpaceOnUse" gradientTransform="translate(17.7267 12.897) rotate(13.6467) scale(5.44592 5.41837)">
<stop stop-color="#EFB793"/>
<stop offset="0.32" stop-color="#F5E1AB"/>
<stop offset="0.675" stop-color="#9BDAEC"/>
<stop offset="1" stop-color="#2A7CB5"/>
</radialGradient>
<linearGradient id="paint11_linear_19832_2134" x1="17.6064" y1="13.6913" x2="21.9639" y2="12.2007" gradientUnits="userSpaceOnUse">
<stop stop-color="#DFC6B3" stop-opacity="0"/>
<stop offset="0.475262" stop-color="#DFC6B3"/>
<stop offset="1" stop-opacity="0"/>
<stop offset="1" stop-color="#DFC6B3" stop-opacity="0"/>
</linearGradient>
<radialGradient id="paint12_radial_19832_2134" cx="0" cy="0" r="1" gradientUnits="userSpaceOnUse" gradientTransform="translate(13.771 17.9653) rotate(14.4005) scale(5.16641 5.4006)">
<stop stop-color="#EFB793"/>
<stop offset="0.32" stop-color="#F5E1AB"/>
<stop offset="0.675" stop-color="#9BDAEC"/>
<stop offset="1" stop-color="#2A7CB5"/>
</radialGradient>
<linearGradient id="paint13_linear_19832_2134" x1="13.6572" y1="18.7597" x2="17.8237" y2="17.412" gradientUnits="userSpaceOnUse">
<stop stop-color="#DFC6B3" stop-opacity="0"/>
<stop offset="0.475262" stop-color="#DFC6B3"/>
<stop offset="1" stop-opacity="0"/>
<stop offset="1" stop-color="#DFC6B3" stop-opacity="0"/>
</linearGradient>
<radialGradient id="paint14_radial_19832_2134" cx="0" cy="0" r="1" gradientUnits="userSpaceOnUse" gradientTransform="translate(13.6644 24.4849) rotate(13.736) scale(5.41117 5.41631)">
<stop stop-color="#EFB793"/>
<stop offset="0.32" stop-color="#F5E1AB"/>
<stop offset="0.675" stop-color="#9BDAEC"/>
<stop offset="1" stop-color="#2A7CB5"/>
</radialGradient>
<linearGradient id="paint15_linear_19832_2134" x1="13.5449" y1="25.2792" x2="17.8791" y2="23.8066" gradientUnits="userSpaceOnUse">
<stop stop-color="#DFC6B3" stop-opacity="0"/>
<stop offset="0.475262" stop-color="#DFC6B3"/>
<stop offset="1" stop-opacity="0"/>
<stop offset="1" stop-color="#DFC6B3" stop-opacity="0"/>
</linearGradient>
<radialGradient id="paint16_radial_19832_2134" cx="0" cy="0" r="1" gradientUnits="userSpaceOnUse" gradientTransform="translate(16.8404 30.1411) rotate(12.7127) scale(5.83869 5.4391)">
<stop stop-color="#EFB793"/>
<stop offset="0.32" stop-color="#F5E1AB"/>
<stop offset="0.675" stop-color="#9BDAEC"/>
<stop offset="1" stop-color="#2A7CB5"/>
</radialGradient>
<linearGradient id="paint17_linear_19832_2134" x1="16.7109" y1="30.9355" x2="21.3241" y2="29.2371" gradientUnits="userSpaceOnUse">
<stop stop-color="#DFC6B3" stop-opacity="0"/>
<stop offset="0.475262" stop-color="#DFC6B3"/>
<stop offset="1" stop-opacity="0"/>
<stop offset="1" stop-color="#DFC6B3" stop-opacity="0"/>
</linearGradient>
<radialGradient id="paint18_radial_19832_2134" cx="0" cy="0" r="1" gradientUnits="userSpaceOnUse" gradientTransform="translate(20.15 35.8525) rotate(10.0672) scale(10.6296 7.93913)">
<stop stop-color="#EFB793"/>
<stop offset="0.32" stop-color="#F5E1AB"/>
<stop offset="0.675" stop-color="#9BDAEC"/>
<stop offset="1" stop-color="#2A7CB5"/>
</radialGradient>
<linearGradient id="paint19_linear_19832_2134" x1="19.9121" y1="37.0012" x2="27.8097" y2="33.3067" gradientUnits="userSpaceOnUse">
<stop stop-color="#DFC6B3" stop-opacity="0"/>
<stop offset="0.475262" stop-color="#DFC6B3"/>
<stop offset="1" stop-opacity="0"/>
<stop offset="1" stop-color="#DFC6B3" stop-opacity="0"/>
</linearGradient>
<radialGradient id="paint20_radial_19832_2134" cx="0" cy="0" r="1" gradientUnits="userSpaceOnUse" gradientTransform="translate(20.15 35.8525) rotate(10.0672) scale(10.6296 7.93913)">
<stop stop-color="#EFB793"/>
<stop offset="0.32" stop-color="#F5E1AB"/>
<stop offset="0.675" stop-color="#9BDAEC"/>
<stop offset="1" stop-color="#2A7CB5"/>
</radialGradient>
<linearGradient id="paint21_linear_19832_2134" x1="19.9121" y1="37.0012" x2="27.8097" y2="33.3067" gradientUnits="userSpaceOnUse">
<stop stop-color="#DFC6B3" stop-opacity="0"/>
<stop offset="0.475262" stop-color="#DFC6B3"/>
<stop offset="1" stop-opacity="0"/>
<stop offset="1" stop-color="#DFC6B3" stop-opacity="0"/>
</linearGradient>
<radialGradient id="paint22_radial_19832_2134" cx="0" cy="0" r="1" gradientUnits="userSpaceOnUse" gradientTransform="translate(20.1776 38.8558) rotate(17.4887) scale(10.9388 13.606)">
<stop stop-color="#EFB793"/>
<stop offset="0.32" stop-color="#F5E1AB"/>
<stop offset="0.675" stop-color="#9BDAEC"/>
<stop offset="1" stop-color="#2A7CB5"/>
</radialGradient>
<linearGradient id="paint23_linear_19832_2134" x1="19.9404" y1="40.8881" x2="28.9128" y2="38.523" gradientUnits="userSpaceOnUse">
<stop stop-color="#DFC6B3" stop-opacity="0"/>
<stop offset="0.475262" stop-color="#DFC6B3"/>
<stop offset="1" stop-opacity="0"/>
<stop offset="1" stop-color="#DFC6B3" stop-opacity="0"/>
</linearGradient>
<radialGradient id="paint24_radial_19832_2134" cx="0" cy="0" r="1" gradientUnits="userSpaceOnUse" gradientTransform="translate(20.1776 38.8558) rotate(17.4887) scale(10.9388 13.606)">
<stop stop-color="#EFB793"/>
<stop offset="0.32" stop-color="#F5E1AB"/>
<stop offset="0.675" stop-color="#9BDAEC"/>
<stop offset="1" stop-color="#2A7CB5"/>
</radialGradient>
<linearGradient id="paint25_linear_19832_2134" x1="19.9404" y1="40.8881" x2="28.9128" y2="38.523" gradientUnits="userSpaceOnUse">
<stop stop-color="#DFC6B3" stop-opacity="0"/>
<stop offset="0.475262" stop-color="#DFC6B3"/>
<stop offset="1" stop-opacity="0"/>
<stop offset="1" stop-color="#DFC6B3" stop-opacity="0"/>
</linearGradient>
<radialGradient id="paint26_radial_19832_2134" cx="0" cy="0" r="1" gradientUnits="userSpaceOnUse" gradientTransform="translate(15.5007 15.6281) rotate(41.1695) scale(28.6932 61.702)">
<stop stop-color="#EFB793"/>
<stop offset="0.32" stop-color="#F5E1AB"/>
<stop offset="0.675" stop-color="#9BDAEC"/>
<stop offset="1" stop-color="#2A7CB5"/>
</radialGradient>
<linearGradient id="paint27_linear_19832_2134" x1="15.0098" y1="27.3054" x2="34.6978" y2="25.4356" gradientUnits="userSpaceOnUse">
<stop stop-color="#DFC6B3" stop-opacity="0"/>
<stop offset="0.475262" stop-color="#DFC6B3"/>
<stop offset="1" stop-opacity="0"/>
<stop offset="1" stop-color="#DFC6B3" stop-opacity="0"/>
</linearGradient>
</defs>
</svg>
