<svg width="49" height="48" viewBox="0 0 49 48" fill="none" xmlns="http://www.w3.org/2000/svg">
<g clip-path="url(#clip0_19832_1702)">
<path d="M7.00149 36.0309L6.4059 34.8477C5.01223 35.5478 4.71973 36.3518 4.71973 36.9031C4.71973 39.0757 9.04767 40.2119 13.3227 40.2119C17.5977 40.2119 21.9256 39.0757 21.9256 36.9031C21.9256 36.3518 21.6331 35.5478 20.2368 34.8477L19.6412 36.0309C20.3513 36.3856 20.6021 36.7224 20.6021 36.9031C20.6021 37.5768 18.0324 38.8884 13.3227 38.8884C8.61289 38.8884 6.04326 37.5768 6.04326 36.9031C6.04326 36.7224 6.29406 36.3856 7.00149 36.0309Z" fill="url(#paint0_radial_19832_1702)"/>
<path d="M7.00149 36.0309L6.4059 34.8477C5.01223 35.5478 4.71973 36.3518 4.71973 36.9031C4.71973 39.0757 9.04767 40.2119 13.3227 40.2119C17.5977 40.2119 21.9256 39.0757 21.9256 36.9031C21.9256 36.3518 21.6331 35.5478 20.2368 34.8477L19.6412 36.0309C20.3513 36.3856 20.6021 36.7224 20.6021 36.9031C20.6021 37.5768 18.0324 38.8884 13.3227 38.8884C8.61289 38.8884 6.04326 37.5768 6.04326 36.9031C6.04326 36.7224 6.29406 36.3856 7.00149 36.0309Z" fill="url(#paint1_linear_19832_1702)" fill-opacity="0.2"/>
<path d="M35.1609 25.6537C31.058 25.6537 28.5433 24.5108 28.5433 23.8887C28.5433 23.7564 28.7418 23.4447 29.4883 23.0946L28.9218 21.8988C27.5149 22.5619 27.2197 23.3474 27.2197 23.8887C27.24 24.1996 27.3354 24.5009 27.4977 24.7668C27.66 25.0327 27.8843 25.2553 28.1515 25.4154L18.6168 30.9213V30.286L15.9697 28.9625V36.9037H18.6168V32.4751L29.5624 26.1361C31.3688 26.726 33.2609 27.0103 35.1609 26.9772C39.107 26.9772 43.1021 25.9184 43.1021 23.8887C43.1021 23.3474 42.8069 22.5652 41.4 21.8955L40.8335 23.0913C41.58 23.4447 41.7785 23.759 41.7785 23.8887C41.7785 24.5108 39.2638 25.6537 35.1609 25.6537Z" fill="url(#paint2_radial_19832_1702)"/>
<path d="M35.1609 25.6537C31.058 25.6537 28.5433 24.5108 28.5433 23.8887C28.5433 23.7564 28.7418 23.4447 29.4883 23.0946L28.9218 21.8988C27.5149 22.5619 27.2197 23.3474 27.2197 23.8887C27.24 24.1996 27.3354 24.5009 27.4977 24.7668C27.66 25.0327 27.8843 25.2553 28.1515 25.4154L18.6168 30.9213V30.286L15.9697 28.9625V36.9037H18.6168V32.4751L29.5624 26.1361C31.3688 26.726 33.2609 27.0103 35.1609 26.9772C39.107 26.9772 43.1021 25.9184 43.1021 23.8887C43.1021 23.3474 42.8069 22.5652 41.4 21.8955L40.8335 23.0913C41.58 23.4447 41.7785 23.759 41.7785 23.8887C41.7785 24.5108 39.2638 25.6537 35.1609 25.6537Z" fill="url(#paint3_linear_19832_1702)" fill-opacity="0.2"/>
<path d="M10.3279 12.848L9.70321 11.6807C8.62586 12.2577 8.03027 13.0684 8.03027 13.9624C8.03027 15.7234 10.3061 17.0509 13.3244 17.0509C14.9367 17.1389 16.5265 16.6421 17.8019 15.6519L30.3092 19.4617V23.8889H32.5156V16.6095L30.3099 17.8232V18.0806L18.5411 14.4958C18.5905 14.3223 18.6166 14.1429 18.6185 13.9624C18.6185 13.0684 18.0229 12.2577 16.9456 11.6807L16.3209 12.848C16.9403 13.1789 17.295 13.5852 17.295 13.9624C17.295 14.7956 15.5969 15.7274 13.3244 15.7274C11.0519 15.7274 9.3538 14.7956 9.3538 13.9624C9.3538 13.5852 9.70851 13.1789 10.3279 12.848Z" fill="url(#paint4_radial_19832_1702)"/>
<path d="M10.3279 12.848L9.70321 11.6807C8.62586 12.2577 8.03027 13.0684 8.03027 13.9624C8.03027 15.7234 10.3061 17.0509 13.3244 17.0509C14.9367 17.1389 16.5265 16.6421 17.8019 15.6519L30.3092 19.4617V23.8889H32.5156V16.6095L30.3099 17.8232V18.0806L18.5411 14.4958C18.5905 14.3223 18.6166 14.1429 18.6185 13.9624C18.6185 13.0684 18.0229 12.2577 16.9456 11.6807L16.3209 12.848C16.9403 13.1789 17.295 13.5852 17.295 13.9624C17.295 14.7956 15.5969 15.7274 13.3244 15.7274C11.0519 15.7274 9.3538 14.7956 9.3538 13.9624C9.3538 13.5852 9.70851 13.1789 10.3279 12.848Z" fill="url(#paint5_linear_19832_1702)" fill-opacity="0.2"/>
<path d="M15.3085 26.3154H11.3379V36.9037H15.3085V26.3154Z" fill="url(#paint6_radial_19832_1702)"/>
<path d="M15.3085 26.3154H11.3379V36.9037H15.3085V26.3154Z" fill="url(#paint7_linear_19832_1702)" fill-opacity="0.2"/>
<path d="M8.03027 36.9031H10.6773V28.9619L8.03027 30.2854V36.9031Z" fill="url(#paint8_radial_19832_1702)"/>
<path d="M8.03027 36.9031H10.6773V28.9619L8.03027 30.2854V36.9031Z" fill="url(#paint9_linear_19832_1702)" fill-opacity="0.2"/>
<path d="M37.1464 14.1826H33.1758V23.8887H37.1464V14.1826Z" fill="url(#paint10_radial_19832_1702)"/>
<path d="M37.1464 14.1826H33.1758V23.8887H37.1464V14.1826Z" fill="url(#paint11_linear_19832_1702)" fill-opacity="0.2"/>
<path d="M37.8076 23.8888H40.0133V17.8231L37.8076 16.6094V23.8888Z" fill="url(#paint12_radial_19832_1702)"/>
<path d="M37.8076 23.8888H40.0133V17.8231L37.8076 16.6094V23.8888Z" fill="url(#paint13_linear_19832_1702)" fill-opacity="0.2"/>
<path d="M15.1446 7.89746H11.5049V13.5357H15.1446V7.89746Z" fill="url(#paint14_radial_19832_1702)"/>
<path d="M15.1446 7.89746H11.5049V13.5357H15.1446V7.89746Z" fill="url(#paint15_linear_19832_1702)" fill-opacity="0.2"/>
</g>
<defs>
<radialGradient id="paint0_radial_19832_1702" cx="0" cy="0" r="1" gradientUnits="userSpaceOnUse" gradientTransform="translate(5.16472 35.7118) rotate(12.3372) scale(20.0419 18.1538)">
<stop stop-color="#EFB793"/>
<stop offset="0.32" stop-color="#F5E1AB"/>
<stop offset="0.675" stop-color="#9BDAEC"/>
<stop offset="1" stop-color="#2A7CB5"/>
</radialGradient>
<linearGradient id="paint1_linear_19832_1702" x1="4.71973" y1="38.3592" x2="20.4579" y2="32.3829" gradientUnits="userSpaceOnUse">
<stop stop-color="#DFC6B3" stop-opacity="0"/>
<stop offset="0.475262" stop-color="#DFC6B3"/>
<stop offset="1" stop-opacity="0"/>
<stop offset="1" stop-color="#DFC6B3" stop-opacity="0"/>
</linearGradient>
<radialGradient id="paint2_radial_19832_1702" cx="0" cy="0" r="1" gradientUnits="userSpaceOnUse" gradientTransform="translate(16.6715 24.3133) rotate(21.2086) scale(33.1178 48.47)">
<stop stop-color="#EFB793"/>
<stop offset="0.32" stop-color="#F5E1AB"/>
<stop offset="0.675" stop-color="#9BDAEC"/>
<stop offset="1" stop-color="#2A7CB5"/>
</radialGradient>
<linearGradient id="paint3_linear_19832_1702" x1="15.9697" y1="31.7201" x2="43.1225" y2="25.9086" gradientUnits="userSpaceOnUse">
<stop stop-color="#DFC6B3" stop-opacity="0"/>
<stop offset="0.475262" stop-color="#DFC6B3"/>
<stop offset="1" stop-opacity="0"/>
<stop offset="1" stop-color="#DFC6B3" stop-opacity="0"/>
</linearGradient>
<radialGradient id="paint4_radial_19832_1702" cx="0" cy="0" r="1" gradientUnits="userSpaceOnUse" gradientTransform="translate(8.66354 13.6474) rotate(19.2787) scale(29.5178 39.9203)">
<stop stop-color="#EFB793"/>
<stop offset="0.32" stop-color="#F5E1AB"/>
<stop offset="0.675" stop-color="#9BDAEC"/>
<stop offset="1" stop-color="#2A7CB5"/>
</radialGradient>
<linearGradient id="paint5_linear_19832_1702" x1="8.03027" y1="19.6724" x2="32.2887" y2="13.9123" gradientUnits="userSpaceOnUse">
<stop stop-color="#DFC6B3" stop-opacity="0"/>
<stop offset="0.475262" stop-color="#DFC6B3"/>
<stop offset="1" stop-opacity="0"/>
<stop offset="1" stop-color="#DFC6B3" stop-opacity="0"/>
</linearGradient>
<radialGradient id="paint6_radial_19832_1702" cx="0" cy="0" r="1" gradientUnits="userSpaceOnUse" gradientTransform="translate(11.4406 28.0211) rotate(61.8734) scale(9.58429 17.2917)">
<stop stop-color="#EFB793"/>
<stop offset="0.32" stop-color="#F5E1AB"/>
<stop offset="0.675" stop-color="#9BDAEC"/>
<stop offset="1" stop-color="#2A7CB5"/>
</radialGradient>
<linearGradient id="paint7_linear_19832_1702" x1="11.3379" y1="33.2467" x2="15.4853" y2="33.0626" gradientUnits="userSpaceOnUse">
<stop stop-color="#DFC6B3" stop-opacity="0"/>
<stop offset="0.475262" stop-color="#DFC6B3"/>
<stop offset="1" stop-opacity="0"/>
<stop offset="1" stop-color="#DFC6B3" stop-opacity="0"/>
</linearGradient>
<radialGradient id="paint8_radial_19832_1702" cx="0" cy="0" r="1" gradientUnits="userSpaceOnUse" gradientTransform="translate(8.09873 30.2412) rotate(64.5851) scale(7.01858 11.8064)">
<stop stop-color="#EFB793"/>
<stop offset="0.32" stop-color="#F5E1AB"/>
<stop offset="0.675" stop-color="#9BDAEC"/>
<stop offset="1" stop-color="#2A7CB5"/>
</radialGradient>
<linearGradient id="paint9_linear_19832_1702" x1="8.03027" y1="34.1604" x2="10.7964" y2="34.0512" gradientUnits="userSpaceOnUse">
<stop stop-color="#DFC6B3" stop-opacity="0"/>
<stop offset="0.475262" stop-color="#DFC6B3"/>
<stop offset="1" stop-opacity="0"/>
<stop offset="1" stop-color="#DFC6B3" stop-opacity="0"/>
</linearGradient>
<radialGradient id="paint10_radial_19832_1702" cx="0" cy="0" r="1" gradientUnits="userSpaceOnUse" gradientTransform="translate(33.2785 15.7462) rotate(59.7523) scale(8.9694 16.9377)">
<stop stop-color="#EFB793"/>
<stop offset="0.32" stop-color="#F5E1AB"/>
<stop offset="0.675" stop-color="#9BDAEC"/>
<stop offset="1" stop-color="#2A7CB5"/>
</radialGradient>
<linearGradient id="paint11_linear_19832_1702" x1="33.1758" y1="20.5364" x2="37.3217" y2="20.3356" gradientUnits="userSpaceOnUse">
<stop stop-color="#DFC6B3" stop-opacity="0"/>
<stop offset="0.475262" stop-color="#DFC6B3"/>
<stop offset="1" stop-opacity="0"/>
<stop offset="1" stop-color="#DFC6B3" stop-opacity="0"/>
</linearGradient>
<radialGradient id="paint12_radial_19832_1702" cx="0" cy="0" r="1" gradientUnits="userSpaceOnUse" gradientTransform="translate(37.8647 17.7821) rotate(66.6398) scale(6.32993 9.99897)">
<stop stop-color="#EFB793"/>
<stop offset="0.32" stop-color="#F5E1AB"/>
<stop offset="0.675" stop-color="#9BDAEC"/>
<stop offset="1" stop-color="#2A7CB5"/>
</radialGradient>
<linearGradient id="paint13_linear_19832_1702" x1="37.8076" y1="21.3746" x2="40.1131" y2="21.2919" gradientUnits="userSpaceOnUse">
<stop stop-color="#DFC6B3" stop-opacity="0"/>
<stop offset="0.475262" stop-color="#DFC6B3"/>
<stop offset="1" stop-opacity="0"/>
<stop offset="1" stop-color="#DFC6B3" stop-opacity="0"/>
</linearGradient>
<radialGradient id="paint14_radial_19832_1702" cx="0" cy="0" r="1" gradientUnits="userSpaceOnUse" gradientTransform="translate(11.599 8.80575) rotate(47.38) scale(6.11656 13.2258)">
<stop stop-color="#EFB793"/>
<stop offset="0.32" stop-color="#F5E1AB"/>
<stop offset="0.675" stop-color="#9BDAEC"/>
<stop offset="1" stop-color="#2A7CB5"/>
</radialGradient>
<linearGradient id="paint15_linear_19832_1702" x1="11.5049" y1="11.5884" x2="15.2921" y2="11.2989" gradientUnits="userSpaceOnUse">
<stop stop-color="#DFC6B3" stop-opacity="0"/>
<stop offset="0.475262" stop-color="#DFC6B3"/>
<stop offset="1" stop-opacity="0"/>
<stop offset="1" stop-color="#DFC6B3" stop-opacity="0"/>
</linearGradient>
<clipPath id="clip0_19832_1702">
<rect width="40" height="32.6316" fill="white" transform="translate(4.5 7.68457)"/>
</clipPath>
</defs>
</svg>
