<svg width="48" height="48" viewBox="0 0 48 48" fill="none" xmlns="http://www.w3.org/2000/svg">
<path fill-rule="evenodd" clip-rule="evenodd" d="M11.4777 32.6084C10.1817 32.6084 9.12988 33.6602 9.12988 34.9562C9.12988 36.2522 10.1817 37.3041 11.4777 37.3041C12.7737 37.3041 13.8255 36.2522 13.8255 34.9562C13.8255 33.6602 12.7737 32.6084 11.4777 32.6084Z" fill="url(#paint0_radial_19832_1992)"/>
<path fill-rule="evenodd" clip-rule="evenodd" d="M11.4777 32.6084C10.1817 32.6084 9.12988 33.6602 9.12988 34.9562C9.12988 36.2522 10.1817 37.3041 11.4777 37.3041C12.7737 37.3041 13.8255 36.2522 13.8255 34.9562C13.8255 33.6602 12.7737 32.6084 11.4777 32.6084Z" fill="url(#paint1_linear_19832_1992)" fill-opacity="0.2"/>
<path fill-rule="evenodd" clip-rule="evenodd" d="M11.4777 23.2168C10.1817 23.2168 9.12988 24.2686 9.12988 25.5646C9.12988 26.8606 10.1817 27.9124 11.4777 27.9124C12.7737 27.9124 13.8255 26.8606 13.8255 25.5646C13.8255 24.2686 12.7737 23.2168 11.4777 23.2168Z" fill="url(#paint2_radial_19832_1992)"/>
<path fill-rule="evenodd" clip-rule="evenodd" d="M11.4777 23.2168C10.1817 23.2168 9.12988 24.2686 9.12988 25.5646C9.12988 26.8606 10.1817 27.9124 11.4777 27.9124C12.7737 27.9124 13.8255 26.8606 13.8255 25.5646C13.8255 24.2686 12.7737 23.2168 11.4777 23.2168Z" fill="url(#paint3_linear_19832_1992)" fill-opacity="0.2"/>
<path fill-rule="evenodd" clip-rule="evenodd" d="M17.7394 32.6084C16.4434 32.6084 15.3916 33.6602 15.3916 34.9562C15.3916 36.2522 16.4434 37.3041 17.7394 37.3041C19.0354 37.3041 20.0873 36.2522 20.0873 34.9562C20.0873 33.6602 19.0354 32.6084 17.7394 32.6084Z" fill="url(#paint4_radial_19832_1992)"/>
<path fill-rule="evenodd" clip-rule="evenodd" d="M17.7394 32.6084C16.4434 32.6084 15.3916 33.6602 15.3916 34.9562C15.3916 36.2522 16.4434 37.3041 17.7394 37.3041C19.0354 37.3041 20.0873 36.2522 20.0873 34.9562C20.0873 33.6602 19.0354 32.6084 17.7394 32.6084Z" fill="url(#paint5_linear_19832_1992)" fill-opacity="0.2"/>
<path fill-rule="evenodd" clip-rule="evenodd" d="M17.7394 23.2168C16.4434 23.2168 15.3916 24.2686 15.3916 25.5646C15.3916 26.8606 16.4434 27.9124 17.7394 27.9124C19.0354 27.9124 20.0873 26.8606 20.0873 25.5646C20.0873 24.2686 19.0354 23.2168 17.7394 23.2168Z" fill="url(#paint6_radial_19832_1992)"/>
<path fill-rule="evenodd" clip-rule="evenodd" d="M17.7394 23.2168C16.4434 23.2168 15.3916 24.2686 15.3916 25.5646C15.3916 26.8606 16.4434 27.9124 17.7394 27.9124C19.0354 27.9124 20.0873 26.8606 20.0873 25.5646C20.0873 24.2686 19.0354 23.2168 17.7394 23.2168Z" fill="url(#paint7_linear_19832_1992)" fill-opacity="0.2"/>
<path fill-rule="evenodd" clip-rule="evenodd" d="M31.3561 36.5214V33.391C31.3561 32.959 30.9353 32.6084 30.4168 32.6084C29.8983 32.6084 29.4775 32.959 29.4775 33.391V36.5214C29.4775 36.9534 29.8983 37.3041 30.4168 37.3041C30.9353 37.3041 31.3561 36.9534 31.3561 36.5214Z" fill="url(#paint8_radial_19832_1992)"/>
<path fill-rule="evenodd" clip-rule="evenodd" d="M31.3561 36.5214V33.391C31.3561 32.959 30.9353 32.6084 30.4168 32.6084C29.8983 32.6084 29.4775 32.959 29.4775 33.391V36.5214C29.4775 36.9534 29.8983 37.3041 30.4168 37.3041C30.9353 37.3041 31.3561 36.9534 31.3561 36.5214Z" fill="url(#paint9_linear_19832_1992)" fill-opacity="0.2"/>
<path fill-rule="evenodd" clip-rule="evenodd" d="M31.3561 27.1298V23.9994C31.3561 23.5674 30.9353 23.2168 30.4168 23.2168C29.8983 23.2168 29.4775 23.5674 29.4775 23.9994V27.1298C29.4775 27.5618 29.8983 27.9124 30.4168 27.9124C30.9353 27.9124 31.3561 27.5618 31.3561 27.1298Z" fill="url(#paint10_radial_19832_1992)"/>
<path fill-rule="evenodd" clip-rule="evenodd" d="M31.3561 27.1298V23.9994C31.3561 23.5674 30.9353 23.2168 30.4168 23.2168C29.8983 23.2168 29.4775 23.5674 29.4775 23.9994V27.1298C29.4775 27.5618 29.8983 27.9124 30.4168 27.9124C30.9353 27.9124 31.3561 27.5618 31.3561 27.1298Z" fill="url(#paint11_linear_19832_1992)" fill-opacity="0.2"/>
<path fill-rule="evenodd" clip-rule="evenodd" d="M35.112 36.5214V33.391C35.112 32.959 34.6912 32.6084 34.1727 32.6084C33.6542 32.6084 33.2334 32.959 33.2334 33.391V36.5214C33.2334 36.9534 33.6542 37.3041 34.1727 37.3041C34.6912 37.3041 35.112 36.9534 35.112 36.5214Z" fill="url(#paint12_radial_19832_1992)"/>
<path fill-rule="evenodd" clip-rule="evenodd" d="M35.112 36.5214V33.391C35.112 32.959 34.6912 32.6084 34.1727 32.6084C33.6542 32.6084 33.2334 32.959 33.2334 33.391V36.5214C33.2334 36.9534 33.6542 37.3041 34.1727 37.3041C34.6912 37.3041 35.112 36.9534 35.112 36.5214Z" fill="url(#paint13_linear_19832_1992)" fill-opacity="0.2"/>
<path fill-rule="evenodd" clip-rule="evenodd" d="M35.112 27.1298V23.9994C35.112 23.5674 34.6912 23.2168 34.1727 23.2168C33.6542 23.2168 33.2334 23.5674 33.2334 23.9994V27.1298C33.2334 27.5618 33.6542 27.9124 34.1727 27.9124C34.6912 27.9124 35.112 27.5618 35.112 27.1298Z" fill="url(#paint14_radial_19832_1992)"/>
<path fill-rule="evenodd" clip-rule="evenodd" d="M35.112 27.1298V23.9994C35.112 23.5674 34.6912 23.2168 34.1727 23.2168C33.6542 23.2168 33.2334 23.5674 33.2334 23.9994V27.1298C33.2334 27.5618 33.6542 27.9124 34.1727 27.9124C34.6912 27.9124 35.112 27.5618 35.112 27.1298Z" fill="url(#paint15_linear_19832_1992)" fill-opacity="0.2"/>
<path fill-rule="evenodd" clip-rule="evenodd" d="M38.8698 36.5214V33.391C38.8698 32.959 38.449 32.6084 37.9305 32.6084C37.412 32.6084 36.9912 32.959 36.9912 33.391V36.5214C36.9912 36.9534 37.412 37.3041 37.9305 37.3041C38.449 37.3041 38.8698 36.9534 38.8698 36.5214Z" fill="url(#paint16_radial_19832_1992)"/>
<path fill-rule="evenodd" clip-rule="evenodd" d="M38.8698 36.5214V33.391C38.8698 32.959 38.449 32.6084 37.9305 32.6084C37.412 32.6084 36.9912 32.959 36.9912 33.391V36.5214C36.9912 36.9534 37.412 37.3041 37.9305 37.3041C38.449 37.3041 38.8698 36.9534 38.8698 36.5214Z" fill="url(#paint17_linear_19832_1992)" fill-opacity="0.2"/>
<path fill-rule="evenodd" clip-rule="evenodd" d="M38.8698 27.1298V23.9994C38.8698 23.5674 38.449 23.2168 37.9305 23.2168C37.412 23.2168 36.9912 23.5674 36.9912 23.9994V27.1298C36.9912 27.5618 37.412 27.9124 37.9305 27.9124C38.449 27.9124 38.8698 27.5618 38.8698 27.1298Z" fill="url(#paint18_radial_19832_1992)"/>
<path fill-rule="evenodd" clip-rule="evenodd" d="M38.8698 27.1298V23.9994C38.8698 23.5674 38.449 23.2168 37.9305 23.2168C37.412 23.2168 36.9912 23.5674 36.9912 23.9994V27.1298C36.9912 27.5618 37.412 27.9124 37.9305 27.9124C38.449 27.9124 38.8698 27.5618 38.8698 27.1298Z" fill="url(#paint19_linear_19832_1992)" fill-opacity="0.2"/>
<path fill-rule="evenodd" clip-rule="evenodd" d="M25.7053 8.31046C26.2019 8.38854 26.6201 8.73987 26.7638 9.23433L27.0513 10.2102C27.6263 10.3924 28.1752 10.6266 28.7109 10.8999L29.6126 10.4054C30.0569 10.1712 30.6188 10.2102 31.0239 10.5095C31.9387 11.1862 32.7489 11.9929 33.4284 12.9038C33.742 13.3202 33.7812 13.8667 33.533 14.3091L33.0364 15.2069C33.3239 15.7404 33.546 16.2869 33.729 16.8595L34.7091 17.1457C35.2056 17.2889 35.5585 17.6923 35.6369 18.1997C35.731 18.8272 35.773 19.4547 35.7628 20.0822H37.2724L37.273 20.0872H38.087C39.1247 20.0872 40.1202 20.4997 40.8543 21.233C41.5876 21.9671 42 22.9625 42 24.0003V27.1307C42 28.1684 41.5876 29.1639 40.8543 29.898C40.722 30.0295 40.5819 30.1508 40.4348 30.2611C40.5819 30.3715 40.722 30.4928 40.8543 30.6243C41.5876 31.3584 42 32.3538 42 33.3916V36.522C42 37.5598 41.5876 38.5552 40.8543 39.2893C40.1202 40.0226 39.1247 40.4351 38.087 40.4351H9.91304C8.8753 40.4351 7.87982 40.0226 7.14573 39.2893C6.41243 38.5552 6 37.5598 6 36.522V33.3916C6 32.3538 6.41243 31.3584 7.14573 30.6243C7.27799 30.4928 7.41809 30.3715 7.56522 30.2611C7.41809 30.1508 7.27799 30.0295 7.14573 29.898C6.41243 29.1639 6 28.1684 6 27.1307V24.0003C6 22.9625 6.41243 21.9671 7.14573 21.233C7.87982 20.4997 8.8753 20.0872 9.91304 20.0872H10.7199L10.7206 20.0822H12.2372C12.227 19.4547 12.269 18.8272 12.3631 18.1997C12.4415 17.7053 12.7944 17.2889 13.2909 17.1457L14.271 16.8595C14.454 16.2869 14.6892 15.7404 14.9636 15.2069L14.467 14.3091C14.2318 13.8667 14.271 13.3071 14.5716 12.9038C15.2511 11.9929 16.0613 11.1862 16.9761 10.5095C17.3942 10.1972 17.9431 10.1582 18.3874 10.4054L19.2891 10.8999C19.8248 10.6136 20.3737 10.3924 20.9487 10.2102L21.2362 9.23433C21.3799 8.73987 21.785 8.38854 22.2947 8.31046C23.4316 8.1413 24.5685 8.1413 25.7053 8.31046ZM29.2176 20.082C29.2176 20.0821 29.2176 20.0822 29.2176 20.0822H27.8338L27.8348 20.0872H26.6006C26.6049 20.0268 26.607 19.9658 26.607 19.9043C26.607 18.473 25.4309 17.3019 23.9935 17.3019C22.556 17.3019 21.3799 18.473 21.3799 19.9043C21.3799 19.9658 21.3821 20.0268 21.3863 20.0872H20.1652L20.1662 20.0822H18.7693C18.7693 20.0822 18.7693 20.0821 18.7693 20.082H17.5937C17.9761 16.8832 20.6986 14.4033 24.0004 14.4033C27.3022 14.4033 30.0248 16.8832 30.4071 20.082H29.2176ZM8.25313 31.7317C8.69295 31.2911 9.29009 31.0438 9.91304 31.0438H38.087C38.7099 31.0438 39.307 31.2911 39.7469 31.7317C40.1875 32.1715 40.4348 32.7686 40.4348 33.3916V36.522C40.4348 37.145 40.1875 37.7421 39.7469 38.1819C39.307 38.6225 38.7099 38.8698 38.087 38.8698H9.91304C9.29009 38.8698 8.69295 38.6225 8.25313 38.1819C7.81252 37.7421 7.56522 37.145 7.56522 36.522V33.3916C7.56522 32.7686 7.81252 32.1715 8.25313 31.7317ZM38.087 29.4785H9.91304C9.29009 29.4785 8.69295 29.2312 8.25313 28.7906C7.81252 28.3508 7.56522 27.7537 7.56522 27.1307V24.0003C7.56522 23.3773 7.81252 22.7802 8.25313 22.3404C8.69295 21.8998 9.29009 21.6525 9.91304 21.6525H38.087C38.7099 21.6525 39.307 21.8998 39.7469 22.3404C40.1875 22.7802 40.4348 23.3773 40.4348 24.0003V27.1307C40.4348 27.7537 40.1875 28.3508 39.7469 28.7906C39.307 29.2312 38.7099 29.4785 38.087 29.4785Z" fill="url(#paint20_radial_19832_1992)"/>
<path fill-rule="evenodd" clip-rule="evenodd" d="M25.7053 8.31046C26.2019 8.38854 26.6201 8.73987 26.7638 9.23433L27.0513 10.2102C27.6263 10.3924 28.1752 10.6266 28.7109 10.8999L29.6126 10.4054C30.0569 10.1712 30.6188 10.2102 31.0239 10.5095C31.9387 11.1862 32.7489 11.9929 33.4284 12.9038C33.742 13.3202 33.7812 13.8667 33.533 14.3091L33.0364 15.2069C33.3239 15.7404 33.546 16.2869 33.729 16.8595L34.7091 17.1457C35.2056 17.2889 35.5585 17.6923 35.6369 18.1997C35.731 18.8272 35.773 19.4547 35.7628 20.0822H37.2724L37.273 20.0872H38.087C39.1247 20.0872 40.1202 20.4997 40.8543 21.233C41.5876 21.9671 42 22.9625 42 24.0003V27.1307C42 28.1684 41.5876 29.1639 40.8543 29.898C40.722 30.0295 40.5819 30.1508 40.4348 30.2611C40.5819 30.3715 40.722 30.4928 40.8543 30.6243C41.5876 31.3584 42 32.3538 42 33.3916V36.522C42 37.5598 41.5876 38.5552 40.8543 39.2893C40.1202 40.0226 39.1247 40.4351 38.087 40.4351H9.91304C8.8753 40.4351 7.87982 40.0226 7.14573 39.2893C6.41243 38.5552 6 37.5598 6 36.522V33.3916C6 32.3538 6.41243 31.3584 7.14573 30.6243C7.27799 30.4928 7.41809 30.3715 7.56522 30.2611C7.41809 30.1508 7.27799 30.0295 7.14573 29.898C6.41243 29.1639 6 28.1684 6 27.1307V24.0003C6 22.9625 6.41243 21.9671 7.14573 21.233C7.87982 20.4997 8.8753 20.0872 9.91304 20.0872H10.7199L10.7206 20.0822H12.2372C12.227 19.4547 12.269 18.8272 12.3631 18.1997C12.4415 17.7053 12.7944 17.2889 13.2909 17.1457L14.271 16.8595C14.454 16.2869 14.6892 15.7404 14.9636 15.2069L14.467 14.3091C14.2318 13.8667 14.271 13.3071 14.5716 12.9038C15.2511 11.9929 16.0613 11.1862 16.9761 10.5095C17.3942 10.1972 17.9431 10.1582 18.3874 10.4054L19.2891 10.8999C19.8248 10.6136 20.3737 10.3924 20.9487 10.2102L21.2362 9.23433C21.3799 8.73987 21.785 8.38854 22.2947 8.31046C23.4316 8.1413 24.5685 8.1413 25.7053 8.31046ZM29.2176 20.082C29.2176 20.0821 29.2176 20.0822 29.2176 20.0822H27.8338L27.8348 20.0872H26.6006C26.6049 20.0268 26.607 19.9658 26.607 19.9043C26.607 18.473 25.4309 17.3019 23.9935 17.3019C22.556 17.3019 21.3799 18.473 21.3799 19.9043C21.3799 19.9658 21.3821 20.0268 21.3863 20.0872H20.1652L20.1662 20.0822H18.7693C18.7693 20.0822 18.7693 20.0821 18.7693 20.082H17.5937C17.9761 16.8832 20.6986 14.4033 24.0004 14.4033C27.3022 14.4033 30.0248 16.8832 30.4071 20.082H29.2176ZM8.25313 31.7317C8.69295 31.2911 9.29009 31.0438 9.91304 31.0438H38.087C38.7099 31.0438 39.307 31.2911 39.7469 31.7317C40.1875 32.1715 40.4348 32.7686 40.4348 33.3916V36.522C40.4348 37.145 40.1875 37.7421 39.7469 38.1819C39.307 38.6225 38.7099 38.8698 38.087 38.8698H9.91304C9.29009 38.8698 8.69295 38.6225 8.25313 38.1819C7.81252 37.7421 7.56522 37.145 7.56522 36.522V33.3916C7.56522 32.7686 7.81252 32.1715 8.25313 31.7317ZM38.087 29.4785H9.91304C9.29009 29.4785 8.69295 29.2312 8.25313 28.7906C7.81252 28.3508 7.56522 27.7537 7.56522 27.1307V24.0003C7.56522 23.3773 7.81252 22.7802 8.25313 22.3404C8.69295 21.8998 9.29009 21.6525 9.91304 21.6525H38.087C38.7099 21.6525 39.307 21.8998 39.7469 22.3404C40.1875 22.7802 40.4348 23.3773 40.4348 24.0003V27.1307C40.4348 27.7537 40.1875 28.3508 39.7469 28.7906C39.307 29.2312 38.7099 29.4785 38.087 29.4785Z" fill="url(#paint21_linear_19832_1992)" fill-opacity="0.2"/>
<defs>
<radialGradient id="paint0_radial_19832_1992" cx="0" cy="0" r="1" gradientUnits="userSpaceOnUse" gradientTransform="translate(9.25133 33.3648) rotate(35.0507) scale(6.52703 13.3167)">
<stop stop-color="#EFB793"/>
<stop offset="0.32" stop-color="#F5E1AB"/>
<stop offset="0.675" stop-color="#9BDAEC"/>
<stop offset="1" stop-color="#2A7CB5"/>
</radialGradient>
<linearGradient id="paint1_linear_19832_1992" x1="9.12988" y1="35.6823" x2="13.9764" y2="35.1085" gradientUnits="userSpaceOnUse">
<stop stop-color="#DFC6B3" stop-opacity="0"/>
<stop offset="0.475262" stop-color="#DFC6B3"/>
<stop offset="1" stop-opacity="0"/>
<stop offset="1" stop-color="#DFC6B3" stop-opacity="0"/>
</linearGradient>
<radialGradient id="paint2_radial_19832_1992" cx="0" cy="0" r="1" gradientUnits="userSpaceOnUse" gradientTransform="translate(9.25133 23.9732) rotate(35.0507) scale(6.52703 13.3167)">
<stop stop-color="#EFB793"/>
<stop offset="0.32" stop-color="#F5E1AB"/>
<stop offset="0.675" stop-color="#9BDAEC"/>
<stop offset="1" stop-color="#2A7CB5"/>
</radialGradient>
<linearGradient id="paint3_linear_19832_1992" x1="9.12988" y1="26.2907" x2="13.9764" y2="25.7169" gradientUnits="userSpaceOnUse">
<stop stop-color="#DFC6B3" stop-opacity="0"/>
<stop offset="0.475262" stop-color="#DFC6B3"/>
<stop offset="1" stop-opacity="0"/>
<stop offset="1" stop-color="#DFC6B3" stop-opacity="0"/>
</linearGradient>
<radialGradient id="paint4_radial_19832_1992" cx="0" cy="0" r="1" gradientUnits="userSpaceOnUse" gradientTransform="translate(15.513 33.3648) rotate(35.0507) scale(6.52703 13.3167)">
<stop stop-color="#EFB793"/>
<stop offset="0.32" stop-color="#F5E1AB"/>
<stop offset="0.675" stop-color="#9BDAEC"/>
<stop offset="1" stop-color="#2A7CB5"/>
</radialGradient>
<linearGradient id="paint5_linear_19832_1992" x1="15.3916" y1="35.6823" x2="20.2381" y2="35.1085" gradientUnits="userSpaceOnUse">
<stop stop-color="#DFC6B3" stop-opacity="0"/>
<stop offset="0.475262" stop-color="#DFC6B3"/>
<stop offset="1" stop-opacity="0"/>
<stop offset="1" stop-color="#DFC6B3" stop-opacity="0"/>
</linearGradient>
<radialGradient id="paint6_radial_19832_1992" cx="0" cy="0" r="1" gradientUnits="userSpaceOnUse" gradientTransform="translate(15.513 23.9732) rotate(35.0507) scale(6.52703 13.3167)">
<stop stop-color="#EFB793"/>
<stop offset="0.32" stop-color="#F5E1AB"/>
<stop offset="0.675" stop-color="#9BDAEC"/>
<stop offset="1" stop-color="#2A7CB5"/>
</radialGradient>
<linearGradient id="paint7_linear_19832_1992" x1="15.3916" y1="26.2907" x2="20.2381" y2="25.7169" gradientUnits="userSpaceOnUse">
<stop stop-color="#DFC6B3" stop-opacity="0"/>
<stop offset="0.475262" stop-color="#DFC6B3"/>
<stop offset="1" stop-opacity="0"/>
<stop offset="1" stop-color="#DFC6B3" stop-opacity="0"/>
</linearGradient>
<radialGradient id="paint8_radial_19832_1992" cx="0" cy="0" r="1" gradientUnits="userSpaceOnUse" gradientTransform="translate(29.5261 33.3648) rotate(60.3048) scale(4.31518 8.05831)">
<stop stop-color="#EFB793"/>
<stop offset="0.32" stop-color="#F5E1AB"/>
<stop offset="0.675" stop-color="#9BDAEC"/>
<stop offset="1" stop-color="#2A7CB5"/>
</radialGradient>
<linearGradient id="paint9_linear_19832_1992" x1="29.4775" y1="35.6823" x2="31.4392" y2="35.5893" gradientUnits="userSpaceOnUse">
<stop stop-color="#DFC6B3" stop-opacity="0"/>
<stop offset="0.475262" stop-color="#DFC6B3"/>
<stop offset="1" stop-opacity="0"/>
<stop offset="1" stop-color="#DFC6B3" stop-opacity="0"/>
</linearGradient>
<radialGradient id="paint10_radial_19832_1992" cx="0" cy="0" r="1" gradientUnits="userSpaceOnUse" gradientTransform="translate(29.5261 23.9732) rotate(60.3048) scale(4.31518 8.05831)">
<stop stop-color="#EFB793"/>
<stop offset="0.32" stop-color="#F5E1AB"/>
<stop offset="0.675" stop-color="#9BDAEC"/>
<stop offset="1" stop-color="#2A7CB5"/>
</radialGradient>
<linearGradient id="paint11_linear_19832_1992" x1="29.4775" y1="26.2907" x2="31.4392" y2="26.1977" gradientUnits="userSpaceOnUse">
<stop stop-color="#DFC6B3" stop-opacity="0"/>
<stop offset="0.475262" stop-color="#DFC6B3"/>
<stop offset="1" stop-opacity="0"/>
<stop offset="1" stop-color="#DFC6B3" stop-opacity="0"/>
</linearGradient>
<radialGradient id="paint12_radial_19832_1992" cx="0" cy="0" r="1" gradientUnits="userSpaceOnUse" gradientTransform="translate(33.282 33.3648) rotate(60.3048) scale(4.31518 8.05831)">
<stop stop-color="#EFB793"/>
<stop offset="0.32" stop-color="#F5E1AB"/>
<stop offset="0.675" stop-color="#9BDAEC"/>
<stop offset="1" stop-color="#2A7CB5"/>
</radialGradient>
<linearGradient id="paint13_linear_19832_1992" x1="33.2334" y1="35.6823" x2="35.1951" y2="35.5893" gradientUnits="userSpaceOnUse">
<stop stop-color="#DFC6B3" stop-opacity="0"/>
<stop offset="0.475262" stop-color="#DFC6B3"/>
<stop offset="1" stop-opacity="0"/>
<stop offset="1" stop-color="#DFC6B3" stop-opacity="0"/>
</linearGradient>
<radialGradient id="paint14_radial_19832_1992" cx="0" cy="0" r="1" gradientUnits="userSpaceOnUse" gradientTransform="translate(33.282 23.9732) rotate(60.3048) scale(4.31518 8.05831)">
<stop stop-color="#EFB793"/>
<stop offset="0.32" stop-color="#F5E1AB"/>
<stop offset="0.675" stop-color="#9BDAEC"/>
<stop offset="1" stop-color="#2A7CB5"/>
</radialGradient>
<linearGradient id="paint15_linear_19832_1992" x1="33.2334" y1="26.2907" x2="35.1951" y2="26.1977" gradientUnits="userSpaceOnUse">
<stop stop-color="#DFC6B3" stop-opacity="0"/>
<stop offset="0.475262" stop-color="#DFC6B3"/>
<stop offset="1" stop-opacity="0"/>
<stop offset="1" stop-color="#DFC6B3" stop-opacity="0"/>
</linearGradient>
<radialGradient id="paint16_radial_19832_1992" cx="0" cy="0" r="1" gradientUnits="userSpaceOnUse" gradientTransform="translate(37.0398 33.3648) rotate(60.3048) scale(4.31518 8.05831)">
<stop stop-color="#EFB793"/>
<stop offset="0.32" stop-color="#F5E1AB"/>
<stop offset="0.675" stop-color="#9BDAEC"/>
<stop offset="1" stop-color="#2A7CB5"/>
</radialGradient>
<linearGradient id="paint17_linear_19832_1992" x1="36.9912" y1="35.6823" x2="38.9529" y2="35.5893" gradientUnits="userSpaceOnUse">
<stop stop-color="#DFC6B3" stop-opacity="0"/>
<stop offset="0.475262" stop-color="#DFC6B3"/>
<stop offset="1" stop-opacity="0"/>
<stop offset="1" stop-color="#DFC6B3" stop-opacity="0"/>
</linearGradient>
<radialGradient id="paint18_radial_19832_1992" cx="0" cy="0" r="1" gradientUnits="userSpaceOnUse" gradientTransform="translate(37.0398 23.9732) rotate(60.3048) scale(4.31518 8.05831)">
<stop stop-color="#EFB793"/>
<stop offset="0.32" stop-color="#F5E1AB"/>
<stop offset="0.675" stop-color="#9BDAEC"/>
<stop offset="1" stop-color="#2A7CB5"/>
</radialGradient>
<linearGradient id="paint19_linear_19832_1992" x1="36.9912" y1="26.2907" x2="38.9529" y2="26.1977" gradientUnits="userSpaceOnUse">
<stop stop-color="#DFC6B3" stop-opacity="0"/>
<stop offset="0.475262" stop-color="#DFC6B3"/>
<stop offset="1" stop-opacity="0"/>
<stop offset="1" stop-color="#DFC6B3" stop-opacity="0"/>
</linearGradient>
<radialGradient id="paint20_radial_19832_1992" cx="0" cy="0" r="1" gradientUnits="userSpaceOnUse" gradientTransform="translate(6.93107 13.3791) rotate(32.1485) scale(48.3841 94.595)">
<stop stop-color="#EFB793"/>
<stop offset="0.32" stop-color="#F5E1AB"/>
<stop offset="0.675" stop-color="#9BDAEC"/>
<stop offset="1" stop-color="#2A7CB5"/>
</radialGradient>
<linearGradient id="paint21_linear_19832_1992" x1="6" y1="29.296" x2="43.0307" y2="24.4024" gradientUnits="userSpaceOnUse">
<stop stop-color="#DFC6B3" stop-opacity="0"/>
<stop offset="0.475262" stop-color="#DFC6B3"/>
<stop offset="1" stop-opacity="0"/>
<stop offset="1" stop-color="#DFC6B3" stop-opacity="0"/>
</linearGradient>
</defs>
</svg>
