<svg width="48" height="48" viewBox="0 0 48 48" fill="none" xmlns="http://www.w3.org/2000/svg">
<g clip-path="url(#clip0_19832_2099)">
<path d="M40.6028 23.127H31.0365C30.8752 23.1269 30.7153 23.1587 30.5662 23.2204C30.4171 23.2822 30.2816 23.3727 30.1675 23.4868C30.0533 23.601 29.9628 23.7365 29.9011 23.8856C29.8393 24.0347 29.8076 24.1945 29.8076 24.3559V40.3123C29.8076 40.4737 29.8393 40.6335 29.9011 40.7826C29.9628 40.9317 30.0534 41.0672 30.1675 41.1814C30.2816 41.2955 30.4171 41.386 30.5662 41.4478C30.7153 41.5095 30.8752 41.5413 31.0365 41.5412H40.6028C40.7642 41.5413 40.924 41.5095 41.0731 41.4478C41.2223 41.386 41.3578 41.2955 41.4719 41.1814C41.586 41.0672 41.6765 40.9317 41.7383 40.7826C41.8 40.6335 41.8318 40.4737 41.8318 40.3123V24.3559C41.8318 24.1945 41.8 24.0347 41.7383 23.8856C41.6765 23.7364 41.586 23.601 41.4719 23.4868C41.3578 23.3727 41.2223 23.2822 41.0731 23.2204C40.924 23.1587 40.7642 23.1269 40.6028 23.127ZM40.097 38.0288C40.0972 38.0959 40.0841 38.1625 40.0585 38.2245C40.0329 38.2866 39.9953 38.343 39.9478 38.3904C39.9004 38.4379 39.844 38.4755 39.7819 38.5011C39.7199 38.5267 39.6534 38.5398 39.5862 38.5396H32.0531C31.986 38.5398 31.9195 38.5267 31.8574 38.5011C31.7954 38.4755 31.739 38.4379 31.6915 38.3904C31.644 38.343 31.6064 38.2866 31.5808 38.2245C31.5552 38.1625 31.5421 38.0959 31.5423 38.0288V25.5596C31.5421 25.4925 31.5552 25.426 31.5808 25.3639C31.6064 25.3018 31.644 25.2455 31.6915 25.198C31.739 25.1505 31.7954 25.1129 31.8574 25.0873C31.9195 25.0617 31.986 25.0486 32.0531 25.0488H39.5862C39.6534 25.0486 39.7199 25.0617 39.7819 25.0873C39.844 25.1129 39.9004 25.1505 39.9478 25.198C39.9953 25.2455 40.0329 25.3018 40.0585 25.3639C40.0841 25.426 40.0972 25.4925 40.097 25.5596V38.0288Z" fill="url(#paint0_radial_19832_2099)"/>
<path d="M40.6028 23.127H31.0365C30.8752 23.1269 30.7153 23.1587 30.5662 23.2204C30.4171 23.2822 30.2816 23.3727 30.1675 23.4868C30.0533 23.601 29.9628 23.7365 29.9011 23.8856C29.8393 24.0347 29.8076 24.1945 29.8076 24.3559V40.3123C29.8076 40.4737 29.8393 40.6335 29.9011 40.7826C29.9628 40.9317 30.0534 41.0672 30.1675 41.1814C30.2816 41.2955 30.4171 41.386 30.5662 41.4478C30.7153 41.5095 30.8752 41.5413 31.0365 41.5412H40.6028C40.7642 41.5413 40.924 41.5095 41.0731 41.4478C41.2223 41.386 41.3578 41.2955 41.4719 41.1814C41.586 41.0672 41.6765 40.9317 41.7383 40.7826C41.8 40.6335 41.8318 40.4737 41.8318 40.3123V24.3559C41.8318 24.1945 41.8 24.0347 41.7383 23.8856C41.6765 23.7364 41.586 23.601 41.4719 23.4868C41.3578 23.3727 41.2223 23.2822 41.0731 23.2204C40.924 23.1587 40.7642 23.1269 40.6028 23.127ZM40.097 38.0288C40.0972 38.0959 40.0841 38.1625 40.0585 38.2245C40.0329 38.2866 39.9953 38.343 39.9478 38.3904C39.9004 38.4379 39.844 38.4755 39.7819 38.5011C39.7199 38.5267 39.6534 38.5398 39.5862 38.5396H32.0531C31.986 38.5398 31.9195 38.5267 31.8574 38.5011C31.7954 38.4755 31.739 38.4379 31.6915 38.3904C31.644 38.343 31.6064 38.2866 31.5808 38.2245C31.5552 38.1625 31.5421 38.0959 31.5423 38.0288V25.5596C31.5421 25.4925 31.5552 25.426 31.5808 25.3639C31.6064 25.3018 31.644 25.2455 31.6915 25.198C31.739 25.1505 31.7954 25.1129 31.8574 25.0873C31.9195 25.0617 31.986 25.0486 32.0531 25.0488H39.5862C39.6534 25.0486 39.7199 25.0617 39.7819 25.0873C39.844 25.1129 39.9004 25.1505 39.9478 25.198C39.9953 25.2455 40.0329 25.3018 40.0585 25.3639C40.0841 25.426 40.0972 25.4925 40.097 25.5596V38.0288Z" fill="url(#paint1_linear_19832_2099)" fill-opacity="0.2"/>
<path d="M28.1639 38.0645H6.16895C6.29659 39.0464 6.77687 39.9485 7.52032 40.6026C8.26376 41.2567 9.21966 41.6183 10.2099 41.6198H28.48C28.2716 41.2156 28.1632 40.7673 28.1639 40.3125V38.0645Z" fill="url(#paint2_radial_19832_2099)"/>
<path d="M28.1639 38.0645H6.16895C6.29659 39.0464 6.77687 39.9485 7.52032 40.6026C8.26376 41.2567 9.21966 41.6183 10.2099 41.6198H28.48C28.2716 41.2156 28.1632 40.7673 28.1639 40.3125V38.0645Z" fill="url(#paint3_linear_19832_2099)" fill-opacity="0.2"/>
<path d="M14.8521 18.072C14.0126 17.8652 13.1284 17.9388 12.3347 18.2816C11.541 18.6245 10.8813 19.2177 10.4564 19.9707C10.0315 20.7237 9.86477 21.5951 9.98167 22.4518C10.0986 23.3085 10.4927 24.1033 11.1038 24.715C11.7149 25.3266 12.5094 25.7214 13.366 25.8391C14.2226 25.9567 15.0941 25.7908 15.8475 25.3665C16.6009 24.9423 17.1947 24.2831 17.5382 23.4897C17.8818 22.6963 17.9562 21.8122 17.75 20.9725L15.3553 23.3647C14.971 23.749 14.4498 23.9649 13.9064 23.9649C13.3629 23.9649 12.8417 23.749 12.4574 23.3647C12.0731 22.9804 11.8572 22.4592 11.8572 21.9157C11.8572 21.3723 12.0731 20.851 12.4574 20.4668L14.8521 18.072Z" fill="url(#paint4_radial_19832_2099)"/>
<path d="M14.8521 18.072C14.0126 17.8652 13.1284 17.9388 12.3347 18.2816C11.541 18.6245 10.8813 19.2177 10.4564 19.9707C10.0315 20.7237 9.86477 21.5951 9.98167 22.4518C10.0986 23.3085 10.4927 24.1033 11.1038 24.715C11.7149 25.3266 12.5094 25.7214 13.366 25.8391C14.2226 25.9567 15.0941 25.7908 15.8475 25.3665C16.6009 24.9423 17.1947 24.2831 17.5382 23.4897C17.8818 22.6963 17.9562 21.8122 17.75 20.9725L15.3553 23.3647C14.971 23.749 14.4498 23.9649 13.9064 23.9649C13.3629 23.9649 12.8417 23.749 12.4574 23.3647C12.0731 22.9804 11.8572 22.4592 11.8572 21.9157C11.8572 21.3723 12.0731 20.851 12.4574 20.4668L14.8521 18.072Z" fill="url(#paint5_linear_19832_2099)" fill-opacity="0.2"/>
<path d="M13.9069 29.6541C15.2611 29.6546 16.5918 29.2996 17.7657 28.6244C18.9397 27.9493 19.9159 26.9778 20.5966 25.8071C21.2773 24.6364 21.6387 23.3075 21.6448 21.9532C21.6508 20.599 21.3011 19.2669 20.6308 18.0902L19.2096 19.5114C19.5555 20.2658 19.7341 21.0862 19.7331 21.9162C19.7333 23.1746 19.326 24.3994 18.5723 25.4071C17.8186 26.4149 16.7588 27.1516 15.5516 27.507C14.3443 27.8623 13.0545 27.8174 11.875 27.3787C10.6954 26.9401 9.68958 26.1314 9.00788 25.0735C8.32619 24.0157 8.00528 22.7656 8.09314 21.5102C8.18101 20.2548 8.67294 19.0616 9.49535 18.109C10.3178 17.1565 11.4264 16.4958 12.6556 16.2257C13.8847 15.9557 15.1683 16.0908 16.3142 16.6109L17.7329 15.1923C16.7031 14.6063 15.5526 14.2646 14.3699 14.1936C13.1873 14.1226 12.0041 14.3241 10.9117 14.7827C9.81922 15.2412 8.84666 15.9445 8.06899 16.8383C7.29132 17.7322 6.7293 18.7927 6.42628 19.938C6.12326 21.0834 6.08733 22.2831 6.32125 23.4446C6.55518 24.606 7.05271 25.6982 7.77549 26.637C8.49827 27.5758 9.42699 28.3361 10.49 28.8592C11.5531 29.3823 12.7221 29.6542 13.9069 29.6541Z" fill="url(#paint6_radial_19832_2099)"/>
<path d="M13.9069 29.6541C15.2611 29.6546 16.5918 29.2996 17.7657 28.6244C18.9397 27.9493 19.9159 26.9778 20.5966 25.8071C21.2773 24.6364 21.6387 23.3075 21.6448 21.9532C21.6508 20.599 21.3011 19.2669 20.6308 18.0902L19.2096 19.5114C19.5555 20.2658 19.7341 21.0862 19.7331 21.9162C19.7333 23.1746 19.326 24.3994 18.5723 25.4071C17.8186 26.4149 16.7588 27.1516 15.5516 27.507C14.3443 27.8623 13.0545 27.8174 11.875 27.3787C10.6954 26.9401 9.68958 26.1314 9.00788 25.0735C8.32619 24.0157 8.00528 22.7656 8.09314 21.5102C8.18101 20.2548 8.67294 19.0616 9.49535 18.109C10.3178 17.1565 11.4264 16.4958 12.6556 16.2257C13.8847 15.9557 15.1683 16.0908 16.3142 16.6109L17.7329 15.1923C16.7031 14.6063 15.5526 14.2646 14.3699 14.1936C13.1873 14.1226 12.0041 14.3241 10.9117 14.7827C9.81922 15.2412 8.84666 15.9445 8.06899 16.8383C7.29132 17.7322 6.7293 18.7927 6.42628 19.938C6.12326 21.0834 6.08733 22.2831 6.32125 23.4446C6.55518 24.606 7.05271 25.6982 7.77549 26.637C8.49827 27.5758 9.42699 28.3361 10.49 28.8592C11.5531 29.3823 12.7221 29.6542 13.9069 29.6541Z" fill="url(#paint7_linear_19832_2099)" fill-opacity="0.2"/>
<path d="M11.7257 36.1096V31.1693C10.9187 30.9798 10.1402 30.6848 9.41016 30.292V36.1096H11.7257Z" fill="url(#paint8_radial_19832_2099)"/>
<path d="M11.7257 36.1096V31.1693C10.9187 30.9798 10.1402 30.6848 9.41016 30.292V36.1096H11.7257Z" fill="url(#paint9_linear_19832_2099)" fill-opacity="0.2"/>
<path d="M21.918 16.8026C22.1868 17.2229 22.4226 17.6634 22.6235 18.1201H36.2736V21.4833H38.59V16.8532C38.5894 16.6677 38.5406 16.4856 38.4484 16.3247C38.3581 16.1651 38.2268 16.0326 38.0681 15.941C37.9093 15.8494 37.7289 15.802 37.5456 15.8038H22.9168L21.918 16.8026Z" fill="url(#paint10_radial_19832_2099)"/>
<path d="M21.918 16.8026C22.1868 17.2229 22.4226 17.6634 22.6235 18.1201H36.2736V21.4833H38.59V16.8532C38.5894 16.6677 38.5406 16.4856 38.4484 16.3247C38.3581 16.1651 38.2268 16.0326 38.0681 15.941C37.9093 15.8494 37.7289 15.802 37.5456 15.8038H22.9168L21.918 16.8026Z" fill="url(#paint11_linear_19832_2099)" fill-opacity="0.2"/>
<path d="M13.5072 22.2464C13.5894 22.3379 13.6893 22.4117 13.801 22.4633C13.9126 22.5149 14.0336 22.5432 14.1565 22.5465C14.2794 22.5498 14.4017 22.5281 14.516 22.4825C14.6302 22.437 14.734 22.3687 14.8209 22.2817L23.3604 13.7423C23.4994 13.6034 23.6868 13.5238 23.8833 13.5203L25.6963 13.4881C25.9583 13.4834 26.2083 13.3773 26.3936 13.192L29.3757 10.2099C29.4113 10.1742 29.4355 10.1288 29.4451 10.0793C29.4547 10.0298 29.4493 9.97862 29.4296 9.93223C29.4099 9.88585 29.3768 9.8464 29.3346 9.81897C29.2923 9.79153 29.2428 9.77735 29.1924 9.77824L26.2576 9.83032C26.2236 9.83093 26.1899 9.82468 26.1584 9.81197C26.1269 9.79925 26.0983 9.78032 26.0743 9.7563C26.0503 9.73229 26.0314 9.70368 26.0186 9.67219C26.0059 9.6407 25.9997 9.60696 26.0003 9.57301L26.0524 6.63822C26.0533 6.58784 26.0391 6.53833 26.0117 6.49606C25.9842 6.45379 25.9448 6.42068 25.8984 6.40098C25.852 6.38128 25.8008 6.37589 25.7513 6.3855C25.7018 6.39511 25.6564 6.41928 25.6207 6.45491L22.6386 9.437C22.4534 9.62231 22.3472 9.87228 22.3425 10.1343L22.3107 11.9308C22.3072 12.1273 22.2275 12.3148 22.0886 12.4537L13.577 20.9652C13.4052 21.1302 13.3024 21.3542 13.2895 21.5921C13.2765 21.8299 13.3544 22.0638 13.5072 22.2464Z" fill="url(#paint12_radial_19832_2099)"/>
<path d="M13.5072 22.2464C13.5894 22.3379 13.6893 22.4117 13.801 22.4633C13.9126 22.5149 14.0336 22.5432 14.1565 22.5465C14.2794 22.5498 14.4017 22.5281 14.516 22.4825C14.6302 22.437 14.734 22.3687 14.8209 22.2817L23.3604 13.7423C23.4994 13.6034 23.6868 13.5238 23.8833 13.5203L25.6963 13.4881C25.9583 13.4834 26.2083 13.3773 26.3936 13.192L29.3757 10.2099C29.4113 10.1742 29.4355 10.1288 29.4451 10.0793C29.4547 10.0298 29.4493 9.97862 29.4296 9.93223C29.4099 9.88585 29.3768 9.8464 29.3346 9.81897C29.2923 9.79153 29.2428 9.77735 29.1924 9.77824L26.2576 9.83032C26.2236 9.83093 26.1899 9.82468 26.1584 9.81197C26.1269 9.79925 26.0983 9.78032 26.0743 9.7563C26.0503 9.73229 26.0314 9.70368 26.0186 9.67219C26.0059 9.6407 25.9997 9.60696 26.0003 9.57301L26.0524 6.63822C26.0533 6.58784 26.0391 6.53833 26.0117 6.49606C25.9842 6.45379 25.9448 6.42068 25.8984 6.40098C25.852 6.38128 25.8008 6.37589 25.7513 6.3855C25.7018 6.39511 25.6564 6.41928 25.6207 6.45491L22.6386 9.437C22.4534 9.62231 22.3472 9.87228 22.3425 10.1343L22.3107 11.9308C22.3072 12.1273 22.2275 12.3148 22.0886 12.4537L13.577 20.9652C13.4052 21.1302 13.3024 21.3542 13.2895 21.5921C13.2765 21.8299 13.3544 22.0638 13.5072 22.2464Z" fill="url(#paint13_linear_19832_2099)" fill-opacity="0.2"/>
</g>
<defs>
<radialGradient id="paint0_radial_19832_2099" cx="0" cy="0" r="1" gradientUnits="userSpaceOnUse" gradientTransform="translate(30.1186 26.0934) rotate(47.0527) scale(20.0824 43.4624)">
<stop stop-color="#EFB793"/>
<stop offset="0.32" stop-color="#F5E1AB"/>
<stop offset="0.675" stop-color="#9BDAEC"/>
<stop offset="1" stop-color="#2A7CB5"/>
</radialGradient>
<linearGradient id="paint1_linear_19832_2099" x1="29.8076" y1="35.1813" x2="42.3173" y2="34.2142" gradientUnits="userSpaceOnUse">
<stop stop-color="#DFC6B3" stop-opacity="0"/>
<stop offset="0.475262" stop-color="#DFC6B3"/>
<stop offset="1" stop-opacity="0"/>
<stop offset="1" stop-color="#DFC6B3" stop-opacity="0"/>
</linearGradient>
<radialGradient id="paint2_radial_19832_2099" cx="0" cy="0" r="1" gradientUnits="userSpaceOnUse" gradientTransform="translate(6.74598 38.6372) rotate(6.37873) scale(25.5466 12.2404)">
<stop stop-color="#EFB793"/>
<stop offset="0.32" stop-color="#F5E1AB"/>
<stop offset="0.675" stop-color="#9BDAEC"/>
<stop offset="1" stop-color="#2A7CB5"/>
</radialGradient>
<linearGradient id="paint3_linear_19832_2099" x1="6.16895" y1="40.3919" x2="21.2151" y2="29.2137" gradientUnits="userSpaceOnUse">
<stop stop-color="#DFC6B3" stop-opacity="0"/>
<stop offset="0.475262" stop-color="#DFC6B3"/>
<stop offset="1" stop-opacity="0"/>
<stop offset="1" stop-color="#DFC6B3" stop-opacity="0"/>
</linearGradient>
<radialGradient id="paint4_radial_19832_2099" cx="0" cy="0" r="1" gradientUnits="userSpaceOnUse" gradientTransform="translate(10.1501 19.2327) rotate(35.0507) scale(11.0074 22.4576)">
<stop stop-color="#EFB793"/>
<stop offset="0.32" stop-color="#F5E1AB"/>
<stop offset="0.675" stop-color="#9BDAEC"/>
<stop offset="1" stop-color="#2A7CB5"/>
</radialGradient>
<linearGradient id="paint5_linear_19832_2099" x1="9.94531" y1="23.1409" x2="18.1186" y2="22.1732" gradientUnits="userSpaceOnUse">
<stop stop-color="#DFC6B3" stop-opacity="0"/>
<stop offset="0.475262" stop-color="#DFC6B3"/>
<stop offset="1" stop-opacity="0"/>
<stop offset="1" stop-color="#DFC6B3" stop-opacity="0"/>
</linearGradient>
<radialGradient id="paint6_radial_19832_2099" cx="0" cy="0" r="1" gradientUnits="userSpaceOnUse" gradientTransform="translate(6.5692 16.6725) rotate(35.0482) scale(21.5111 43.8862)">
<stop stop-color="#EFB793"/>
<stop offset="0.32" stop-color="#F5E1AB"/>
<stop offset="0.675" stop-color="#9BDAEC"/>
<stop offset="1" stop-color="#2A7CB5"/>
</radialGradient>
<linearGradient id="paint7_linear_19832_2099" x1="6.16895" y1="24.3095" x2="22.142" y2="22.4183" gradientUnits="userSpaceOnUse">
<stop stop-color="#DFC6B3" stop-opacity="0"/>
<stop offset="0.475262" stop-color="#DFC6B3"/>
<stop offset="1" stop-opacity="0"/>
<stop offset="1" stop-color="#DFC6B3" stop-opacity="0"/>
</linearGradient>
<radialGradient id="paint8_radial_19832_2099" cx="0" cy="0" r="1" gradientUnits="userSpaceOnUse" gradientTransform="translate(9.47004 31.2292) rotate(60.4309) scale(5.33959 9.94525)">
<stop stop-color="#EFB793"/>
<stop offset="0.32" stop-color="#F5E1AB"/>
<stop offset="0.675" stop-color="#9BDAEC"/>
<stop offset="1" stop-color="#2A7CB5"/>
</radialGradient>
<linearGradient id="paint9_linear_19832_2099" x1="9.41016" y1="34.1003" x2="11.8282" y2="33.9864" gradientUnits="userSpaceOnUse">
<stop stop-color="#DFC6B3" stop-opacity="0"/>
<stop offset="0.475262" stop-color="#DFC6B3"/>
<stop offset="1" stop-opacity="0"/>
<stop offset="1" stop-color="#DFC6B3" stop-opacity="0"/>
</linearGradient>
<radialGradient id="paint10_radial_19832_2099" cx="0" cy="0" r="1" gradientUnits="userSpaceOnUse" gradientTransform="translate(22.3492 16.7187) rotate(13.4409) scale(19.5058 19.1364)">
<stop stop-color="#EFB793"/>
<stop offset="0.32" stop-color="#F5E1AB"/>
<stop offset="0.675" stop-color="#9BDAEC"/>
<stop offset="1" stop-color="#2A7CB5"/>
</radialGradient>
<linearGradient id="paint11_linear_19832_2099" x1="21.918" y1="19.5217" x2="37.4866" y2="14.1112" gradientUnits="userSpaceOnUse">
<stop stop-color="#DFC6B3" stop-opacity="0"/>
<stop offset="0.475262" stop-color="#DFC6B3"/>
<stop offset="1" stop-opacity="0"/>
<stop offset="1" stop-color="#DFC6B3" stop-opacity="0"/>
</linearGradient>
<radialGradient id="paint12_radial_19832_2099" cx="0" cy="0" r="1" gradientUnits="userSpaceOnUse" gradientTransform="translate(13.7061 8.98512) rotate(35.0579) scale(22.467 45.842)">
<stop stop-color="#EFB793"/>
<stop offset="0.32" stop-color="#F5E1AB"/>
<stop offset="0.675" stop-color="#9BDAEC"/>
<stop offset="1" stop-color="#2A7CB5"/>
</radialGradient>
<linearGradient id="paint13_linear_19832_2099" x1="13.2881" y1="16.9634" x2="29.9691" y2="14.9891" gradientUnits="userSpaceOnUse">
<stop stop-color="#DFC6B3" stop-opacity="0"/>
<stop offset="0.475262" stop-color="#DFC6B3"/>
<stop offset="1" stop-opacity="0"/>
<stop offset="1" stop-color="#DFC6B3" stop-opacity="0"/>
</linearGradient>
<clipPath id="clip0_19832_2099">
<rect width="36" height="36" fill="white" transform="translate(6 6)"/>
</clipPath>
</defs>
</svg>
